<?xml version="1.0" encoding="UTF-8"?>
<svg id="Camada_1" xmlns="http://www.w3.org/2000/svg" version="1.1" viewBox="0 0 1405.4 878.9">
  <!-- Generator: Adobe Illustrator 30.2.1, SVG Export Plug-In . SVG Version: 2.1.1 Build 1)  -->
  <defs>
    <style>
      .st0 {
        fill: #fff;
      }

      .st1 {
        fill: none;
      }

      .st2 {
        fill: #efefef;
      }

      .st3 {
        fill: #ee6f22;
      }
    </style>
  </defs>
  <path class="st1" d="M1269.6,604.6c.3.3.7.7,1,1-.3-.3-.7-.7-1-1Z"/>
  <path class="st1" d="M1267.1,602.2c.5.4.9.8,1.4,1.3-.5-.4-.9-.8-1.4-1.3Z"/>
  <path class="st1" d="M1264.7,600.2c.3.3.7.6,1,.8-.3-.3-.7-.6-1-.8Z"/>
  <path class="st1" d="M1272.3,607.3c.3.4.7.7,1,1.1-.3-.4-.7-.7-1-1.1Z"/>
  <path class="st1" d="M1252.9,592.4c.3.2.6.3.9.5-.3-.2-.6-.3-.9-.5Z"/>
  <path class="st1" d="M1287.1,631.3c.2.5.4,1,.5,1.5-.2-.5-.3-1-.5-1.5Z"/>
  <path class="st1" d="M1259,596c.4.3.8.5,1.1.8-.4-.3-.7-.5-1.1-.8Z"/>
  <path class="st1" d="M1261.7,597.9c.3.2.7.5,1,.7-.3-.2-.7-.5-1-.7Z"/>
  <path class="st1" d="M1283.9,624c.3.6.6,1.1.8,1.7-.3-.6-.5-1.1-.8-1.7Z"/>
  <path class="st1" d="M1285.3,627c.4.9.8,1.8,1.2,2.7-.4-.9-.8-1.8-1.2-2.7Z"/>
  <path class="st1" d="M1282.4,621.2c.3.6.6,1.1.9,1.7-.3-.6-.6-1.1-.9-1.7Z"/>
  <path class="st1" d="M1276.6,612.4c.3.4.6.8.9,1.2-.3-.4-.6-.8-.9-1.2Z"/>
  <path class="st1" d="M1274.3,609.6c.5.6.9,1.1,1.4,1.7-.5-.6-.9-1.1-1.4-1.7Z"/>
  <path class="st1" d="M1280.8,618.4c.3.6.7,1.1,1,1.7-.3-.6-.7-1.1-1-1.7Z"/>
  <path class="st1" d="M1277.6,613.8c.9,1.3,1.8,2.6,2.7,3.9-.9-1.3-1.7-2.6-2.7-3.9Z"/>
  <path class="st1" d="M1256.1,594.2c.3.2.6.4.9.6-.3-.2-.6-.4-.9-.6Z"/>
  <path class="st1" d="M1211.6,584.2c1,0,2.1-.2,3.2-.2-1.1,0-2.1,0-3.2.2Z"/>
  <path class="st1" d="M1225.9,584.2h.6-.6Z"/>
  <path class="st1" d="M1250,590.9c.2,0,.5.2.7.4-.2,0-.5-.2-.7-.4Z"/>
  <path class="st1" d="M1215.3,583.9h3.3-3.3Z"/>
  <path class="st1" d="M1207.7,584.7c1-.2,2.1-.3,3.1-.4-1.1,0-2.1.2-3.1.4Z"/>
  <path class="st1" d="M1200.9,586c1-.2,1.9-.5,2.9-.7-1,.2-2,.4-2.9.7Z"/>
  <path class="st1" d="M1204.4,585.2c.9-.2,1.9-.4,2.9-.5-1,.2-1.9.3-2.9.5Z"/>
  <path class="st1" d="M1222.1,583.9h.6-.6Z"/>
  <path class="st1" d="M1243.3,588.1c.2,0,.5.2.7.3-.2,0-.5-.2-.7-.3Z"/>
  <path class="st1" d="M1197.3,587c.9-.3,1.9-.5,2.8-.8-.9.2-1.9.5-2.8.8Z"/>
  <path class="st1" d="M1246.8,589.4c.3,0,.5.2.8.3-.3,0-.5-.2-.8-.3Z"/>
  <path class="st1" d="M1233,585.2h.6-.6Z"/>
  <path class="st1" d="M1229.8,584.7h0Z"/>
  <path class="st1" d="M1236.6,586.1c.2,0,.4,0,.7.2-.2,0-.4,0-.7-.2Z"/>
  <path class="st1" d="M1240.3,587.1h.3-.3Z"/>
  <path class="st1" d="M1147.3,671.8c.2.8.4,1.6.6,2.4-.2-.8-.4-1.6-.6-2.4Z"/>
  <path class="st1" d="M1146.6,668.5c0,.7.2,1.4.4,2,0-.7-.3-1.3-.4-2Z"/>
  <path class="st1" d="M1149.4,679.7c.2.5.3.9.5,1.4-.2-.4-.3-.9-.5-1.4Z"/>
  <path class="st1" d="M1148.4,676.3c.2.6.3,1.2.5,1.7-.2-.6-.3-1.2-.5-1.7Z"/>
  <path class="st1" d="M1146.2,665c0,.7.2,1.4.3,2.1,0-.7-.2-1.4-.3-2.1Z"/>
  <path class="st1" d="M1145.8,653.4v3.5-3.5Z"/>
  <path class="st1" d="M1145.9,661.4c0,.8,0,1.5.2,2.3,0-.8,0-1.5-.2-2.3Z"/>
  <path class="st1" d="M1150.5,682.9c0,.4.3.8.5,1.1-.2-.4-.3-.8-.5-1.1Z"/>
  <path class="st1" d="M1159,698.7s.2.3.3.4c0,0-.2-.3-.3-.4Z"/>
  <path class="st1" d="M1145.8,660.3v-3.5h0v3.5Z"/>
  <polygon class="st1" points="1160.8 701.2 1160.8 701.2 1160.8 701.2 1160.8 701.2"/>
  <path class="st1" d="M1151.8,685.9c0,.3.3.6.4.8,0-.3-.3-.6-.4-.8Z"/>
  <path class="st1" d="M1157.3,696.2s.2.3.3.4c0,0-.2-.3-.3-.4Z"/>
  <path class="st1" d="M1146,649.9c0,.8,0,1.5-.2,2.3,0-.8,0-1.5.2-2.3Z"/>
  <path class="st1" d="M1291.2,648.7v1.2-1.2Z"/>
  <path class="st1" d="M1291.5,652.3v1.1-1.1Z"/>
  <path class="st1" d="M1159.2,614.6s-.2.2-.2.3c0,0,.2-.2.2-.3Z"/>
  <path class="st1" d="M1288.2,634.4c.2.5.3,1,.5,1.5,0-.5-.3-1-.5-1.5Z"/>
  <path class="st1" d="M1157.5,617.1s-.2.3-.2.4c0,0,.2-.3.2-.4Z"/>
  <path class="st1" d="M1289.1,637.7c0,.4.2.9.4,1.3,0-.4-.2-.9-.4-1.3Z"/>
  <path class="st1" d="M1290.8,645.4c0,.4,0,.8.2,1.2,0-.4,0-.8-.2-1.2Z"/>
  <path class="st1" d="M1290.1,641.8c0,.3,0,.5.2.8,0-.3,0-.5-.2-.8Z"/>
  <path class="st1" d="M1146.4,646.5c0,.7-.2,1.4-.3,2.1,0-.7.2-1.4.3-2.1Z"/>
  <path class="st1" d="M1147.8,639.4c-.2.8-.4,1.6-.5,2.4.2-.8.4-1.6.5-2.4Z"/>
  <path class="st1" d="M1152.1,626.9c0,.3-.2.5-.4.8,0-.3.2-.5.4-.8Z"/>
  <path class="st1" d="M1148.9,635.6c-.2.6-.3,1.1-.5,1.7.2-.6.3-1.1.5-1.7Z"/>
  <path class="st1" d="M1147,643.1c0,.7-.3,1.3-.4,2,0-.7.2-1.3.4-2Z"/>
  <path class="st1" d="M1151,629.6c0,.4-.3.7-.4,1.1,0-.4.3-.7.4-1.1Z"/>
  <path class="st1" d="M1149.9,632.6c-.2.4-.3.9-.4,1.3,0-.4.3-.9.4-1.3Z"/>
  <path class="st1" d="M1163.7,704.7c0-.2-.3-.3-.4-.5,0,.2.3.3.4.5Z"/>
  <path class="st1" d="M1265.7,712.6c-.4.3-.7.6-1.1.9.4-.3.7-.6,1.1-.9Z"/>
  <path class="st1" d="M1260.2,716.9c-.4.3-.8.6-1.3.9.4-.3.8-.6,1.3-.9Z"/>
  <path class="st1" d="M1262.7,715c-.3.3-.7.5-1,.8.3-.3.7-.5,1-.8Z"/>
  <path class="st1" d="M1268.5,710.1c-.5.5-1,.9-1.5,1.4.5-.4,1-.9,1.5-1.4Z"/>
  <path class="st1" d="M1275.7,702.3c-.5.6-1,1.2-1.5,1.8.5-.6,1-1.2,1.5-1.8Z"/>
  <path class="st1" d="M1270.7,708c-.3.3-.7.7-1,1,.4-.3.7-.7,1-1Z"/>
  <path class="st1" d="M1273.3,705.2c-.3.4-.7.8-1,1.1.3-.4.7-.8,1-1.1Z"/>
  <path class="st1" d="M1281.8,693.5c-.3.6-.7,1.2-1,1.7.4-.6.7-1.2,1-1.7Z"/>
  <path class="st1" d="M1257.1,718.9c-.3.2-.7.4-1,.6.3-.2.7-.4,1-.6Z"/>
  <path class="st1" d="M1240.7,726.4h-.5.5Z"/>
  <path class="st1" d="M1237.4,727.4c-.2,0-.5,0-.7.2.2,0,.5,0,.7-.2Z"/>
  <path class="st1" d="M1244.1,725.3c-.3,0-.5.2-.8.3.3,0,.5-.2.8-.3Z"/>
  <path class="st1" d="M1253.8,720.8c-.3.2-.6.3-.9.5.3-.2.6-.3.9-.5Z"/>
  <path class="st1" d="M1247.6,723.9c-.3,0-.6.2-.9.4.3,0,.6-.2.9-.4Z"/>
  <path class="st1" d="M1250.8,722.4c-.3,0-.6.3-.9.4.3,0,.6-.3.9-.4Z"/>
  <path class="st1" d="M1287.6,680.9c-.2.5-.4,1-.5,1.5.2-.5.4-1,.5-1.5Z"/>
  <path class="st1" d="M1291.6,660.3v1.1-1.1Z"/>
  <path class="st1" d="M1283.3,690.8c-.3.6-.6,1.1-.9,1.7.3-.6.6-1.1.9-1.7Z"/>
  <polygon class="st1" points="1291.7 656.8 1291.7 656.8 1291.7 656.8 1291.7 656.8"/>
  <path class="st1" d="M1291,667.1c0,.4,0,.8-.2,1.2,0-.4,0-.8.2-1.2Z"/>
  <path class="st1" d="M83.1,625l-18.7-5.3h0l18.7,5.4h0Z"/>
  <path class="st1" d="M659.1,688.9h0l18.3-5.2h0l-18.3,5.3h0Z"/>
  <path class="st1" d="M1291.4,663.7v1.2-1.2Z"/>
  <path class="st1" d="M1286.5,683.9c-.4,1-.8,1.9-1.2,2.9.4-1,.8-1.9,1.2-2.9Z"/>
  <path class="st1" d="M1284.7,688c-.3.6-.6,1.1-.8,1.7.3-.6.6-1.1.8-1.7Z"/>
  <path class="st1" d="M1233.7,728.3h-.7.7Z"/>
  <path class="st1" d="M1289.5,674.7c0,.4-.2.9-.4,1.3,0-.4.2-.9.4-1.3Z"/>
  <path class="st1" d="M1290.3,671c0,.3,0,.6-.2.9,0-.3,0-.6.2-.9Z"/>
  <path class="st1" d="M1288.6,677.8c0,.5-.3,1-.5,1.5.2-.5.3-1,.5-1.5Z"/>
  <path class="st1" d="M1174.2,714.6c-.3-.2-.6-.5-.9-.7.3.2.6.5.9.7Z"/>
  <path class="st1" d="M1194.1,588.1c.8-.3,1.6-.5,2.4-.8-.8.3-1.6.5-2.4.8Z"/>
  <path class="st1" d="M1163.2,609.4s.3-.3.4-.4c0,0-.3.3-.4.4Z"/>
  <path class="st1" d="M1170.4,602.1c.2-.2.4-.4.7-.6-.2.2-.4.4-.7.6Z"/>
  <path class="st1" d="M1173.3,599.7c.3-.2.6-.4.8-.7-.3.2-.6.4-.8.7Z"/>
  <path class="st1" d="M1171.2,712.2c-.2-.2-.5-.4-.7-.6.2.2.5.4.7.6Z"/>
  <path class="st1" d="M1276.6,701.3c1.3-1.7,2.6-3.5,3.7-5.3-.9,1.4-1.8,2.8-2.8,4.1-.3.4-.6.8-.9,1.2h0Z"/>
  <path class="st1" d="M1166.3,707.6c-.2-.2-.3-.3-.5-.5.2.2.3.3.5.5Z"/>
  <path class="st1" d="M1165.9,606.5s.3-.3.4-.4c0,0-.3.3-.4.4Z"/>
  <path class="st1" d="M1184.6,592.3l1.8-.9-1.8.9Z"/>
  <path class="st1" d="M1187.5,590.8c.8-.4,1.6-.7,2.4-1.1-.8.3-1.6.7-2.4,1.1Z"/>
  <path class="st1" d="M1190.9,589.3c.8-.3,1.5-.6,2.3-.9-.8.3-1.6.6-2.3.9Z"/>
  <path class="st1" d="M1176.1,597.6c.4-.3.8-.6,1.2-.8-.4.3-.8.6-1.2.8Z"/>
  <path class="st1" d="M1181.7,593.9c.5-.3,1-.6,1.4-.8-.5.3-1,.5-1.4.8Z"/>
  <path class="st1" d="M1178.6,595.9c.5-.4,1.1-.7,1.6-1-.5.3-1.1.7-1.6,1Z"/>
  <path class="st1" d="M1186.5,722.3c-.7-.3-1.3-.7-1.9-1,.6.3,1.3.7,1.9,1Z"/>
  <path class="st1" d="M1177.3,716.9c-.4-.3-.9-.6-1.3-.9.4.3.9.6,1.3.9Z"/>
  <path class="st1" d="M1207.3,728.9c-1-.2-2-.3-3-.5,1,.2,2,.4,3,.5Z"/>
  <path class="st1" d="M1203.9,728.3c-1-.2-2-.4-3-.7,1,.2,2,.5,3,.7Z"/>
  <path class="st1" d="M1200.1,727.4c-1-.3-1.9-.5-2.8-.8.9.3,1.9.6,2.8.8Z"/>
  <path class="st1" d="M1226.6,729.4h-.7.7Z"/>
  <path class="st1" d="M1214.7,729.7c-1.1,0-2.2,0-3.2-.2,1.1,0,2.1.2,3.2.2Z"/>
  <path class="st1" d="M1222.7,729.7h-.7.7Z"/>
  <path class="st1" d="M1210.9,729.4c-1.1,0-2.1-.2-3.2-.4,1.1.2,2.1.3,3.2.4Z"/>
  <path class="st1" d="M1183.2,720.6c-.5-.3-1-.6-1.5-.9.5.3,1,.6,1.5.9Z"/>
  <path class="st1" d="M1229.9,729h-.2.2Z"/>
  <path class="st1" d="M1180.4,718.9c-.6-.4-1.2-.8-1.8-1.2.6.4,1.2.8,1.8,1.2Z"/>
  <path class="st1" d="M1189.9,723.9c-.8-.3-1.6-.7-2.4-1.1.8.4,1.6.7,2.4,1.1Z"/>
  <path class="st1" d="M1193.3,725.3c-.8-.3-1.6-.6-2.4-1,.8.3,1.6.7,2.4,1Z"/>
  <path class="st1" d="M1196.5,726.4c-.8-.3-1.7-.5-2.5-.8.8.3,1.6.6,2.5.8Z"/>
  <path class="st1" d="M1215.3,729.7h3.4c1.1,0,0,0,0,0h-3.4Z"/>
  <path class="st1" d="M1218.7,594.8c-34.2,0-62,27.8-62,62s7.1,32.9,18.5,44.1v-.8c2.3-10.2,7.9-18.8,16.1-25.2,2.1-1.6,5.3-1.8,7.6-.2,11.6,8.3,27.3,8.6,39,.4,2.7-1.9,5.9-2.1,8.5,0,7.7,6.1,13.1,14.3,15.6,24.2v1.5h0c11.4-11.2,18.5-26.9,18.5-44.1,0-34.2-27.8-62-62-62h.2ZM1223.1,671.8c-13.4,2.4-26.4-6.5-29-19.8-2.6-13.5,6-27,20.2-29.5,14.1-2.5,26.7,6.9,29.1,20.3,2.4,13.6-6.7,26.6-20.3,29.1h0Z"/>
  <path class="st2" d="M135.3,397.9h471.6c28.8,0,52.2-23.4,52.2-52.2v-118.2c-.3.1-.7.2-1,.2h-3c-1.7,0-3-1.3-3-3s1.3-3,3-3h3c.4,0,.7,0,1,.2v-99c0-28.8-23.4-52.2-52.2-52.2h-199c-3.3,25-24.7,44.4-50.6,44.4s-47.4-19.4-50.6-44.4h-171.4c-28.8,0-52.2,23.4-52.2,52.2v222.9c0,28.8,23.4,52.2,52.2,52.2h0ZM637.1,221.6h3c1.7,0,3,1.4,3,3s-1.3,3-3,3h-3c-1.7,0-3-1.3-3-3s1.3-3,3-3ZM619.1,221.6h3c1.7,0,3,1.4,3,3s-1.3,3-3,3h-3c-1.7,0-3-1.3-3-3s1.3-3,3-3ZM483.3,139.3c0-5.7,4.6-10.3,10.3-10.3h82.5c5.7,0,10.3,4.6,10.3,10.3v185.7c0,5.7-4.6,10.3-10.3,10.3h-82.5c-5.7,0-10.3-4.6-10.3-10.3v-185.7ZM197.6,159.3c24.1,0,45.5,11.7,58.8,29.8v-18.9c0-5.7,4.6-10.3,10.3-10.3h51.9c10.7-13.7,27.4-22.5,46.1-22.5s35.3,8.8,46.1,22.5h51.9c5.7,0,10.3,4.6,10.1,10.3v123.8c0,5.7-4.6,10.3-10.3,10.3h-67v10.3h15.5c5.7,0,10.3,4.6,10.3,10.3s-4.6,10.3-10.3,10.3h-92.8c-5.7,0-10.3-4.6-10.3-10.3s4.6-10.3,10.3-10.3h15.5v-10.3h-67c-5.7,0-10.3-4.6-10.3-10.3v-18.5c-13.3,18.1-34.7,29.8-58.8,29.8-40.3,0-73-32.7-73-73s32.7-73,73-73h0Z"/>
  <path class="st2" d="M364.7,254.4c-32.3,0-58.5-26.2-58.5-58.5s.7-10.5,2.1-15.4h-31.3v103.2h175.4v-103.2h-31.3c1.3,4.9,2.1,10.1,2.1,15.4,0,32.3-26.2,58.5-58.5,58.5h0Z"/>
  <path class="st2" d="M565.8,211.5h0v-61.9h-61.9v61.9c8.6-6.4,19.3-10.3,30.9-10.3s22.3,3.8,30.9,10.3h0ZM509.1,170.2c0-5.7,4.6-10.3,10.3-10.3h30.9c5.7,0,10.3,4.6,10.3,10.3s-4.6,10.3-10.3,10.3h-30.9c-5.7,0-10.3-4.6-10.3-10.3h0Z"/>
  <rect class="st2" x="354.4" y="304.3" width="20.6" height="10.3"/>
  <path class="st2" d="M565.7,252.7c0-17-13.8-30.9-30.9-30.9s-30.9,13.8-30.9,30.9v61.9h61.8v-61.9h0ZM524.6,242.4c0-13.8,20.6-13.7,20.6,0s-20.6,13.8-20.6,0Z"/>
  <path class="st2" d="M1050.7,221.2v62.2l-23.7-6.8-29.5-8.4h0l29.5,8.5,23.9,6.9v-62.4h-.2Z"/>
  <polygon class="st2" points="1198.5 363.7 1198.5 363.7 1198.5 359.8 1206.4 359.8 1206.4 359.7 1198.5 359.7 1198.5 363.7"/>
  <rect class="st2" x="1168.7" y="312.2" height="39.6"/>
  <polygon class="st2" points="1198.5 173 1198.5 173 1198.5 169.1 1206.4 169.1 1206.4 169 1198.5 169 1198.5 173"/>
  <polygon class="st2" points="866.1 169.1 873.9 169.1 873.9 173 874 173 874 169 866.1 169 866.1 169.1"/>
  <path class="st2" d="M1065.4,283.1v-62.3h-.2v62.4l24.4-7,28.9-8.2h0c0-.1-28.8,8.1-28.8,8.1l-24.3,7Z"/>
  <polygon class="st2" points="1168.8 121.6 1168.7 121.6 1168.7 161.2 1236.1 161.2 1236.1 161.1 1168.8 161.1 1168.8 121.6"/>
  <path class="st2" d="M935.4,328c-6.6,0-11.9,5.3-11.9,11.9h0c0-6.5,5.3-11.8,11.9-11.8s11.9,5.3,11.9,11.9v23.7h0v-23.8c0-6.6-5.3-11.9-11.9-11.9h0Z"/>
  <polygon class="st2" points="923.5 300.3 923.5 300.3 923.5 324.1 923.5 324.1 923.5 300.3"/>
  <path class="st2" d="M929.4,312.3h11.9c2.2,0,4-1.8,4-4s0,0,0,0c0,2.2-1.8,4-4,4h-11.9c-2.1,0-4-1.8-4-4h0c0,2.2,1.8,4,4,4Z"/>
  <path class="st2" d="M935.4,137.3c-6.6,0-11.9,5.3-11.9,11.9h0c0-6.5,5.3-11.8,11.9-11.8s11.9,5.3,11.9,11.9v23.7h0v-23.8c0-6.6-5.3-11.9-11.9-11.9h0Z"/>
  <polygon class="st2" points="923.5 109.6 923.5 109.6 923.5 133.4 923.5 133.4 923.5 109.6"/>
  <path class="st2" d="M929.4,121.6h11.9c2.2,0,4-1.8,4-4s0,0,0,0c0,2.2-1.8,4-4,4h-11.9c-2.1,0-4-1.8-4-4h0c0,2.2,1.8,4,4,4Z"/>
  <polygon class="st2" points="836.3 161.1 903.7 161.1 903.7 161.1 836.3 161.1"/>
  <path class="st2" d="M1261.9,312.3h11.9c2.2,0,4-1.8,4-4s0,0,0,0c0,2.2-1.8,4-4,4h-11.9c-2.2,0-4-1.8-4-4h0c0,2.2,1.8,4,4,4Z"/>
  <polygon class="st2" points="866.1 359.8 873.9 359.8 873.9 363.7 874 363.7 874 359.7 866.1 359.7 866.1 359.8"/>
  <path class="st2" d="M1335.1,227.7h0c-1.7,0-3-1.3-3-3s1.3-3,3-3h3c.8,0,1.5.3,2,.8v-99.6c0-28.8-23.4-52.2-52.2-52.2h-179c-3.3,25-24.7,44.4-50.6,44.4s-47.4-19.4-50.6-44.4h-191.4c-28.8,0-52.2,23.4-52.2,52.2v98.8h1.9c1.7,0,3,1.3,3,3s-1.3,3-3,3h-1.9v118.1c0,28.8,23.4,52.2,52.2,52.2h471.6c28.8,0,52.2-23.4,52.2-52.2v-118.8c-.5.5-1.2.8-2,.8h-3ZM778.1,224.7c0-1.7,1.3-3,3-3h3c1.7,0,3,1.3,3,3s-1.3,3-3,3h-2.9c-1.7,0-3-1.3-3-3h0ZM784.7,249.1l-4.1-4.4,18.5-17.1c-1.6,0-3-1.4-3-3s1.3-3,3-3h0l-18.5-17.1,4.1-4.4,26.4,24.5-26.4,24.5ZM965.8,143.9c1.7-2.5,5.2-3.1,7.7-1.3l32.1,22.5c2.5,1.7,3.1,5.2,1.3,7.7-1.1,1.5-2.8,2.3-4.5,2.3s-2.2-.3-3.2-1l-32.1-22.5c-2.5-1.7-3.1-5.2-1.3-7.7ZM911.8,355.9c0,2.2-1.8,4-4,4h-25.8v4h5.9c2.2,0,4,1.8,4,4s-1.8,4-4,4h-35.7c-2.2,0-4-1.8-4-4s1.8-4,4-4h5.9v-4h-25.8c-2.2,0-4-1.8-4-4v-47.6c0-2.2,1.8-4,4-4h75.3c2.2,0,4,1.7,4.2,4v47.6h0ZM911.8,165.2c0,2.2-1.8,4-4,4h-25.8v4h5.9c2.2,0,4,1.8,4,4s-1.8,4-4,4h-35.7c-2.2,0-4-1.8-4-4s1.8-4,4-4h5.9v-4h-25.8c-2.2,0-4-1.8-4-4v-47.6c0-2.2,1.8-4,4-4h75.3c2.2,0,4,1.8,4.2,4v47.6h0ZM955.2,367.7c0,2.2-1.8,4-4,4h-31.7c-2.2,0-4-1.8-4-4v-71.3c0-2.2,1.8-4,4-4h31.7c2.2,0,4,1.8,4,4v71.3ZM955.2,177c0,2.2-1.8,4-4,4h-31.7c-2.2,0-4-1.8-4-4v-71.3c0-2.2,1.8-4,4-4h31.7c2.2,0,4,1.8,4,4v71.3ZM1005.6,308.4l-32.1,22.5c-1,.7-2.1,1-3.2,1-1.7,0-3.4-.8-4.5-2.3-1.7-2.5-1.1-5.9,1.3-7.7l32.1-22.5c2.5-1.7,5.9-1.1,7.7,1.3,1.7,2.5,1.1,5.9-1.3,7.7ZM1058.2,300.3c-17.8-4.3-52.3-14.8-69.8-19.6-7.8-1.5-4.6-13.7-5.3-18.9v-65.3c0-3.3,2.4-6.4,5.6-7.1l67.8-16.1c1.1-.2,2.2-.3,3.3,0l67.8,15.6c3.1.7,5.6,3.6,5.6,6.9v75.5c0,.7,0,1.4.2,1.9,0,3.3-2.2,6.1-5.3,7l-29.5,8.5c-1.7.2-39.8,11.9-40.3,11.6h0ZM1150.3,329.6c-1.1,1.5-2.8,2.4-4.5,2.4s-2.2-.3-3.1-1l-32.2-22.5c-2.5-1.7-3.1-5.2-1.4-7.7s5.2-3.1,7.7-1.4l32.2,22.5c2.5,1.7,3.1,5.2,1.4,7.7h0ZM1149,151.5l-32.2,22.5c-1,.7-2.1,1-3.1,1-1.7,0-3.4-.8-4.5-2.4-1.7-2.5-1.1-5.9,1.4-7.7l32.2-22.5c2.5-1.7,5.9-1.1,7.7,1.4,1.7,2.5,1.1,5.9-1.4,7.7h0ZM1244.3,355.9c0,2.2-1.8,4-4,4h-25.8v4h5.9c2.2,0,4,1.8,4,4s-1.8,4-4,4h-35.7c-2.2,0-4-1.8-4-4s1.8-4,4-4h5.9v-4h-25.8c-2.2,0-4-1.8-4-4v-47.6c0-2.2,1.8-4,4-4h75.3c2.2,0,4,1.7,4.2,4v47.6ZM1244.3,165.2c0,2.2-1.8,4-4,4h-25.8v4h5.9c2.2,0,4,1.8,4,4s-1.8,4-4,4h-35.7c-2.2,0-4-1.8-4-4s1.8-4,4-4h5.9v-4h-25.8c-2.2,0-4-1.8-4-4v-47.6c0-2.2,1.8-4,4-4h75.3c2.2,0,4,1.8,4.2,4v47.6ZM1287.7,367.7c0,2.2-1.8,4-4,4h-31.7c-2.2,0-4-1.8-4-4v-71.3c0-2.2,1.8-4,4-4h31.7c2.2,0,3.9,1.8,4,4v71.3ZM1287.7,177c0,2.2-1.8,4-4,4h-31.7c-2.2,0-4-1.8-4-4v-71.3c0-2.2,1.8-4,4-4h31.7c2.2,0,3.9,1.8,4,4v71.3ZM1320.1,227.7h-3c-1.7,0-3-1.3-3-3s1.3-3,3-3h3c1.7,0,3,1.3,3,3s-1.3,3-3,3Z"/>
  <path class="st2" d="M1267.8,328c-6.6,0-11.9,5.3-11.9,11.9h0c0-6.5,5.3-11.8,11.9-11.8s11.9,5.3,11.9,11.9h0c0-6.7-5.3-12-11.9-12Z"/>
  <path class="st2" d="M1267.8,137.3c-6.6,0-11.9,5.3-11.9,11.9h0c0-6.5,5.3-11.8,11.9-11.8s11.9,5.3,11.9,11.9h0c0-6.7-5.3-12-11.9-12h0Z"/>
  <path class="st2" d="M581.9,692.2l-29.3-8.4v.5l30.4,8.7,24.6,7v-64.4h-.5v63.8l-25.2-7.2h0Z"/>
  <path class="st2" d="M272.1,650.7v1.8h3.1v-1.8h-3.1Z"/>
  <path class="st2" d="M356.5,604.3c8.2-1.9,11-3,14.1-3-3.2,0-6,1.1-14.2,3l-25.8,6.1,39.8,11.3h0l-39.7-11.3,25.8-6.1h0Z"/>
  <path class="st2" d="M516.1,650.7v1.8h3.1v-1.8h-3.1Z"/>
  <path class="st2" d="M128.6,585.9l70,16.1c3.3.7,5.8,3.7,5.8,7.1v25.4c-2,1.7-3.6,3.9-4.9,6.5h-10.1v-21.8h-.3v21.8h10.4c3.7-7.5,10.1-11.3,18.8-11.4h13.1c7.7,0,13.8,3.3,17.6,9.4,4-6.4,9.8-9.4,18.1-9.4h12.9c7.8,0,14.9,4.5,18.6,11.4h9.3-9.1c-1.4-2.7-3.3-4.9-5.5-6.7-.1-10-.1-19.2,0-24.6,0-3.4,2.5-6.5,5.8-7.3l70-16.6c1.1-.3,2.3-.3,3.4,0l70,16.1c3.3.7,5.8,3.7,5.8,7.1v25.4c-2,1.7-3.6,3.9-4.9,6.5h-10,10.1c3.7-7.5,10.1-11.3,18.8-11.4h13.1c7.7,0,13.8,3.3,17.6,9.4,4-6.4,9.8-9.4,18.1-9.4h12.9c7.8,0,14.9,4.5,18.6,11.4h0c-1.4-2.7-3.3-4.8-5.4-6.6v-24.6c0-3.4,2.5-6.5,5.8-7.3l70-16.6c1.1-.3,2.3-.3,3.4,0l42.5,9.8v-29.2l-11.5,11.5c-1.1,1.1-2.5,1.6-3.9,1.6s-2.8-.5-3.9-1.6c-2.2-2.1-2.2-5.6,0-7.8l19.3-19.4v-11.1c0-28.8-23.4-52.2-52.2-52.2H135.3c-28.8,0-52.2,23.4-52.2,52.2v56.1l42.1-10c1.1-.3,2.3-.3,3.4,0v.2h0ZM609.4,527.2c0-3,2.5-5.5,5.5-5.5s5.5,2.5,5.5,5.5v37.4c0,3-2.5,5.5-5.5,5.5s-5.5-2.5-5.5-5.5v-37.4ZM555.8,543.8c2.2-2.1,5.6-2.1,7.8,0l26.4,26.5c2.1,2.2,2.1,5.6,0,7.8-1.1,1.1-2.5,1.6-3.9,1.6s-2.8-.5-3.9-1.6l-26.4-26.5c-2.1-2.2-2.1-5.6,0-7.8h0Z"/>
  <polygon class="st2" points="378.5 699.4 378.5 699.4 378.4 635 378.5 699.4"/>
  <path class="st2" d="M467.4,650.7h-.1v1.6h3.2v-1.6h-3.1Z"/>
  <path class="st2" d="M433.5,662.1h10.1-10v16.7-16.6h-.1Z"/>
  <path class="st2" d="M112.5,604.3c8.2-1.9,11-3,14.1-3-3.2,0-6,1.1-14.2,3l-25.8,6.1,39.8,11.3h0l-39.7-11.3,25.8-6.1h0Z"/>
  <polygon class="st2" points="647.6 692.2 622.5 699.4 622.4 635.1 622.3 635.1 622.4 699.5 647.5 692.3 659.1 689 659.1 688.9 647.6 692.2"/>
  <path class="st2" d="M223.4,650.7h0v1.6h3.2v-1.6h-3.2Z"/>
  <path class="st2" d="M337.9,692.2l-29.3-8.4v.4l30.4,8.7,24.6,7v-64.4h-.5v64l-25.2-7.2h0Z"/>
  <path class="st2" d="M600.5,604.3c8.2-1.9,11-3,14.1-3-3.2,0-6,1.1-14.2,3l-25.8,6.1,39.8,11.3h0l-39.7-11.3,25.8-6.1h0Z"/>
  <path class="st2" d="M191.3,662h-2.1v21.6l-29.9,8.6-24.8,7.1h0l25.1-7.1,29.9-8.6v-21.5h10.1-8.3Z"/>
  <path class="st2" d="M615.2,717.3c-18.4-4.4-54-15.3-72.1-20.2-8-1.5-4.8-14.1-5.5-19.5v-8.3c2.2-1.7,4-4.1,5.5-7.1h8.9v-.2h-9.1c-4.1,8.1-10.1,11.4-20.2,11.4h-12.3c-7.6,0-13.6-3.4-17.2-9.3-3.8,6.1-9.7,9.2-17.6,9.2h-14c-5.1,0-9.6-1.7-13-4.6v20.7c0,3.3-2.2,6.3-5.4,7.2l-30.4,8.7c-1.8.2-41.1,12.3-41.6,11.9-18.4-4.4-54-15.3-72.1-20.2-8-1.5-4.8-14.1-5.5-19.5v-8.3c2.2-1.7,4-4.1,5.5-7.1h8.9-9.1c-4.1,8.1-10.1,11.4-20.2,11.4h-12.3c-7.6,0-13.6-3.4-17.2-9.3-3.8,6.1-9.7,9.2-17.6,9.2h-14c-6.1,0-11.3-2.4-14.9-6.5.6.7,1.2,1.3,1.8,1.9v20.7c0,3.3-2.2,6.3-5.4,7.2l-30.4,8.7c-1.8.2-41.1,12.3-41.6,11.9-11-2.6-28.1-7.6-44-12.2v57.7c0,28.8,23.4,52.2,52.2,52.2h170.9c0-28.2,22.9-51.1,51.1-51.1s51.1,22.9,51.1,51.1h198.5c28.8,0,52.2-23.4,52.2-52.2v-11.2l-19.3-19.4c-2.1-2.2-2.1-5.6,0-7.8s5.6-2.1,7.8,0l11.5,11.5v-31.1l-2.3.7c-1.8.2-41.1,12.3-41.6,11.9h0ZM590,732.1l-26.4,26.5c-1.1,1.1-2.5,1.6-3.9,1.6s-2.8-.5-3.9-1.6c-2.2-2.1-2.2-5.6,0-7.8l26.4-26.5c2.1-2.2,5.6-2.2,7.8,0,2.2,2.1,2.2,5.6,0,7.8h0ZM620.4,775.2c0,3-2.5,5.5-5.5,5.5s-5.5-2.5-5.5-5.5v-37.4c0-3,2.5-5.5,5.5-5.5s5.5,2.5,5.5,5.5v37.4Z"/>
  <polygon class="st2" points="83.1 625 83.1 625.1 119.4 635.4 119.5 699.7 119.5 699.7 119.4 635.3 83.1 625"/>
  <path class="st2" d="M939.1,674.9c-32.3,0-58.5-26.2-58.5-58.5s.7-10.5,2.1-15.4h-31.3v103.1h175.3v-103.1h-31.2c1.3,4.9,2.1,10.1,2.1,15.4,0,32.3-26.2,58.5-58.5,58.5h0Z"/>
  <rect class="st2" x="928.7" y="724.8" width="20.6" height="10.3"/>
  <path class="st2" d="M1078.4,632c8.6-6.4,19.3-10.3,30.9-10.3s22.3,3.8,30.9,10.3h0v-61.9h-61.9v61.9h0ZM1093.8,580.4h30.9c5.7,0,10.3,4.6,10.3,10.3s-4.6,10.3-10.3,10.3h-30.9c-5.7,0-10.4-4.6-10.3-10.3,0-5.7,4.6-10.3,10.3-10.3Z"/>
  <path class="st2" d="M1287.9,487.6h-471.6c-28.8,0-52.2,23.4-52.2,52.2v222.9c0,28.8,23.4,52.2,52.2,52.2h190.9c0-28.2,22.9-51.1,51.1-51.1s51.1,22.9,51.1,51.1h178.5c28.8,0,52.2-23.4,52.2-52.2v-222.9c0-28.8-23.4-52.2-52.2-52.2h0ZM775.1,655.7h-3c-1.7,0-3-1.3-3-3s1.3-3,3-3h3c1.7,0,3,1.3,3,3s-1.3,3-3,3ZM784.7,677.2l-4.1-4.4,21.7-20.2-21.7-20.1,4.1-4.4,26.4,24.5-26.4,24.6h0ZM787.1,652.7c0-1.7,1.3-3,3-3h3c1.7,0,3,1.3,3,3s-1.3,3-3,3h-3c-1.7,0-3-1.3-3-3ZM1047.1,714.5c0,5.7-4.6,10.3-10.3,10.3h-67v10.3h15.5c5.7,0,10.3,4.6,10.3,10.3s-4.6,10.3-10.3,10.3h-92.8c-5.7,0-10.3-4.6-10.3-10.3s4.6-10.3,10.3-10.3h15.5v-10.3h-67c-5.7,0-10.3-4.6-10.3-10.3v-123.8c0-5.7,4.6-10.3,10.3-10.3h52c10.7-13.7,27.4-22.5,46.1-22.5s35.3,8.8,46.1,22.5h51.8c5.7,0,10.3,4.6,10.1,10.3v123.8h0ZM1291.7,656.8h0v4.5c0,.8,0,1.6-.2,2.3v1.2c0,.7-.2,1.5-.3,2.2,0,.4,0,.8-.2,1.2,0,.9-.3,1.8-.5,2.7,0,.3,0,.6-.2.9-.2.9-.4,1.9-.7,2.8,0,.4-.2.9-.4,1.3-.2.6-.3,1.2-.5,1.8,0,.5-.3,1-.5,1.5s-.4,1.1-.5,1.6c-.2.5-.4,1-.5,1.5-.2.5-.4,1-.6,1.5-.4,1-.8,1.9-1.2,2.9-.2.4-.4.8-.5,1.2-.3.6-.6,1.1-.8,1.7-.2.4-.4.7-.6,1.1-.3.6-.6,1.1-.9,1.7-.2.3-.4.7-.6,1-.3.6-.7,1.2-1,1.7,0,.2-.3.5-.4.7-1.2,1.8-2.4,3.6-3.7,5.3-.3.4-.6.7-.9,1.1-.5.6-1,1.2-1.5,1.8-.3.4-.6.8-1,1.1-.3.4-.7.8-1,1.1-.5.6-1,1.1-1.6,1.7-.3.3-.7.7-1,1-.4.4-.7.7-1.1,1.1-.5.5-1,.9-1.5,1.4s-.9.8-1.3,1.1-.7.6-1.1.9c-.6.5-1.3,1-1.9,1.5-.3.3-.7.5-1,.8-.5.4-1,.7-1.5,1.1-.4.3-.8.6-1.3.9-.6.4-1.2.8-1.8,1.2s-.7.4-1,.6c-.8.5-1.5.9-2.3,1.3-.3.2-.6.3-.9.5-.7.4-1.4.7-2.1,1.1-.3,0-.6.3-.9.4-.8.4-1.6.7-2.4,1.1-.3,0-.6.2-.9.4-.9.4-1.8.7-2.6,1-.3,0-.5.2-.8.3-.9.3-1.7.6-2.6.9h-.5c-.9.3-1.9.6-2.9.8-.2,0-.5,0-.7.2-1,.2-2,.5-3,.7h-.7c-1,.2-2,.4-3,.5h-.2c-1.1.2-2.1.3-3.2.4h-.7c-1.1,0-2.1.2-3.2.2h-7.9c-1.1,0-2.2,0-3.2-.2h-.6c-1.1,0-2.1-.2-3.2-.4h-.4c-1-.2-2-.3-3-.5h-.5c-1-.2-2-.4-3-.7-.3,0-.5,0-.8-.2-1-.3-1.9-.5-2.8-.8-.2,0-.5-.2-.7-.2-.8-.3-1.7-.5-2.5-.8-.2,0-.5-.2-.7-.3-.8-.3-1.6-.6-2.4-1-.3,0-.6-.3-.9-.4-.8-.3-1.6-.7-2.4-1.1-.3-.2-.7-.3-1-.5-.7-.3-1.3-.7-1.9-1-.5-.2-.9-.5-1.4-.7-.5-.3-1-.6-1.5-.9-.4-.3-.9-.5-1.3-.8-.6-.4-1.2-.8-1.8-1.2-.4-.3-.8-.6-1.3-.9-.4-.3-.9-.6-1.3-.9-.6-.4-1.2-.9-1.8-1.3-.3-.2-.6-.5-.9-.7-.7-.6-1.4-1.2-2.1-1.7-.2-.2-.5-.4-.7-.6-1.4-1.3-2.8-2.6-4.1-3.9-.2-.2-.3-.3-.5-.5-.7-.8-1.5-1.6-2.2-2.4,0-.2-.3-.3-.4-.5-.8-1-1.6-2-2.4-3h0v44.2c0,5.7-4.6,10.3-10.3,10.3h-82.5c-5.7,0-10.3-4.6-10.3-10.3v-185.7c0-5.7,4.6-10.3,10.3-10.3h82.5c5.7,0,10.3,4.6,10.3,10.3v52.7c.8-1,1.6-2,2.4-3,0,0,.3-.3.4-.4.7-.8,1.5-1.7,2.2-2.5,0,0,.3-.3.4-.4,1.3-1.4,2.7-2.7,4.1-4,.2-.2.4-.4.7-.6.7-.6,1.5-1.2,2.2-1.8.3-.2.6-.4.8-.7.6-.5,1.3-1,1.9-1.5.4-.3.8-.6,1.2-.8.4-.3.9-.6,1.3-.9.5-.4,1.1-.7,1.6-1s1-.6,1.5-.9c.5-.3,1-.6,1.4-.8.5-.3,1-.6,1.5-.8l1.8-.9c.4-.2.7-.4,1.1-.5.8-.4,1.6-.7,2.4-1.1.3,0,.7-.3,1-.4.8-.3,1.5-.6,2.3-.9.3,0,.6-.2.9-.3.8-.3,1.6-.5,2.4-.8.3,0,.5-.2.8-.3.9-.3,1.9-.5,2.8-.8.3,0,.5,0,.8-.2,1-.2,1.9-.5,2.9-.7h.6c.9-.2,1.9-.4,2.9-.5h.5c1-.2,2.1-.3,3.1-.4h.7c1,0,2.1-.2,3.2-.2h7.9c1.1,0,2.2,0,3.2.2h.6c1.1,0,2.2.3,3.3.4h0c1.1.2,2.1.4,3.2.6h.6c1,.2,2,.4,3,.7.2,0,.4,0,.7.2,1,.3,2,.5,3,.8h.3c.9.3,1.8.6,2.7.9.2,0,.5.2.7.3.9.3,1.8.7,2.7,1.1.3,0,.5.2.8.3.8.4,1.7.7,2.5,1.1.2,0,.5.2.7.4.7.4,1.5.7,2.2,1.1.3.2.6.3.9.5.8.4,1.6.9,2.3,1.3.3.2.6.4.9.6.6.4,1.3.8,1.9,1.2.4.3.8.5,1.1.8.5.4,1.1.8,1.6,1.2.3.2.7.5,1,.7.7.5,1.3,1,2,1.5.3.3.7.6,1,.8.5.4.9.8,1.4,1.2s.9.8,1.4,1.3.8.7,1.2,1.1c.3.3.7.7,1,1,.5.6,1.1,1.1,1.6,1.7.3.4.7.7,1,1.1.4.4.7.8,1,1.2.5.6.9,1.1,1.4,1.7.3.4.6.8.9,1.1.3.4.6.8.9,1.2h0c.9,1.4,1.8,2.7,2.7,4,.2.3.3.5.5.8.3.6.7,1.1,1,1.7.2.3.4.7.6,1,.3.6.6,1.1.9,1.7.2.4.4.8.6,1.1.3.6.6,1.1.8,1.7.2.4.4.9.6,1.3.4.9.8,1.8,1.2,2.7.2.5.4,1,.6,1.6.2.5.4,1,.5,1.5.2.5.4,1.1.6,1.6s.3,1,.5,1.5c.2.6.4,1.2.5,1.8,0,.4.2.9.4,1.3.2,1,.5,1.9.7,2.9,0,.3,0,.5.2.8.2.9.3,1.8.5,2.7,0,.4,0,.8.2,1.2,0,.7.2,1.5.3,2.2v1.2c0,.8,0,1.6.2,2.3v4.5h0Z"/>
  <path class="st2" d="M1109.2,642.3c-17,0-30.9,13.8-30.9,30.9v61.9h61.8v-61.9c0-17-13.9-30.9-30.9-30.9ZM1098.9,662.9c0-13.8,20.6-13.8,20.6,0s-20.6,13.8-20.6,0Z"/>
  <path class="st3" d="M739.1,649.7h-3c-1.7,0-3,1.3-3,3s1.3,3,3,3h3c1.7,0,3-1.3,3-3s-1.3-3-3-3Z"/>
  <path class="st3" d="M757.1,649.7h-3c-1.7,0-3,1.3-3,3s1.3,3,3,3h3c1.7,0,3-1.3,3-3s-1.3-3-3-3Z"/>
  <path class="st3" d="M721.1,649.7h-3c-1.7,0-3,1.3-3,3s1.3,3,3,3h3c1.7,0,3-1.3,3-3s-1.3-3-3-3Z"/>
  <path class="st3" d="M775.1,649.7h-3c-1.7,0-3,1.3-3,3s1.3,3,3,3h3c1.7,0,3-1.3,3-3s-1.3-3-3-3Z"/>
  <path class="st3" d="M793.2,655.7c1.7,0,3-1.3,3-3s-1.3-3-3-3h-3c-1.7,0-3,1.3-3,3s1.3,3,3,3h3Z"/>
  <polygon class="st3" points="780.6 632.5 802.3 652.6 780.6 672.8 784.7 677.2 811.1 652.6 784.7 628.1 780.6 632.5"/>
  <path class="st3" d="M490.4,446h-3c-1.7,0-3,1.4-3,3s1.3,3,3,3h3c1.7,0,3-1.4,3-3s-1.3-3-3-3h0Z"/>
  <path class="st3" d="M901.4,451.4h3c1.7,0,3-1.4,3-3s-1.3-3-3-3h-3c-1.7,0-3,1.4-3,3s1.3,3,3,3h0Z"/>
  <path class="st3" d="M724.4,445.7h-3c-1.7,0-3,1.4-3,3s1.3,3,3,3h3c1.7,0,3-1.4,3-3s-1.3-3-3-3Z"/>
  <path class="st3" d="M400.4,446.2h-3c-1.7,0-3,1.4-3,3s1.3,3,3,3h3c1.7,0,3-1.4,3-3s-1.3-3-3-3h0Z"/>
  <path class="st3" d="M472.4,446.1h-3c-1.7,0-3,1.4-3,3s1.3,3,3,3h3c1.7,0,3-1.4,3-3s-1.3-3-3-3h0Z"/>
  <path class="st3" d="M436.4,446.1h-3c-1.7,0-3,1.4-3,3s1.3,3,3,3h3c1.7,0,3-1.4,3-3s-1.3-3-3-3h0Z"/>
  <path class="st3" d="M454.4,446.1h-3c-1.7,0-3,1.4-3,3s1.3,3,3,3h3c1.7,0,3-1.4,3-3s-1.3-3-3-3h0Z"/>
  <path class="st3" d="M706.4,445.7h-3c-1.7,0-3,1.4-3,3s1.3,3,3,3h3c1.7,0,3-1.4,3-3s-1.3-3-3-3Z"/>
  <path class="st3" d="M847.4,451.5h3c1.7,0,3-1.4,3-3s-1.3-3-3-3h-3c-1.7,0-3,1.4-3,3s1.3,3,3,3h0Z"/>
  <path class="st3" d="M418.4,446.1h-3c-1.7,0-3,1.4-3,3s1.3,3,3,3h3c1.7,0,3-1.4,3-3s-1.3-3-3-3h0Z"/>
  <path class="st3" d="M829.4,451.5h3c1.7,0,3-1.4,3-3s-1.3-3-3-3h-3c-1.7,0-3,1.4-3,3s1.3,3,3,3h0Z"/>
  <path class="st3" d="M865.4,451.5h3c1.7,0,3-1.4,3-3s-1.3-3-3-3h-3c-1.7,0-3,1.4-3,3s1.3,3,3,3h0Z"/>
  <path class="st3" d="M883.4,451.5h3c1.7,0,3-1.4,3-3s-1.3-3-3-3h-3c-1.7,0-3,1.4-3,3s1.3,3,3,3h0Z"/>
  <path class="st3" d="M508.4,446h-3c-1.7,0-3,1.4-3,3s1.3,3,3,3h3c1.7,0,3-1.4,3-3s-1.3-3-3-3h0Z"/>
  <path class="st3" d="M580.4,445.9h-3c-1.7,0-3,1.4-3,3s1.3,3,3,3h3c1.7,0,3-1.4,3-3s-1.3-3-3-3h0Z"/>
  <path class="st3" d="M598.4,445.9h-3c-1.7,0-3,1.4-3,3s1.3,3,3,3h3c1.7,0,3-1.4,3-3s-1.3-3-3-3h0Z"/>
  <path class="st3" d="M616.4,445.9h-3c-1.7,0-3,1.4-3,3s1.3,3,3,3h3c1.7,0,3-1.4,3-3s-1.3-3-3-3h0Z"/>
  <path class="st3" d="M562.4,445.9h-3c-1.7,0-3,1.4-3,3s1.3,3,3,3h3c1.7,0,3-1.4,3-3s-1.3-3-3-3h0Z"/>
  <path class="st3" d="M634.4,445.8h-3c-1.7,0-3,1.4-3,3s1.3,3,3,3h3c1.7,0,3-1.4,3-3s-1.3-3-3-3h0Z"/>
  <path class="st3" d="M544.4,446h-3c-1.7,0-3,1.4-3,3s1.3,3,3,3h3c1.7,0,3-1.4,3-3s-1.3-3-3-3h0Z"/>
  <path class="st3" d="M955.4,451.4h3c1.7,0,3-1.4,3-3s-1.3-3-3-3h-3c-1.7,0-3,1.4-3,3s1.3,3,3,3h0Z"/>
  <path class="st3" d="M937.4,451.4h3c1.7,0,3-1.4,3-3s-1.3-3-3-3h-3c-1.7,0-3,1.4-3,3s1.3,3,3,3h0Z"/>
  <path class="st3" d="M526.4,446h-3c-1.7,0-3,1.4-3,3s1.3,3,3,3h3c1.7,0,3-1.4,3-3s-1.3-3-3-3h0Z"/>
  <path class="st3" d="M973.4,451.3h3c1.7,0,3-1.4,3-3s-1.3-3-3-3h-3c-1.7,0-3,1.4-3,3s1.3,3,3,3h0Z"/>
  <path class="st3" d="M652.4,445.8h-3c-1.7,0-3,1.4-3,3s1.3,3,3,3h3c1.7,0,3-1.4,3-3s-1.3-3-3-3h0Z"/>
  <path class="st3" d="M991.4,451.3h3c1.7,0,3-1.4,3-3s-1.3-3-3-3h-3c-1.7,0-3,1.4-3,3s1.3,3,3,3h0Z"/>
  <path class="st3" d="M919.4,451.4h3c1.7,0,3-1.4,3-3s-1.3-3-3-3h-3c-1.7,0-3,1.4-3,3s1.3,3,3,3h0Z"/>
  <path class="st3" d="M1386.2,350.4h0c1.7,0,3,1.3,3,3v3c0,1.7-1.3,3-3,3h0c-1.7,0-3-1.3-3-3v-3c0-1.7,1.3-3,3-3Z"/>
  <path class="st3" d="M1386.2,314.4h0c1.7,0,3,1.3,3,3v3c0,1.7-1.3,3-3,3h0c-1.7,0-3-1.3-3-3v-3c0-1.7,1.3-3,3-3Z"/>
  <path class="st3" d="M1386.2,368.4h0c1.7,0,3,1.3,3,3v3c0,1.7-1.3,3-3,3h0c-1.7,0-3-1.3-3-3v-3c0-1.7,1.3-3,3-3Z"/>
  <path class="st3" d="M1386.1,422.4h0c1.7,0,3,1.3,3,3v3c0,1.7-1.3,3-3,3h0c-1.7,0-3-1.3-3-3v-3c0-1.7,1.3-3,3-3Z"/>
  <path class="st3" d="M811.4,451.6h3c1.7,0,3-1.4,3-3s-1.3-3-3-3h-3c-1.7,0-3,1.4-3,3s1.3,3,3,3h0Z"/>
  <path class="st3" d="M1386.2,386.4h0c1.7,0,3,1.3,3,3v3c0,1.7-1.3,3-3,3h0c-1.7,0-3-1.3-3-3v-3c0-1.7,1.3-3,3-3Z"/>
  <path class="st3" d="M1386.2,332.4h0c1.7,0,3,1.3,3,3v3c0,1.7-1.3,3-3,3h0c-1.7,0-3-1.3-3-3v-3c0-1.7,1.3-3,3-3Z"/>
  <path class="st3" d="M1386.3,224.4h0c1.7,0,3,1.3,3,3v3c0,1.7-1.3,3-3,3h0c-1.7,0-3-1.3-3-3v-3c0-1.7,1.3-3,3-3Z"/>
  <path class="st3" d="M1386.3,242.4h0c1.7,0,3,1.3,3,3v3c0,1.7-1.3,3-3,3h0c-1.7,0-3-1.3-3-3v-3c0-1.7,1.3-3,3-3Z"/>
  <path class="st3" d="M1386.2,296.4h0c1.7,0,3,1.3,3,3v3c0,1.7-1.3,3-3,3h0c-1.7,0-3-1.3-3-3v-3c0-1.7,1.3-3,3-3Z"/>
  <path class="st3" d="M1386.2,278.4h0c1.7,0,3,1.3,3,3v3c0,1.7-1.3,3-3,3h0c-1.7,0-3-1.3-3-3v-3c0-1.7,1.3-3,3-3Z"/>
  <path class="st3" d="M1386.3,260.4h0c1.7,0,3,1.3,3,3v3c0,1.7-1.3,3-3,3h0c-1.7,0-3-1.3-3-3v-3c0-1.7,1.3-3,3-3Z"/>
  <path class="st3" d="M1386.1,404.4h0c1.7,0,3,1.3,3,3v3c0,1.7-1.3,3-3,3h0c-1.7,0-3-1.3-3-3v-3c0-1.7,1.3-3,3-3Z"/>
  <path class="st3" d="M760.4,445.6h-3c-1.7,0-3,1.4-3,3s1.3,3,3,3h3c1.7,0,3-1.4,3-3s-1.3-3-3-3Z"/>
  <path class="st3" d="M775.4,451.6h3c1.7,0,3-1.4,3-3s-1.3-3-3-3h-3c-1.7,0-3,1.4-3,3s1.3,3,3,3h0Z"/>
  <path class="st3" d="M667.4,451.8h3c1.7,0,3-1.4,3-3s-1.3-3-3-3h-3c-1.7,0-3,1.4-3,3s1.3,3,3,3Z"/>
  <path class="st3" d="M793.4,451.6h3c1.7,0,3-1.4,3-3s-1.3-3-3-3h-3c-1.7,0-3,1.4-3,3s1.3,3,3,3h0Z"/>
  <path class="st3" d="M742.4,445.7h-3c-1.7,0-3,1.4-3,3s1.3,3,3,3h3c1.7,0,3-1.4,3-3s-1.3-3-3-3Z"/>
  <path class="st3" d="M685.4,451.8h3c1.7,0,3-1.4,3-3s-1.3-3-3-3h-3c-1.7,0-3,1.4-3,3s1.3,3,3,3Z"/>
  <path class="st3" d="M1372.4,444.7h-3c-1.7,0-3,1.4-3,3s1.3,3,3,3h3c1.7,0,3-1.4,3-3s-1.3-3-3-3Z"/>
  <path class="st3" d="M1338.1,221.7h-3c-1.7,0-3,1.4-3,3s1.3,3,3,3h3c.8,0,1.5-.3,2-.8.6-.6,1-1.3,1-2.2s-.4-1.7-1-2.2c-.5-.5-1.2-.8-2-.8Z"/>
  <path class="st3" d="M1386.1,440.4h0c1.7,0,3,1.3,3,3v3c0,1.7-1.3,3-3,3h0c-1.7,0-3-1.3-3-3v-3c0-1.7,1.3-3,3-3Z"/>
  <path class="st3" d="M1374.1,221.6h-3c-1.7,0-3,1.4-3,3s1.3,3,3,3h3c1.7,0,3-1.4,3-3s-1.3-3-3-3Z"/>
  <path class="st3" d="M1354.4,444.8h-3c-1.7,0-3,1.4-3,3s1.3,3,3,3h3c1.7,0,3-1.4,3-3s-1.3-3-3-3Z"/>
  <path class="st3" d="M1356.1,221.7h-3c-1.7,0-3,1.4-3,3s1.3,3,3,3h3c1.7,0,3-1.4,3-3s-1.3-3-3-3Z"/>
  <path class="st3" d="M202.4,446.5h-3c-1.7,0-3,1.4-3,3s1.3,3,3,3h3c1.7,0,3-1.4,3-3s-1.3-3-3-3h0Z"/>
  <path class="st3" d="M1045.4,451.2h3c1.7,0,3-1.4,3-3s-1.3-3-3-3h-3c-1.7,0-3,1.4-3,3s1.3,3,3,3h0Z"/>
  <path class="st3" d="M1063.4,451.2h3c1.7,0,3-1.4,3-3s-1.3-3-3-3h-3c-1.7,0-3,1.4-3,3s1.3,3,3,3h0Z"/>
  <path class="st3" d="M1027.4,451.2h3c1.7,0,3-1.4,3-3s-1.3-3-3-3h-3c-1.7,0-3,1.4-3,3s1.3,3,3,3h0Z"/>
  <path class="st3" d="M1009.4,451.3h3c1.7,0,3-1.4,3-3s-1.3-3-3-3h-3c-1.7,0-3,1.4-3,3s1.3,3,3,3h0Z"/>
  <path class="st3" d="M1117.4,451.1h3c1.7,0,3-1.4,3-3s-1.3-3-3-3h-3c-1.7,0-3,1.4-3,3s1.3,3,3,3h0Z"/>
  <path class="st3" d="M1099.4,451.1h3c1.7,0,3-1.4,3-3s-1.3-3-3-3h-3c-1.7,0-3,1.4-3,3s1.3,3,3,3h0Z"/>
  <path class="st3" d="M1081.4,451.2h3c1.7,0,3-1.4,3-3s-1.3-3-3-3h-3c-1.7,0-3,1.4-3,3s1.3,3,3,3h0Z"/>
  <path class="st3" d="M19.1,497.7c-1.7,0-3,1.3-3,3v3c0,1.7,1.3,3,3,3s3-1.3,3-3v-3c0-1.7-1.3-3-3-3Z"/>
  <path class="st3" d="M40.4,446.7h-3c-1.7,0-3,1.4-3,3s1.3,3,3,3h3c1.7,0,3-1.4,3-3s-1.3-3-3-3Z"/>
  <path class="st3" d="M19.1,479.6c-1.7,0-3,1.3-3,3v3c0,1.7,1.3,3,3,3s3-1.3,3-3v-3c0-1.7-1.3-3-3-3Z"/>
  <path class="st3" d="M19.1,515.7c-1.7,0-3,1.3-3,3v3c0,1.7,1.3,3,3,3s3-1.3,3-3v-3c0-1.7-1.3-3-3-3Z"/>
  <path class="st3" d="M19.1,461.6c-1.7,0-3,1.3-3,3v3c0,1.7,1.3,3,3,3s3-1.3,3-3v-3c0-1.7-1.3-3-3-3Z"/>
  <path class="st3" d="M382.4,446.2h-3c-1.7,0-3,1.4-3,3s1.3,3,3,3h3c1.7,0,3-1.4,3-3s-1.3-3-3-3h0Z"/>
  <path class="st3" d="M1261.4,450.9h3c1.7,0,3-1.4,3-3s-1.3-3-3-3h-3c-1.7,0-3,1.4-3,3s1.3,3,3,3h0Z"/>
  <path class="st3" d="M1297.4,450.9h3c1.7,0,3-1.4,3-3s-1.3-3-3-3h-3c-1.7,0-3,1.4-3,3s1.3,3,3,3h0Z"/>
  <path class="st3" d="M1279.4,450.9h3c1.7,0,3-1.4,3-3s-1.3-3-3-3h-3c-1.7,0-3,1.4-3,3s1.3,3,3,3h0Z"/>
  <path class="st3" d="M1315.4,450.8h3c1.7,0,3-1.4,3-3s-1.3-3-3-3h-3c-1.7,0-3,1.4-3,3s1.3,3,3,3h0Z"/>
  <path class="st3" d="M1135.4,451.1h3c1.7,0,3-1.4,3-3s-1.3-3-3-3h-3c-1.7,0-3,1.4-3,3s1.3,3,3,3h0Z"/>
  <path class="st3" d="M19.1,533.8c-1.7,0-3,1.3-3,3v3c0,1.7,1.3,3,3,3s3-1.3,3-3v-3c0-1.7-1.3-3-3-3Z"/>
  <path class="st3" d="M1243.4,450.9h3c1.7,0,3-1.4,3-3s-1.3-3-3-3h-3c-1.7,0-3,1.4-3,3s1.3,3,3,3h0Z"/>
  <path class="st3" d="M1333.4,450.8h3c1.7,0,3-1.4,3-3s-1.3-3-3-3h-3c-1.7,0-3,1.4-3,3s1.3,3,3,3h0Z"/>
  <path class="st3" d="M1225.4,451h3c1.7,0,3-1.4,3-3s-1.3-3-3-3h-3c-1.7,0-3,1.4-3,3s1.3,3,3,3h0Z"/>
  <path class="st3" d="M1153.4,451.1h3c1.7,0,3-1.4,3-3s-1.3-3-3-3h-3c-1.7,0-3,1.4-3,3s1.3,3,3,3h0Z"/>
  <path class="st3" d="M1171.4,451h3c1.7,0,3-1.4,3-3s-1.3-3-3-3h-3c-1.7,0-3,1.4-3,3s1.3,3,3,3h0Z"/>
  <path class="st3" d="M1189.4,451h3c1.7,0,3-1.4,3-3s-1.3-3-3-3h-3c-1.7,0-3,1.4-3,3s1.3,3,3,3h0Z"/>
  <path class="st3" d="M1207.4,451h3c1.7,0,3-1.4,3-3s-1.3-3-3-3h-3c-1.7,0-3,1.4-3,3s1.3,3,3,3h0Z"/>
  <path class="st3" d="M22.4,446.7h-3c-1.7,0-3,1.4-3,3s1.3,3,3,3h3c1.7,0,3-1.4,3-3s-1.3-3-3-3Z"/>
  <path class="st3" d="M184.4,446.5h-3c-1.7,0-3,1.4-3,3s1.3,3,3,3h3c1.7,0,3-1.4,3-3s-1.3-3-3-3h0Z"/>
  <path class="st3" d="M220.4,446.4h-3c-1.7,0-3,1.4-3,3s1.3,3,3,3h3c1.7,0,3-1.4,3-3s-1.3-3-3-3h0Z"/>
  <path class="st3" d="M238.4,446.4h-3c-1.7,0-3,1.4-3,3s1.3,3,3,3h3c1.7,0,3-1.4,3-3s-1.3-3-3-3h0Z"/>
  <path class="st3" d="M148.4,446.5h-3c-1.7,0-3,1.4-3,3s1.3,3,3,3h3c1.7,0,3-1.4,3-3s-1.3-3-3-3h0Z"/>
  <path class="st3" d="M166.4,446.5h-3c-1.7,0-3,1.4-3,3s1.3,3,3,3h3c1.7,0,3-1.4,3-3s-1.3-3-3-3h0Z"/>
  <path class="st3" d="M256.4,446.4h-3c-1.7,0-3,1.4-3,3s1.3,3,3,3h3c1.7,0,3-1.4,3-3s-1.3-3-3-3h0Z"/>
  <path class="st3" d="M292.4,446.3h-3c-1.7,0-3,1.4-3,3s1.3,3,3,3h3c1.7,0,3-1.4,3-3s-1.3-3-3-3h0Z"/>
  <path class="st3" d="M328.4,446.3h-3c-1.7,0-3,1.4-3,3s1.3,3,3,3h3c1.7,0,3-1.4,3-3s-1.3-3-3-3h0Z"/>
  <path class="st3" d="M346.4,446.2h-3c-1.7,0-3,1.4-3,3s1.3,3,3,3h3c1.7,0,3-1.4,3-3s-1.3-3-3-3h0Z"/>
  <path class="st3" d="M364.4,446.2h-3c-1.7,0-3,1.4-3,3s1.3,3,3,3h3c1.7,0,3-1.4,3-3s-1.3-3-3-3h0Z"/>
  <path class="st3" d="M274.4,446.4h-3c-1.7,0-3,1.4-3,3s1.3,3,3,3h3c1.7,0,3-1.4,3-3s-1.3-3-3-3h0Z"/>
  <path class="st3" d="M310.4,446.3h-3c-1.7,0-3,1.4-3,3s1.3,3,3,3h3c1.7,0,3-1.4,3-3s-1.3-3-3-3h0Z"/>
  <path class="st3" d="M130.4,446.6h-3c-1.7,0-3,1.4-3,3s1.3,3,3,3h3c1.7,0,3-1.4,3-3s-1.3-3-3-3h0Z"/>
  <path class="st3" d="M112.4,446.6h-3c-1.7,0-3,1.4-3,3s1.3,3,3,3h3c1.7,0,3-1.4,3-3s-1.3-3-3-3h0Z"/>
  <path class="st3" d="M19.1,605.9c-1.7,0-3,1.3-3,3v3c0,1.7,1.3,3,3,3s3-1.3,3-3v-3c0-1.7-1.3-3-3-3Z"/>
  <path class="st3" d="M94.4,446.6h-3c-1.7,0-3,1.4-3,3s1.3,3,3,3h3c1.7,0,3-1.4,3-3s-1.3-3-3-3h0Z"/>
  <path class="st3" d="M73.4,452.6h3c1.7,0,3-1.4,3-3s-1.3-3-3-3h-3c-1.7,0-3,1.4-3,3s1.3,3,3,3Z"/>
  <path class="st3" d="M19.1,624c-1.7,0-3,1.3-3,3v3c0,1.7,1.3,3,3,3s3-1.3,3-3v-3c0-1.7-1.3-3-3-3Z"/>
  <path class="st3" d="M55.4,452.7h3c1.7,0,3-1.4,3-3s-1.3-3-3-3h-3c-1.7,0-3,1.4-3,3s1.3,3,3,3Z"/>
  <path class="st3" d="M19.1,569.8c-1.7,0-3,1.3-3,3v3c0,1.7,1.3,3,3,3s3-1.3,3-3v-3c0-1.7-1.3-3-3-3Z"/>
  <path class="st3" d="M19.1,551.8c-1.7,0-3,1.3-3,3v3c0,1.7,1.3,3,3,3s3-1.3,3-3v-3c0-1.7-1.3-3-3-3Z"/>
  <path class="st3" d="M19.1,587.9c-1.7,0-3,1.3-3,3v3c0,1.7,1.3,3,3,3s3-1.3,3-3v-3c0-1.7-1.3-3-3-3Z"/>
  <path class="st3" d="M19.1,642.1c-1.7,0-3,1.3-3,3v3c0,1.7,1.3,3,3,3s3-1.3,3-3v-3c0-1.7-1.3-3-3-3Z"/>
  <path class="st3" d="M1320.1,221.7h-3c-1.7,0-3,1.4-3,3s1.3,3,3,3h3c1.7,0,3-1.4,3-3s-1.3-3-3-3Z"/>
  <path class="st3" d="M730.1,221.7h-3c-1.7,0-3,1.3-3,3s1.3,3,3,3h3c1.7,0,3-1.3,3-3s-1.3-3-3-3Z"/>
  <path class="st3" d="M712.1,221.7h-3c-1.7,0-3,1.3-3,3s1.3,3,3,3h3c1.7,0,3-1.3,3-3s-1.3-3-3-3Z"/>
  <path class="st3" d="M748.1,221.7h-3c-1.7,0-3,1.3-3,3s1.3,3,3,3h3c1.7,0,3-1.3,3-3s-1.3-3-3-3Z"/>
  <path class="st3" d="M673.1,227.7h2.9c1.7,0,3-1.3,3-3s-1.3-3-3-3h-3c-1.7,0-3,1.3-3,3s1.4,3,3,3h0Z"/>
  <path class="st3" d="M694.1,221.7h-3c-1.7,0-3,1.3-3,3s1.3,3,3,3h3c1.7,0,3-1.3,3-3s-1.3-3-3-3Z"/>
  <path class="st3" d="M655.1,221.7h0c-1.7,0-3,1.3-3,3s1.3,3,3,3h3c.4,0,.7,0,1-.2,1.2-.4,2-1.5,2-2.8s-.8-2.4-2-2.8c-.3-.1-.7-.2-1-.2h-3Z"/>
  <path class="st3" d="M619.1,227.6h3c1.7,0,3-1.3,3-3s-1.3-3-3-3h-3c-1.7,0-3,1.3-3,3s1.3,3,3,3Z"/>
  <path class="st3" d="M637.1,227.6h3c1.7,0,3-1.3,3-3s-1.3-3-3-3h-3c-1.7,0-3,1.3-3,3s1.3,3,3,3Z"/>
  <path class="st3" d="M781.1,227.7h2.9c1.7,0,3-1.4,3-3s-1.3-3-3-3h-3c-1.7,0-3,1.3-3,3s1.4,3,3,3h0Z"/>
  <path class="st3" d="M799.1,221.6h0c-1.7,0-3,1.3-3,3s1.4,3,3,3l3.2-3-3.2-3Z"/>
  <path class="st3" d="M769,224.7c0-1.7-1.3-3-3-3h-3c-1.7,0-3,1.3-3,3s1.3,3,3,3h3c1.7,0,3-1.3,3-3Z"/>
  <polygon class="st3" points="780.6 204.5 799.1 221.6 802.3 224.6 799.1 227.6 780.6 244.7 784.7 249.1 811.1 224.6 784.7 200.1 780.6 204.5"/>
  <path d="M1037,580.4h-51.8c4.7,6,8.3,13,10.4,20.6h31.2v103.1h-175.3v-103.1h31.3c2.1-7.6,5.6-14.6,10.4-20.6h-52c-5.7,0-10.3,4.6-10.3,10.3v123.8c0,5.7,4.6,10.3,10.3,10.3h67v10.3h-15.5c-5.7,0-10.3,4.6-10.3,10.3s4.6,10.3,10.3,10.3h92.8c5.7,0,10.3-4.6,10.3-10.3s-4.6-10.3-10.3-10.3h-15.5v-10.3h67c5.7,0,10.3-4.6,10.3-10.3v-123.8c.2-5.7-4.4-10.3-10.1-10.3h-.2ZM949.3,735.1h-20.6v-10.3h20.6v10.3Z"/>
  <path d="M1159.2,699.1s-.2-.3-.3-.4c-.5-.7-1-1.4-1.4-2.1,0,0-.2-.3-.3-.4-1.9-3-3.6-6.1-5.1-9.4,0-.3-.3-.6-.4-.8-.3-.6-.5-1.3-.8-1.9-.2-.4-.3-.8-.5-1.1-.2-.6-.5-1.2-.7-1.8-.2-.4-.3-.9-.5-1.4-.2-.6-.4-1.1-.6-1.7-.2-.6-.3-1.2-.5-1.7-.2-.7-.4-1.4-.5-2-.2-.8-.4-1.6-.6-2.4,0-.4-.2-.9-.3-1.3,0-.7-.3-1.3-.4-2,0-.5,0-.9-.2-1.4,0-.7-.2-1.4-.3-2.1v-1.3c0-.8,0-1.5-.2-2.3v-4.6h0v-4.6c0-.8,0-1.5.2-2.3v-1.3c0-.7.2-1.4.3-2.1,0-.5,0-.9.2-1.4,0-.7.2-1.3.4-2,0-.4.2-.9.3-1.3.2-.8.4-1.6.5-2.4.2-.7.4-1.4.6-2.1.2-.6.3-1.1.5-1.7.2-.6.4-1.2.6-1.7,0-.4.3-.9.4-1.3.2-.6.4-1.2.7-1.8,0-.4.3-.7.4-1.1.3-.6.5-1.3.8-1.9,0-.3.2-.5.4-.8,1.5-3.3,3.2-6.5,5.1-9.5,0,0,.2-.3.2-.4.5-.7,1-1.4,1.4-2.1,0,0,.2-.2.2-.3.5-.7,1-1.4,1.6-2.2v-52.7c0-5.7-4.6-10.3-10.3-10.3h-82.5c-5.7,0-10.3,4.6-10.3,10.3v185.7c0,5.7,4.6,10.3,10.3,10.3h82.5c5.7,0,10.3-4.6,10.3-10.3v-44.2h0c-.5-.7-1.1-1.4-1.6-2.1l.4-.3h0ZM1140.1,735.1h-61.8v-61.9c0-17.1,13.9-30.9,30.9-30.9s30.9,13.9,30.9,30.9v61.9ZM1140.3,632h0c-8.6-6.5-19.3-10.3-30.9-10.3s-22.3,3.9-30.9,10.3v-61.9h61.9v61.9h0Z"/>
  <path d="M1093.8,601h30.9c5.7,0,10.3-4.6,10.3-10.3s-4.6-10.3-10.3-10.3h-30.9c-5.7,0-10.3,4.6-10.3,10.3s4.6,10.3,10.3,10.3Z"/>
  <path d="M1098.9,662.9c0,13.8,20.6,13.8,20.6,0s-20.6-13.8-20.6,0Z"/>
  <path class="st0" d="M936.2,613.3c2.6-.4,5.1-.5,7.3-1.4,1.2-.4,2.4-2.3,2.7-3.8.4-1.9-.8-3.6-2.8-4-2.3-.5-4.7-.8-7.3-1.1-.7,0-1.3.4-1.3,1.1v8.1h0c0,.7.6,1.2,1.3,1.1h0Z"/>
  <path class="st0" d="M936.1,629.4c3.2-.4,6.3-.8,9.3-1.4s3.1-2,3.2-4.1c0-2.3-1.1-4-3.1-4.4-3-.7-6.1-1-9.4-1.4-.7,0-1.3.4-1.3,1.1v9.1c0,.7.6,1.2,1.3,1.1h0Z"/>
  <path class="st0" d="M939.1,652.9c20.1,0,36.5-16.4,36.5-36.5s-16.4-36.5-36.5-36.5-36.5,16.4-36.5,36.5,16.4,36.5,36.5,36.5ZM921,602.7c-.8,0-1.5-.7-1.5-1.5v-2.2c0-.8.7-1.5,1.5-1.5h7.3c.8,0,1.3-.6,1.3-1.2v-6.1c0-.6.5-1.1,1.1-1.1h2.9c.6,0,1.1.5,1.1,1.1v5.6c0,.6.5,1.1,1.1,1.1h1.6c.6,0,1.1-.5,1.1-1.1v-5.5c0-.6.5-1.1,1.1-1.1h2.9c.6,0,1.1.5,1.1,1.1v6c0,.5.4,1,.9,1.1,4.8.9,9.7,1.7,11.1,7.5.8,3.3,0,6.2-2.4,8.4-.5.5-.4,1.4.2,1.8,4.7,2.8,6,5.7,5.1,10.7-1,5.8-4.1,8-14.1,9.7-.5,0-.9.6-.9,1.1v5.9c0,.6-.5,1.1-1.1,1.1h-2.9c-.6,0-1.1-.5-1.1-1.1v-5.8c0-.6-.5-1.1-1.1-1.1h-1.6c-.6,0-1.1.5-1.1,1.1v5.8c0,.6-.5,1.1-1.1,1.1h-3.1c-.6,0-1.1-.5-1.1-1.1v-6c0-.6-.5-1.1-1.1-1.1h-7.7c-.7,0-1.2-.6-1.1-1.3.2-1.5.4-2.8.6-4.1,0-.3.2-.6.5-.7h.2c3.4-.3,5.1-2.1,5.1-5.5v-16.1c0-5.4-.3-4.8-4.9-4.9h.1Z"/>
  <path class="st3" d="M880.6,616.4c0,32.3,26.2,58.5,58.5,58.5s58.5-26.2,58.5-58.5-.7-10.5-2.1-15.4c-2.1-7.6-5.6-14.6-10.4-20.6-10.7-13.7-27.4-22.5-46.1-22.5s-35.3,8.8-46.1,22.5c-4.7,6-8.3,13-10.4,20.6-1.3,4.9-2.1,10.1-2.1,15.4h.2,0ZM939.1,579.9c20.1,0,36.5,16.4,36.5,36.5s-16.4,36.5-36.5,36.5-36.5-16.4-36.5-36.5,16.4-36.5,36.5-36.5Z"/>
  <path class="st3" d="M920.7,629.2h-.2c-.3,0-.5.4-.5.7-.2,1.3-.4,2.6-.6,4.1,0,.7.4,1.3,1.1,1.3h7.7c.6,0,1.1.5,1.1,1.1v6c0,.6.5,1.1,1.1,1.1h3.1c.6,0,1.1-.5,1.1-1.1v-5.8c0-.6.5-1.1,1.1-1.1h1.6c.6,0,1.1.5,1.1,1.1v5.8c0,.6.5,1.1,1.1,1.1h2.9c.6,0,1.1-.5,1.1-1.1v-5.9c0-.5.4-1,.9-1.1,10-1.7,13.1-3.9,14.1-9.7.9-5-.4-7.9-5.1-10.7-.6-.4-.7-1.3-.2-1.8,2.4-2.2,3.2-5.1,2.4-8.4-1.4-5.8-6.3-6.6-11.1-7.5-.5,0-.9-.6-.9-1.1v-6c0-.6-.5-1.1-1.1-1.1h-2.9c-.6,0-1.1.5-1.1,1.1v5.5c0,.6-.5,1.1-1.1,1.1h-1.6c-.6,0-1.1-.5-1.1-1.1v-5.6c0-.6-.5-1.1-1.1-1.1h-2.9c-.6,0-1.1.5-1.1,1.1v6.1c0,.6-.5,1.1-1.3,1.2h-7.3c-.8,0-1.5.7-1.5,1.5v2.2c0,.8.7,1.5,1.5,1.5,4.6,0,4.9.4,4.9,4.9v16.1c0,5.4,0,5.1-5.1,5.5h-.1ZM934.8,604.1c0-.7.6-1.2,1.3-1.1,2.6.3,5,.6,7.3,1.1,2,.4,3.2,2.1,2.8,4-.3,1.5-1.5,3.4-2.7,3.8-2.2.9-4.7,1-7.3,1.4-.7,0-1.3-.4-1.3-1.1h0v-8.1h0ZM934.8,619.2c0-.7.6-1.2,1.3-1.1,3.3.4,6.4.7,9.4,1.4,2,.4,3.2,2.1,3.1,4.4,0,2.1-1.2,3.7-3.2,4.1-3,.6-6.1,1-9.3,1.4-.7,0-1.3-.4-1.3-1.1v-9.1h0Z"/>
  <path d="M256.4,275.5v18.5c0,5.7,4.6,10.3,10.3,10.3h67v10.3h-15.5c-5.7,0-10.3,4.6-10.3,10.3s4.6,10.3,10.3,10.3h92.8c5.7,0,10.3-4.6,10.3-10.3s-4.6-10.3-10.3-10.3h-15.5v-10.3h67c5.7,0,10.3-4.6,10.3-10.3v-123.8c.2-5.7-4.4-10.3-10.1-10.3h-51.9c4.7,6,8.3,13,10.4,20.6h31.3v103.2h-175.4v-103.2h31.3c2.1-7.6,5.6-14.6,10.4-20.6h-51.9c-5.7,0-10.3,4.6-10.3,10.3v18.9c8.9,12.1,14.2,27,14.2,43.2s-5.3,31.1-14.2,43.2h-.2,0ZM354.4,304.3h20.6v10.3h-20.6v-10.3Z"/>
  <path d="M493.6,335.3h82.5c5.7,0,10.3-4.6,10.3-10.3v-185.7c0-5.7-4.6-10.3-10.3-10.3h-82.5c-5.7,0-10.3,4.6-10.3,10.3v185.7c0,5.7,4.6,10.3,10.3,10.3h0ZM504,149.6h61.9v61.9h0c-8.6-6.5-19.3-10.3-30.9-10.3s-22.3,3.9-30.9,10.3v-61.9h-.1ZM503.9,252.7c0-17.1,13.9-30.9,30.9-30.9s30.9,13.9,30.9,30.9v61.9h-61.8v-61.9h0Z"/>
  <path d="M560.6,170.2c0-5.7-4.6-10.3-10.3-10.3h-30.9c-5.7,0-10.3,4.6-10.3,10.3s4.6,10.3,10.3,10.3h30.9c5.7,0,10.3-4.6,10.3-10.3Z"/>
  <path d="M524.6,242.4c0,13.8,20.6,13.8,20.6,0s-20.6-13.8-20.6,0Z"/>
  <path class="st0" d="M361.8,197.7c-.7,0-1.3.4-1.3,1.1v9.1c0,.7.6,1.2,1.3,1.1,3.2-.4,6.3-.8,9.3-1.4s3.1-2,3.2-4.1c.1-2.3-1.1-4-3.1-4.4-3-.7-6.1-1-9.4-1.4h0Z"/>
  <path class="st0" d="M361.8,192.8c2.6-.4,5.1-.5,7.3-1.4,1.2-.4,2.4-2.3,2.7-3.8.4-1.9-.8-3.6-2.8-4-2.3-.5-4.7-.8-7.3-1.1-.7,0-1.3.4-1.3,1.1v8.1h0c0,.7.6,1.2,1.3,1.1h0Z"/>
  <path class="st0" d="M364.7,232.4c20.1,0,36.5-16.4,36.5-36.5s-16.4-36.5-36.5-36.5-36.5,16.4-36.5,36.5,16.4,36.5,36.5,36.5ZM346.6,182.3c-.8,0-1.5-.7-1.5-1.5v-2.2c0-.8.7-1.5,1.5-1.5h7.3c.8-.1,1.3-.6,1.3-1.2v-6.1c0-.6.5-1.1,1.1-1.1h2.9c.6,0,1.1.5,1.1,1.1v5.6c0,.6.5,1.1,1.1,1.1h1.6c.6,0,1.1-.5,1.1-1.1v-5.5c0-.6.5-1.1,1.1-1.1h2.9c.6,0,1.1.5,1.1,1.1v6c0,.5.4,1,.9,1.1,4.8.9,9.7,1.7,11.1,7.5.8,3.3,0,6.2-2.4,8.4-.5.5-.4,1.4.2,1.8,4.7,2.8,6,5.7,5.1,10.7-1,5.8-4.1,8-14.1,9.7-.5,0-.9.6-.9,1.1v5.9c0,.6-.5,1.1-1.1,1.1h-2.9c-.6,0-1.1-.5-1.1-1.1v-5.8c0-.6-.5-1.1-1.1-1.1h-1.6c-.6,0-1.1.5-1.1,1.1v5.8c0,.6-.5,1.1-1.1,1.1h-3.1c-.6,0-1.1-.5-1.1-1.1v-6c0-.6-.5-1.1-1.1-1.1h-7.7c-.7,0-1.2-.6-1.1-1.3.2-1.5.4-2.8.6-4.1,0-.3.2-.6.5-.7,0,0,0-.1.2-.1,3.4-.3,5.1-2.1,5.1-5.5,0-5.4.1-10.7.1-16.1s-.3-4.8-4.9-4.9h0Z"/>
  <path class="st3" d="M306.2,195.9c0,32.3,26.2,58.5,58.5,58.5s58.5-26.2,58.5-58.5-.7-10.5-2.1-15.4c-2.1-7.6-5.6-14.6-10.4-20.6-10.7-13.7-27.4-22.5-46.1-22.5s-35.3,8.8-46.1,22.5c-4.7,6-8.3,13-10.4,20.6-1.3,4.9-2.1,10.1-2.1,15.4h.2ZM364.7,159.4c20.1,0,36.5,16.4,36.5,36.5s-16.4,36.5-36.5,36.5-36.5-16.4-36.5-36.5,16.4-36.5,36.5-36.5Z"/>
  <path class="st3" d="M346.3,208.8c-.1,0-.1.1-.2.1-.3,0-.5.4-.5.7-.2,1.3-.4,2.6-.6,4.1,0,.7.4,1.3,1.1,1.3h7.7c.6,0,1.1.5,1.1,1.1v6c0,.6.5,1.1,1.1,1.1h3.1c.6,0,1.1-.5,1.1-1.1v-5.8c0-.6.5-1.1,1.1-1.1h1.6c.6,0,1.1.5,1.1,1.1v5.8c0,.6.5,1.1,1.1,1.1h2.9c.6,0,1.1-.5,1.1-1.1v-5.9c0-.5.4-1,.9-1.1,10-1.7,13.1-3.9,14.1-9.7.9-5-.4-7.9-5.1-10.7-.6-.4-.7-1.3-.2-1.8,2.4-2.2,3.2-5.1,2.4-8.4-1.4-5.8-6.3-6.6-11.1-7.5-.5,0-.9-.6-.9-1.1v-6c0-.6-.5-1.1-1.1-1.1h-2.9c-.6,0-1.1.5-1.1,1.1v5.5c0,.6-.5,1.1-1.1,1.1h-1.6c-.6,0-1.1-.5-1.1-1.1v-5.6c0-.6-.5-1.1-1.1-1.1h-2.9c-.6,0-1.1.5-1.1,1.1v6.1c0,.6-.5,1.1-1.3,1.2h-7.3c-.8,0-1.5.7-1.5,1.5v2.2c0,.8.7,1.5,1.5,1.5,4.6.1,4.9.4,4.9,4.9s-.1,10.7-.1,16.1,0,5.1-5.1,5.5h0ZM374.3,203.5c0,2.1-1.2,3.7-3.2,4.1-3,.6-6.1,1-9.3,1.4-.7.1-1.3-.4-1.3-1.1v-9.1c0-.7.6-1.2,1.3-1.1,3.3.4,6.4.7,9.4,1.4,2,.4,3.2,2.1,3.1,4.4h0ZM360.4,183.6c0-.7.6-1.2,1.3-1.1,2.6.3,5,.6,7.3,1.1,2,.4,3.2,2.1,2.8,4-.3,1.5-1.5,3.4-2.7,3.8-2.2.9-4.7,1-7.3,1.4-.7,0-1.3-.4-1.3-1.1h0v-8.1h0Z"/>
  <path class="st0" d="M154.2,275.6c2.3-10.2,7.9-18.8,16.1-25.2,2.1-1.6,5.3-1.8,7.6-.2,11.6,8.3,27.3,8.6,39,.4,2.7-1.9,5.9-2.1,8.5,0,7.7,6.1,13.1,14.3,15.6,24.2,0,.3.1.5.1.8v.7h0c11.4-11.2,18.5-26.9,18.5-44.1,0-34.2-27.8-62-62-62s-62,27.8-62,62,7.1,32.9,18.5,44.1v-.8h0ZM193.2,197.9c14.1-2.5,26.7,6.9,29.1,20.3,2.4,13.6-6.7,26.6-20.3,29.1-13.4,2.4-26.4-6.5-29-19.8-2.6-13.5,6-27,20.2-29.5h0Z"/>
  <path class="st0" d="M383.8,603.9c-7.3-1.8-10.4-2.6-13.2-2.6s-6,1.1-14.1,3l-25.8,6.1,39.7,11.3,40.4-11.6-27-6.2Z"/>
  <path class="st0" d="M139.8,603.9c-7.3-1.8-10.4-2.6-13.2-2.6s-6,1.1-14.1,3l-25.8,6.1,39.7,11.3,40.4-11.6-27-6.2h0Z"/>
  <path class="st0" d="M83.1,625.1l-18.7-5.3v64.3l30.4,8.7,24.6,7v-64.3l-36.4-10.4h.1Z"/>
  <path class="st0" d="M627.8,603.9c-7.3-1.8-10.4-2.6-13.2-2.6s-6,1.1-14.1,3l-25.8,6.1,39.7,11.3,40.4-11.6-27-6.2h0Z"/>
  <path class="st0" d="M647.6,692.2l11.5-3.3,18.3-5.3v-64.3l-54.9,15.8v64.3l25.2-7.2h0Z"/>
  <path class="st0" d="M564.5,651.6c0,5.7-4.6,10.4-10.4,10.4h-2.1v.2h.6v21.6l29.3,8.4,25.1,7.2v-63.9l-54.5-15.6v21.3h1.7c5.7,0,10.3,4.7,10.3,10.4h0Z"/>
  <path class="st0" d="M433.4,619.2l-55,15.8v64.4c.1,0,25.2-7.2,25.2-7.2l29.9-8.6v-21.6h-1.1c-5.8,0-10.5-4.7-10.5-10.5s4.8-10.5,10.6-10.5h1v-21.8h-.1Z"/>
  <path class="st0" d="M189.2,683.6v-21.6h-.8c-5.8,0-10.5-4.7-10.5-10.5s4.8-10.5,10.6-10.5h.7v-21.7l-54.7,15.7v64.3l24.9-7.1,29.9-8.6h0Z"/>
  <path class="st0" d="M308,641.2h.1-.1Z"/>
  <path class="st0" d="M308.6,683.8l29.3,8.4,25.1,7.2v-64l-54.5-15.6v21.4h1.7c5.7,0,10.3,4.7,10.3,10.4s-4.6,10.4-10.4,10.4h-2.1.6v21.7h0Z"/>
  <path d="M168.7,705.3l30.4-8.7c3.2-.9,5.4-3.9,5.4-7.2v-20.7c-.6-.6-1.2-1.2-1.8-1.9-.2-.3-.5-.6-.7-.9,0,0-.2-.2-.3-.3-.8-1.1-1.6-2.3-2.2-3.6h-10.1v21.5l-29.9,8.6-25.1,7.2h0v-64.4l54.7-15.7h.3v21.7h10.1c1.3-2.6,2.9-4.8,4.9-6.5v-25.4c0-3.4-2.5-6.4-5.8-7.1l-70-16.1c-1.1-.3-2.3-.3-3.4,0l-42.1,10-27.9,6.6c-3.3.8-5.8,3.9-5.8,7.3-.2,14,.2,53.2,0,67.7.7,5.4-2.5,18,5.5,19.5,7.3,2,17.4,4.9,28.1,8,15.9,4.6,33,9.6,44,12.2.5.4,39.8-11.7,41.6-11.9h.1ZM119.5,699.7l-24.6-7-30.4-8.7v-64.3h0l18.7,5.2,36.3,10.4v64.4h0ZM126.4,621.7l-39.8-11.3,25.8-6.1c8.2-1.9,11-3,14.2-3s5.9.8,13.2,2.6l27,6.2-40.4,11.6h0Z"/>
  <path d="M447,667.2c-1.4-1.5-2.6-3.2-3.5-5.1h-10.1v21.5l-29.9,8.6-25.1,7.2h0v-64.4l54.9-15.8v21.8h10.1c1.3-2.6,2.9-4.8,4.9-6.5v-25.4c0-3.4-2.5-6.4-5.8-7.1l-70-16.1c-1.1-.3-2.3-.3-3.4,0l-70,16.6c-3.3.8-5.8,3.9-5.8,7.3-.1,5.4-.1,14.6,0,24.6,2.2,1.8,4.1,4,5.5,6.7h9.6v-21.4l54.6,15.6h.4v64.5c.1,0-24.5-7-24.5-7l-30.4-8.7v-22.1h-9.5c-1.5,3-3.3,5.4-5.5,7.1v8.3c.7,5.4-2.5,18,5.5,19.5,18.1,4.9,53.7,15.8,72.1,20.2.5.4,39.8-11.7,41.6-11.9l30.4-8.7c3.2-.9,5.4-3.9,5.4-7.2v-20.7c-.5-.4-1-.9-1.4-1.4h-.1ZM370.5,621.7h0l-39.8-11.3,25.8-6.1c8.2-1.9,11-3,14.2-3s5.9.8,13.2,2.6l27,6.2-40.4,11.6h0Z"/>
  <path d="M686.6,602.1l-27.5-6.3-42.5-9.8c-1.1-.3-2.3-.3-3.4,0l-70,16.6c-3.3.8-5.8,3.9-5.8,7.3v24.6c2.2,1.8,4,3.9,5.4,6.6h9.7v-21.3l54.6,15.6h.4v64.5l-24.6-7-30.4-8.7v-22.1h-9.5c-1.5,3-3.3,5.4-5.5,7.1v8.3c.7,5.4-2.5,18,5.5,19.5,18.1,4.9,53.7,15.8,72.1,20.2.5.4,39.8-11.7,41.6-11.9l2.3-.7,28.1-8c3.2-.9,5.4-3.9,5.4-7.2-.2-21.4-.2-80.3-.2-80.3,0,0,.2-2.8-1.6-4.8-1.7-1.9-4.1-2.2-4.1-2.2h0ZM614.5,621.7h0l-39.8-11.3,25.8-6.1c8.2-1.9,11-3,14.2-3s5.9.8,13.2,2.6l27,6.2-40.4,11.6ZM659.1,689l-11.6,3.3-25.1,7.2v-64.4h0l54.9-15.8v64.3h0l-18.3,5.3h0Z"/>
  <path class="st3" d="M314.5,651.5c0-2.4-2-4.4-4.4-4.4h-13.6c-1.1,0-1.7,0-2.2-1.3-2.3-6-7.8-10.1-14.2-10.1h-12.8c-7.6,0-11.8,2.9-14.7,10-.2.6-1.1,1.2-1.8,1.3-.5,0-1.1.2-1.6.2s-1,0-1.5-.2c-.7-.2-1.6-.8-1.9-1.5-2.5-6.4-7.3-9.8-14.2-9.8h-13.4c-7.2,0-11.6,3.2-14.3,9.9-.3.6-1.3,1.4-2,1.4h-13.7c-2.5,0-4.5,2-4.5,4.5s2,4.5,4.5,4.5h13.5c1.2,0,1.8.4,2.3,1.7,2.2,6.2,6.9,9.5,13.5,9.6h13.9c7.2,0,11.6-3.2,14.2-9.8.3-.6,1.3-1.2,2-1.4h3.2c1,0,1.5.5,1.9,1.6,2.3,6.4,6.9,9.6,13.7,9.7h12.3c9.1,0,12.9-2.7,16.2-11.4h15.2c2.4,0,4.4-2,4.4-4.4h0ZM235.7,656.2h.1c0,.2.2.5.3.7-1.2.5-2.4,1.3-3.6,1.3h-15.1c-1.2,0-2.4-.8-3.6-1.2,0-.3.2-.5.3-.8,1.8,0,3.2-1.6,3.2-3.4v-2.4c0-1.8-1.4-3.3-3.2-3.4h-.2c1-1.5,6-2.3,11.1-2.3s9.8.7,11.1,2.2h-.4c-1.8,0-3.2,1.6-3.2,3.4v2.5c0,1.8,1.4,3.3,3.2,3.4h0ZM284.6,647c-1.9,0-3.4,1.7-3.4,3.6v2.1c0,1.9,1.5,3.5,3.4,3.6-1,1.4-6,2.2-11,2.2s-9.9-.8-10.9-2.2h.1c1.8,0,3.3-1.7,3.3-3.6v-2.1c0-1.9-1.5-3.5-3.4-3.6h0c1-1.5,6-2.3,11-2.3s9.9.8,11.1,2.3h-.2Z"/>
  <path class="st0" d="M320.5,651.6c0-5.7-4.6-10.4-10.3-10.4s-1.1,0-1.7,0h-9.8c-3.7-6.9-10.8-11.3-18.6-11.4h-12.9c-8.3,0-14.1,3-18.1,9.4-3.8-6.1-9.9-9.4-17.6-9.4h-13.1c-8.7,0-15.1,3.9-18.8,11.4h-11.1c-5.8,0-10.6,4.7-10.6,10.5s4.7,10.5,10.5,10.5h11.1c.6,1.3,1.4,2.5,2.2,3.6,0,0,.2.2.3.3.2.3.5.6.7.9,3.6,4.1,8.8,6.4,14.9,6.5h14c7.9,0,13.8-3.1,17.6-9.2,3.6,5.9,9.6,9.2,17.2,9.3h12.3c10.1,0,16.1-3.3,20.2-11.4h11.2c5.8,0,10.4-4.7,10.4-10.4v-.2h0ZM294.9,655.9c-3.3,8.7-7.1,11.4-16.2,11.4h-12.3c-6.8,0-11.4-3.3-13.7-9.7-.4-1.1-.9-1.6-1.9-1.6h-3.2c-.7.2-1.7.8-2,1.4-2.6,6.6-7,9.7-14.2,9.8h-13.9c-6.6,0-11.3-3.4-13.5-9.6-.5-1.3-1.1-1.7-2.3-1.7h-13.5c-2.5,0-4.5-2-4.5-4.5s2-4.5,4.5-4.5h13.7c.7,0,1.7-.8,2-1.4,2.7-6.7,7.1-9.8,14.3-9.9h13.4c6.9,0,11.7,3.4,14.2,9.8.3.7,1.2,1.3,1.9,1.5.5,0,1,.2,1.5.2s1.1,0,1.6-.2c.7,0,1.6-.7,1.8-1.3,2.9-7.1,7.1-10,14.7-10h12.8c6.4,0,11.9,4.1,14.2,10.1.5,1.2,1.1,1.3,2.2,1.3h13.6c3.7,0,4.4,2,4.4,4.4s-2,4.4-4.4,4.4h-15.2Z"/>
  <path class="st0" d="M273.6,644.7c-5,0-10,.8-11,2.3h0c1.9,0,3.4,1.7,3.4,3.6v2.1c0,1.9-1.5,3.5-3.3,3.6h-.1c1,1.4,5.9,2.2,10.9,2.2s10-.8,11-2.2c-1.9,0-3.4-1.7-3.4-3.6v-2.1c0-1.9,1.5-3.5,3.4-3.6h0c-1.2-1.5-6.1-2.3-11.1-2.3h.2ZM275.2,652.5h-3.1v-1.8h3.1v1.8Z"/>
  <path class="st0" d="M235.7,646.9h.4c-1.3-1.5-6.2-2.2-11.1-2.2s-10.1.8-11.1,2.3h.2c1.8,0,3.2,1.6,3.2,3.4v2.4c0,1.8-1.4,3.3-3.2,3.4-.1.3-.2.5-.3.8,1.2.4,2.4,1.2,3.6,1.2h15.1c1.2,0,2.4-.8,3.6-1.3-.1-.2-.2-.5-.3-.7h-.1c-1.8,0-3.2-1.6-3.2-3.4v-2.5c0-1.8,1.4-3.3,3.2-3.4h0ZM226.5,652.3h-3.2v-1.6h3.2v1.6Z"/>
  <path class="st3" d="M540.5,647c-1.1,0-1.7,0-2.2-1.3-2.3-6-7.8-10.1-14.2-10.1h-12.8c-7.6,0-11.8,2.9-14.7,10-.2.6-1.1,1.2-1.8,1.3-.5,0-1.1.2-1.6.2s-1,0-1.5-.2c-.7-.2-1.6-.8-1.9-1.5-2.5-6.4-7.3-9.8-14.2-9.8h-13.4c-7.2,0-11.6,3.2-14.3,9.9-.3.6-1.3,1.4-2,1.4h-13.7c-2.5,0-4.5,2-4.5,4.5s2,4.5,4.5,4.5h13.5c1.2,0,1.8.4,2.3,1.7,2.2,6.2,6.9,9.5,13.5,9.6h13.9c7.2,0,11.6-3.2,14.2-9.8.3-.6,1.3-1.2,2-1.4h3.2c1,0,1.5.5,1.9,1.6,2.3,6.4,6.9,9.6,13.7,9.7h12.3c9.1,0,12.9-2.7,16.2-11.4h15.2c2.4,0,4.4-2,4.4-4.4s-2-4.4-4.4-4.4h-13.6ZM479.7,656.2h0c0,.2.2.5.3.7-1.2.5-2.4,1.3-3.6,1.3h-15.1c-1.2,0-2.4-.8-3.6-1.2,0-.3.2-.5.3-.8,1.8,0,3.2-1.6,3.2-3.4v-2.4c0-1.8-1.4-3.3-3.2-3.4h-.2c1-1.5,6-2.3,11.1-2.3s9.8.7,11.1,2.2h-.4c-1.8,0-3.2,1.6-3.2,3.4v2.5c0,1.8,1.4,3.3,3.2,3.4h.1ZM528.6,647c-1.9,0-3.4,1.7-3.4,3.6v2.1c0,1.9,1.5,3.5,3.4,3.6-1,1.4-6,2.2-11,2.2s-9.9-.8-10.9-2.2h0c1.8,0,3.3-1.7,3.3-3.6v-2.1c0-1.9-1.5-3.5-3.4-3.6h0c1-1.5,6-2.3,11-2.3s9.9.8,11.1,2.3h0Z"/>
  <path class="st0" d="M524.1,629.7h-12.9c-8.3,0-14.1,3-18.1,9.4-3.8-6.1-9.9-9.4-17.6-9.4h-13.1c-8.7,0-15.1,3.9-18.8,11.4h-11.1c-5.8,0-10.6,4.7-10.6,10.5s4.7,10.5,10.5,10.5h11.1c.9,1.9,2.1,3.6,3.5,5.1h.1c.5.6.9,1,1.4,1.5,3.4,2.9,7.9,4.5,13,4.6h14c7.9,0,13.8-3.1,17.6-9.2,3.6,5.9,9.6,9.2,17.2,9.3h12.3c10.1,0,16.1-3.3,20.2-11.4h11.2c5.8,0,10.4-4.7,10.4-10.4s-4.6-10.4-10.3-10.4-1.1,0-1.7,0h-9.8c-3.7-6.9-10.8-11.3-18.6-11.4h0ZM554.1,647.1c2.4,0,4.4,2,4.4,4.4s-2,4.4-4.4,4.4h-15.2c-3.3,8.7-7.1,11.4-16.2,11.4h-12.3c-6.8,0-11.4-3.3-13.7-9.7-.4-1.1-.9-1.6-1.9-1.6h-3.2c-.7.2-1.7.8-2,1.4-2.6,6.6-7,9.7-14.2,9.8h-13.9c-6.6,0-11.3-3.4-13.5-9.6-.5-1.3-1.1-1.7-2.3-1.7h-13.5c-2.5,0-4.5-2-4.5-4.5s2-4.5,4.5-4.5h13.7c.7,0,1.7-.8,2-1.4,2.7-6.7,7.1-9.8,14.3-9.9h13.4c6.9,0,11.7,3.4,14.2,9.8.3.7,1.2,1.3,1.9,1.5.5,0,1,.2,1.5.2s1.1,0,1.6-.2c.7,0,1.6-.7,1.8-1.3,2.9-7.1,7.1-10,14.7-10h12.8c6.4,0,11.9,4.1,14.2,10.1.5,1.2,1.1,1.3,2.2,1.3h13.6Z"/>
  <path class="st0" d="M479.7,646.9h.4c-1.3-1.5-6.2-2.2-11.1-2.2s-10.1.8-11.1,2.3h.2c1.8,0,3.2,1.6,3.2,3.4v2.4c0,1.8-1.4,3.3-3.2,3.4-.1.3-.2.5-.3.8,1.2.4,2.4,1.2,3.6,1.2h15.1c1.2,0,2.4-.8,3.6-1.3,0-.2-.2-.5-.3-.7h0c-1.8,0-3.2-1.6-3.2-3.4v-2.5c0-1.8,1.4-3.3,3.2-3.4h-.1ZM470.5,652.3h-3.2v-1.6h3.2v1.6Z"/>
  <path class="st0" d="M517.6,644.7c-5,0-10,.8-11,2.3h0c1.9,0,3.4,1.7,3.4,3.6v2.1c0,1.9-1.5,3.5-3.3,3.6h0c1,1.4,5.9,2.2,10.9,2.2s10-.8,11-2.2c-1.9,0-3.4-1.7-3.4-3.6v-2.1c0-1.9,1.5-3.5,3.4-3.6h0c-1.2-1.5-6.1-2.3-11.1-2.3h0ZM519.2,652.5h-3.1v-1.8h3.1v1.8Z"/>
  <path class="st3" d="M582.2,578.1c1.1,1.1,2.5,1.6,3.9,1.6s2.8-.5,3.9-1.6c2.2-2.1,2.2-5.6,0-7.8l-26.4-26.5c-2.1-2.2-5.6-2.2-7.8,0-2.2,2.1-2.2,5.6,0,7.8l26.4,26.5h0Z"/>
  <path class="st3" d="M639.8,578.1c1.1,1.1,2.5,1.6,3.9,1.6s2.8-.5,3.9-1.6l11.5-11.5,14.9-15c2.1-2.2,2.1-5.6,0-7.8s-5.6-2.1-7.8,0l-7.1,7.1-19.3,19.4c-2.1,2.2-2.1,5.6,0,7.8h0Z"/>
  <path class="st3" d="M614.9,570.1c3,0,5.5-2.5,5.5-5.5v-37.4c0-3-2.5-5.5-5.5-5.5s-5.5,2.5-5.5,5.5v37.4c0,3,2.5,5.5,5.5,5.5Z"/>
  <path class="st3" d="M639.8,724.3c-2.2,2.1-2.2,5.6,0,7.8l19.3,19.4,7.1,7.1c1.1,1.1,2.5,1.6,3.9,1.6s2.8-.5,3.9-1.6c2.2-2.1,2.2-5.6,0-7.8l-14.9-15-11.5-11.5c-2.1-2.2-5.6-2.2-7.8,0Z"/>
  <path class="st3" d="M582.2,724.3l-26.4,26.5c-2.1,2.2-2.1,5.6,0,7.8,1.1,1.1,2.5,1.6,3.9,1.6s2.8-.5,3.9-1.6l26.4-26.5c2.1-2.2,2.1-5.6,0-7.8-2.2-2.1-5.6-2.1-7.8,0h0Z"/>
  <path class="st3" d="M614.9,732.3c-3,0-5.5,2.5-5.5,5.5v37.4c0,3,2.5,5.5,5.5,5.5s5.5-2.5,5.5-5.5v-37.4c0-3-2.5-5.5-5.5-5.5Z"/>
  <path class="st0" d="M1050.8,283.4v-62.2l-53.3-15.2v7.3h0v43.4h0v1.6h0v4.2h0v1.3h0v4.4l29.5,8.4,23.8,6.8Z"/>
  <path class="st0" d="M1070.6,190.6c-.5-.1-.9-.2-1.4-.3-3.1-.8-5.3-1.3-7.1-1.7-.5-.1-1-.2-1.4-.3-.4,0-.9-.1-1.3-.2-1.4-.1-2.6-.1-3.9.1-.4,0-.8.1-1.2.2-2.3.5-5.2,1.3-10.4,2.5l-25,5.9,38.5,11,39.3-11.3-26.2-6h0Z"/>
  <path class="st0" d="M1065.4,283.1l24.3-7,28.8-8.2v-62.4l-53.2,15.3v62.3h0Z"/>
  <path d="M1133.3,273.2c0-.5-.2-1.2-.2-1.9v-75.5c0-3.3-2.5-6.2-5.6-6.9l-67.8-15.6c-1.1-.3-2.2-.2-3.3,0l-67.8,16.1c-3.2.7-5.6,3.8-5.6,7.1v65.3c.7,5.2-2.5,17.4,5.3,18.9,17.5,4.8,52,15.3,69.8,19.6.5.3,38.6-11.4,40.3-11.6l29.5-8.5c3.1-.9,5.3-3.7,5.3-7h0ZM1027,276.7l-29.5-8.4h0v-4.4h0v-1.3h0v-4.2h0v-1.6h0v-43.4h0v-7.4l53.2,15.2h0v62.4l-23.9-6.9h.2ZM1057.5,207.9l-38.5-11,25-5.9c5.2-1.2,8.1-2.1,10.4-2.5.4,0,.8-.2,1.2-.2,1.3-.2,2.5-.2,3.9-.1s.8,0,1.3.2c.4,0,.9.2,1.4.3,1.8.4,4,.9,7.1,1.7.4.1.9.2,1.4.3l26.2,6-39.3,11.3h0ZM1118.5,208.3v59.6h0c0,.1-28.9,8.3-28.9,8.3l-24.3,7v-62.4h0l53.2-15.3v2.8h0Z"/>
  <rect class="st3" x="1168.8" y="121.6" width="67.3" height="39.5"/>
  <path class="st3" d="M935.4,129.4h1.7c1.1,0,2.2.3,3.2.5,2.6.7,5,1.8,7,3.4v-23.8h-23.8v23.8c3.3-2.5,7.4-4,11.9-4h0ZM925.4,117.5c0-2.2,1.8-4,4-4h11.9c2.2,0,4,1.8,4,4s0,0,0,0h0c0,2.2-1.8,4-4,4h-11.9c-2.2,0-4-1.8-4-4s0,0,0,0h0Z"/>
  <rect class="st3" x="866.1" y="359.8" width="7.8" height="3.9"/>
  <path class="st3" d="M935.4,137.4c-6.6,0-11.9,5.3-11.9,11.9v23.7h23.8v-23.7c0-6.6-5.4-11.9-11.9-11.9h0ZM938.1,148.3c-.4.3-.8.6-1.3.7-.5.2-1,.2-1.5.2s-1.5-.2-2.1-.6c-1.1-.6-1.8-1.8-1.8-3.4s.8-2.8,1.8-3.4c.6-.4,1.4-.6,2.1-.6s1,0,1.5.2.9.4,1.3.7c.7.7,1.2,1.7,1.2,3s-.5,2.3-1.2,3v.2h0Z"/>
  <rect class="st3" x="1198.5" y="359.8" width="7.9" height="3.9"/>
  <path class="st3" d="M1267.8,328.1c-6.6,0-11.9,5.3-11.9,11.9v23.7h23.8v-23.7c0-6.6-5.3-11.9-11.9-11.9ZM1263.9,336c0-5.3,7.9-5.3,7.9,0s-7.9,5.3-7.9,0Z"/>
  <rect class="st3" x="836.3" y="121.6" width="67.4" height="39.5"/>
  <rect class="st3" x="1168.8" y="312.2" width="67.3" height="39.6"/>
  <rect class="st3" x="1198.5" y="169.1" width="7.9" height="3.9"/>
  <path class="st3" d="M935.4,320.1h1.7c1.1,0,2.2.3,3.2.5,2.6.7,5,1.8,7,3.4v-23.8h-23.8v23.8c3.3-2.5,7.4-4,11.9-4h0ZM925.4,308.2c0-2.2,1.8-4,4-4h11.9c2.2,0,4,1.8,4,4s0,0,0,0h0c0,2.2-1.8,4-4,4h-11.9c-2.2,0-4-1.8-4-4s0,0,0,0h0Z"/>
  <path class="st3" d="M1267.8,137.4c-6.6,0-11.9,5.3-11.9,11.9v23.7h23.8v-23.7c0-6.6-5.3-11.9-11.9-11.9ZM1263.9,145.3c0-5.3,7.9-5.3,7.9,0s-7.9,5.3-7.9,0Z"/>
  <path class="st3" d="M1255.9,133.4c3.3-2.5,7.4-4,11.9-4s8.6,1.5,11.9,4v-23.8h-23.8v23.8ZM1261.9,113.5h11.9c2.2,0,4,1.8,4,4s-.5,2.1-1.2,2.8c-.5.5-1.2.9-2,1.1h-12.7c-2.2,0-4-1.8-4-4s1.8-4,4-4h0Z"/>
  <rect class="st3" x="866.1" y="169.1" width="7.8" height="3.9"/>
  <path class="st3" d="M935.4,328.1c-6.6,0-11.9,5.3-11.9,11.9v23.7h23.8v-23.7c0-6.6-5.4-11.9-11.9-11.9h0ZM938.1,339c-.4.3-.8.6-1.3.7-.5.2-1,.2-1.5.2s-1.5-.2-2.1-.6c-1.1-.6-1.8-1.8-1.8-3.4s.8-2.8,1.8-3.4c.6-.4,1.4-.6,2.1-.6s1,0,1.5.2.9.4,1.3.7c.7.7,1.2,1.7,1.2,3s-.5,2.3-1.2,3v.2h0Z"/>
  <path class="st3" d="M1255.9,324.1c3.3-2.5,7.4-4,11.9-4s8.6,1.5,11.9,4v-23.8h-23.8v23.8ZM1257.9,308.2c0-2.2,1.8-4,4-4h11.9c2.2,0,4,1.8,4,4s0,0,0,0h0c0,2.2-1.8,4-4,4h-11.9c-2.2,0-4-1.8-4-4s0,0,0,0h0Z"/>
  <rect class="st3" x="836.3" y="312.2" width="67.4" height="39.6"/>
  <path d="M907.6,113.6h-75.3c-2.2,0-4,1.8-4,4v47.6c0,2.2,1.8,4,4,4h25.8v4h-5.9c-2.2,0-4,1.8-4,4s1.8,4,4,4h35.7c2.2,0,4-1.8,4-4s-1.8-4-4-4h-5.9v-4h25.8c2.2,0,4-1.8,4-4v-47.6c-.2-2.2-2-4-4.2-4h0ZM874,173h-7.9v-3.9h0c0-.1,7.9-.1,7.9-.1v4ZM903.7,161.1h-67.4v-39.6h67.4v39.5h0Z"/>
  <path d="M951.2,101.7h-31.7c-2.2,0-4,1.8-4,4v71.3c0,2.2,1.8,4,4,4h31.7c2.2,0,4-1.8,4-4v-71.3c0-2.2-1.8-4-4-4ZM923.5,109.6h23.8v23.8c-2.1-1.6-4.4-2.7-7-3.4-1-.3-2.1-.4-3.2-.5h-1.7c-4.5,0-8.6,1.5-11.9,4h0v-23.8h0ZM947.3,173h-23.8v-23.7h0c0-6.7,5.3-12,11.9-12s11.9,5.3,11.9,11.9v23.8h0Z"/>
  <path d="M929.4,121.5h11.9c2.2,0,4-1.8,4-4h0c0-2.2-1.8-4-4-4h-11.9c-2.2,0-4,1.8-4,4s0,0,0,0c0,2.2,1.9,4,4,4Z"/>
  <path d="M936.8,141.6c-.5-.2-1-.2-1.5-.2s-1.5.2-2.1.6c-1.1.6-1.8,1.8-1.8,3.4s.8,2.8,1.8,3.4c.6.4,1.4.6,2.1.6s1,0,1.5-.2.9-.4,1.3-.7c.7-.7,1.2-1.7,1.2-3s-.5-2.3-1.2-3c-.4-.3-.8-.6-1.3-.7v-.2h0Z"/>
  <path d="M1240.1,113.6h-75.3c-2.2,0-4,1.8-4,4v47.6c0,2.2,1.8,4,4,4h25.8v4h-5.9c-2.2,0-4,1.8-4,4s1.8,4,4,4h35.7c2.2,0,4-1.8,4-4s-1.8-4-4-4h-5.9v-4h25.8c2.2,0,4-1.8,4-4v-47.6c-.2-2.2-2-4-4.2-4ZM1206.4,169.1v3.9h-7.9v-4h7.9ZM1236.1,161.1h-67.4v-39.6h67.4v39.5h0Z"/>
  <path d="M1283.7,101.7h-31.7c-2.2,0-4,1.8-4,4v71.3c0,2.2,1.8,4,4,4h31.7c2.2,0,4-1.8,4-4v-71.3c0-2.2-1.8-4-4-4ZM1279.7,149.3v23.7h-23.8v-23.7h0c0-6.7,5.3-12,11.9-12s11.9,5.3,11.9,11.9h0ZM1279.7,133.4c-3.3-2.5-7.4-4-11.9-4s-8.6,1.5-11.9,4v-23.8h23.8v23.8Z"/>
  <path d="M1261.9,121.5h12.7c.8-.2,1.5-.5,2-1.1.7-.7,1.2-1.7,1.2-2.8,0-2.2-1.8-4-4-4h-11.9c-2.2,0-4,1.8-4,4s1.8,4,4,4h0Z"/>
  <path d="M1263.9,145.3c0,5.3,7.9,5.3,7.9,0s-7.9-5.3-7.9,0Z"/>
  <path d="M907.6,304.3h-75.3c-2.2,0-4,1.8-4,4v47.6c0,2.2,1.8,4,4,4h25.8v4h-5.9c-2.2,0-4,1.8-4,4s1.8,4,4,4h35.7c2.2,0,4-1.8,4-4s-1.8-4-4-4h-5.9v-4h25.8c2.2,0,4-1.8,4-4v-47.6c-.2-2.3-2-4-4.2-4h0ZM874,363.7h-7.9v-3.9h7.9v4h0ZM903.7,351.8h-67.4v-39.6h67.4v39.6Z"/>
  <path d="M951.2,292.4h-31.7c-2.2,0-4,1.8-4,4v71.3c0,2.2,1.8,4,4,4h31.7c2.2,0,4-1.8,4-4v-71.3c0-2.2-1.8-4-4-4h0ZM923.5,300.3h23.8v23.8c-2.1-1.6-4.4-2.7-7-3.4-1-.3-2.1-.4-3.2-.5h-1.7c-4.5,0-8.6,1.5-11.9,4h0v-23.8h0ZM947.3,363.7h-23.8v-23.7h0c0-6.7,5.3-12,11.9-12s11.9,5.3,11.9,11.9v23.8h0Z"/>
  <path d="M929.4,312.2h11.9c2.2,0,4-1.8,4-4h0c0-2.2-1.8-4-4-4h-11.9c-2.2,0-4,1.8-4,4s0,0,0,0c0,2.2,1.9,4,4,4Z"/>
  <path d="M936.8,332.3c-.5-.2-1-.2-1.5-.2s-1.5.2-2.1.6c-1.1.6-1.8,1.8-1.8,3.4s.8,2.8,1.8,3.4c.6.4,1.4.6,2.1.6s1,0,1.5-.2.9-.4,1.3-.7c.7-.7,1.2-1.7,1.2-3s-.5-2.3-1.2-3c-.4-.3-.8-.6-1.3-.7v-.2h0Z"/>
  <path d="M1240.1,304.3h-75.3c-2.2,0-4,1.8-4,4v47.6c0,2.2,1.8,4,4,4h25.8v4h-5.9c-2.2,0-4,1.8-4,4s1.8,4,4,4h35.7c2.2,0,4-1.8,4-4s-1.8-4-4-4h-5.9v-4h25.8c2.2,0,4-1.8,4-4v-47.6c-.2-2.3-2-4-4.2-4ZM1206.4,359.8v3.9h-7.9v-4h7.9ZM1236.1,351.8h-67.4v-39.6h67.4v39.6Z"/>
  <path d="M1283.7,292.4h-31.7c-2.2,0-4,1.8-4,4v71.3c0,2.2,1.8,4,4,4h31.7c2.2,0,4-1.8,4-4v-71.3c0-2.2-1.8-4-4-4h0ZM1279.7,340v23.7h-23.8v-23.7h0c0-6.7,5.3-12,11.9-12s11.9,5.3,11.9,11.9h0ZM1279.7,324.1c-3.3-2.5-7.4-4-11.9-4s-8.6,1.5-11.9,4v-23.8h23.8v23.8Z"/>
  <path d="M1261.9,312.2h11.9c2.2,0,4-1.8,4-4h0c0-2.2-1.8-4-4-4h-11.9c-2.2,0-4,1.8-4,4s0,0,0,0c0,2.2,1.8,4,4,4Z"/>
  <path d="M1263.9,336c0,5.3,7.9,5.3,7.9,0s-7.9-5.3-7.9,0Z"/>
  <path class="st3" d="M967.1,151.5l32.1,22.5c1,.7,2.1,1,3.2,1,1.7,0,3.4-.8,4.5-2.3,1.7-2.5,1.1-5.9-1.3-7.7l-32.1-22.5c-2.5-1.7-5.9-1.1-7.7,1.3-1.7,2.5-1.1,5.9,1.3,7.7Z"/>
  <path class="st3" d="M999.2,299.4l-32.1,22.5c-2.5,1.7-3.1,5.2-1.3,7.7,1.1,1.5,2.8,2.3,4.5,2.3s2.2-.3,3.2-1l32.1-22.5c2.5-1.7,3.1-5.2,1.3-7.7-1.7-2.5-5.2-3.1-7.7-1.3Z"/>
  <path class="st3" d="M1149,321.9l-32.2-22.5c-2.5-1.7-5.9-1.1-7.7,1.4-1.7,2.5-1.1,5.9,1.4,7.7l32.2,22.5c1,.7,2.1,1,3.1,1,1.7,0,3.4-.8,4.5-2.4,1.7-2.5,1.1-5.9-1.4-7.7h0Z"/>
  <path class="st3" d="M1142.7,142.5l-32.2,22.5c-2.5,1.7-3.1,5.2-1.4,7.7,1.1,1.5,2.8,2.4,4.5,2.4s2.2-.3,3.1-1l32.2-22.5c2.5-1.7,3.1-5.2,1.4-7.7s-5.2-3.1-7.7-1.4h0Z"/>
  <path class="st0" d="M357.3,104c22.1,0,40.1-18,40.1-40.1s-18-40.1-40.1-40.1-40.1,18-40.1,40.1,18,40.1,40.1,40.1ZM344.1,41.6c0-.7.3-1.1.9-1.3l6.8-2.8c.4-.2.8-.3,1.4-.3h11.7c.3,0,.6,0,.8.3.2.2.3.5.3.8v48.2c0,.3,0,.6-.3.8s-.5.3-.8.3h-11.4c-.3,0-.6,0-.8-.3-.2-.2-.3-.5-.3-.8v-36.6s0-.2-.1-.3h-.3l-6.8,1.4h-.3c-.6,0-.9-.3-.9-1v-8.3h0Z"/>
  <path class="st2" d="M357.3,115c25.9,0,47.4-19.4,50.6-44.4.3-2.2.5-4.4.5-6.7,0-28.2-22.9-51.1-51.1-51.1s-51.1,22.9-51.1,51.1.2,4.5.5,6.7c3.3,25,24.7,44.4,50.6,44.4ZM357.3,23.8c22.1,0,40.1,18,40.1,40.1s-18,40.1-40.1,40.1-40.1-18-40.1-40.1,18-40.1,40.1-40.1Z"/>
  <path class="st3" d="M345,50.8h.3l6.8-1.4h.3s.1.2.1.3v36.6c0,.3,0,.6.3.8.2.2.5.3.8.3h11.4c.3,0,.6,0,.8-.3s.3-.5.3-.8v-48.2c0-.3,0-.6-.3-.8-.2-.2-.5-.3-.8-.3h-11.7c-.5,0-1,0-1.4.3l-6.8,2.8c-.6.2-.9.6-.9,1.3v8.3c0,.7.3,1,.9,1h0Z"/>
  <path class="st0" d="M1058.3,104c22.1,0,40.1-18,40.1-40.1s-18-40.1-40.1-40.1-40.1,18-40.1,40.1,18,40.1,40.1,40.1ZM1041.8,50.1c.2-2.7,1.1-5.1,2.8-7.2,1.7-2,3.8-3.6,6.6-4.7,2.7-1.1,5.7-1.7,9-1.7s6.9.7,9.7,2.1c2.8,1.4,4.9,3.2,6.4,5.5s2.2,4.9,2.2,7.7-.5,3.9-1.4,5.8c-.9,1.9-2.3,3.9-4.1,6-1.9,2.2-5,5.1-9.2,8.9l-3.1,2.9s-.2.2,0,.3h17.4c.3,0,.6,0,.8.3.2.2.3.5.3.8v9.4c0,.3,0,.6-.3.8s-.5.3-.8.3h-34.6c-.3,0-.6,0-.8-.3-.2-.2-.3-.5-.3-.8v-8.9c0-.5.2-1,.6-1.3,2.2-1.9,4.3-3.9,6.5-6.1s3.6-3.6,4.1-4.2l4.8-4.8c4.3-4.2,6.5-7.2,6.5-9.1s-.4-2.1-1.3-2.8-2-1.1-3.3-1.1-2.5.4-3.4,1.1c-.9.7-1.3,1.7-1.3,3v1.4c0,.3,0,.6-.3.8-.2.2-.5.3-.8.3h-11.5c-.3,0-.6,0-.8-.3-.2-.2-.3-.5-.3-.8v-3.6.2h0Z"/>
  <path class="st2" d="M1058.3,115c25.9,0,47.4-19.4,50.6-44.4.3-2.2.5-4.4.5-6.7,0-28.2-22.9-51.1-51.1-51.1s-51.1,22.9-51.1,51.1.2,4.5.5,6.7c3.3,25,24.7,44.4,50.6,44.4ZM1058.3,23.8c22.1,0,40.1,18,40.1,40.1s-18,40.1-40.1,40.1-40.1-18-40.1-40.1,18-40.1,40.1-40.1Z"/>
  <path class="st3" d="M1042.8,54.8h11.5c.3,0,.6,0,.8-.3.2-.2.3-.5.3-.8v-1.4c0-1.2.4-2.2,1.3-3,.9-.7,2-1.1,3.4-1.1s2.4.4,3.3,1.1,1.3,1.7,1.3,2.8c0,1.8-2.2,4.8-6.5,9.1l-4.8,4.8c-.6.6-2,2-4.1,4.2-2.2,2.2-4.4,4.2-6.5,6.1-.4.3-.6.8-.6,1.3v8.9c0,.3,0,.6.3.8.2.2.5.3.8.3h34.6c.3,0,.6,0,.8-.3s.3-.5.3-.8v-9.4c0-.3,0-.6-.3-.8-.2-.2-.5-.3-.8-.3h-17.4v-.3l3.1-2.9c4.2-3.8,7.3-6.8,9.2-8.9,1.8-2.1,3.2-4.1,4.1-6s1.4-3.9,1.4-5.8-.7-5.3-2.2-7.7c-1.5-2.3-3.6-4.2-6.4-5.5-2.8-1.4-6-2.1-9.7-2.1s-6.3.6-9,1.7c-2.7,1.1-4.9,2.7-6.6,4.7s-2.6,4.4-2.8,7.2v3.6c0,.3,0,.6.3.8.2.2.5.3.8.3v-.2h0Z"/>
  <path class="st0" d="M357.3,774.8c-22.1,0-40.1,18-40.1,40.1s18,40.1,40.1,40.1,40.1-18,40.1-40.1-18-40.1-40.1-40.1ZM373.9,832.8c-1.3,3.2-3.4,5.7-6.4,7.5s-6.4,2.8-10.4,2.8-7.3-.9-10.3-2.8c-3-1.9-5.2-4.4-6.6-7.6-.8-1.8-1.3-3.9-1.4-6.3,0-.7.4-1.1,1.1-1.1h11.5c.7,0,1.1.3,1.2,1,.2,1.4.5,2.5.9,3.2.8,1.3,1.9,2,3.5,2s2.8-.7,3.6-2c.7-1.2,1.1-2.7,1.1-4.5s-.3-3.3-1-4.5c-.9-1.4-2.1-2.2-3.7-2.2s-1.2.2-1.8.6c-.6.4-1.5,1-2.7,1.9-.2.2-.4.3-.7.3s-.6-.2-.8-.5l-5.7-8.1c-.1-.2-.2-.5-.2-.7s.2-.6.5-.8l10.5-6.8c.1,0,.2,0,.1-.3,0,0-.1-.2-.3-.2h-14.5c-.3,0-.6,0-.8-.3-.2-.2-.3-.5-.3-.8v-9.4c0-.3,0-.6.3-.8.2-.2.5-.3.8-.3h32.1c.3,0,.6,0,.8.3.2.2.3.5.3.8v10.6c0,.6-.2,1.1-.6,1.4l-7.8,5.4c-.2.2-.2.4.1.5,3.6,1.1,6.1,3.5,7.7,7.2,1,2.2,1.4,4.6,1.4,7.2s-.5,4.9-1.5,7.3h0Z"/>
  <path class="st2" d="M357.3,763.8c-28.2,0-51.1,22.9-51.1,51.1s22.9,51.1,51.1,51.1,51.1-22.9,51.1-51.1-22.9-51.1-51.1-51.1ZM357.3,855c-22.1,0-40.1-18-40.1-40.1s18-40.1,40.1-40.1,40.1,18,40.1,40.1-18,40.1-40.1,40.1Z"/>
  <path class="st3" d="M366.3,811.1c-.3,0-.4-.3-.1-.5l7.8-5.4c.4-.3.6-.7.6-1.4v-10.6c0-.3,0-.6-.3-.8-.2-.2-.5-.3-.8-.3h-32.1c-.3,0-.6,0-.8.3-.2.2-.3.5-.3.8v9.4c0,.3,0,.6.3.8.2.2.5.3.8.3h14.5c.1,0,.2,0,.3.2,0,0,0,.2-.1.3l-10.5,6.8c-.3.2-.5.5-.5.8s0,.5.2.7l5.7,8.1c.2.3.5.5.8.5s.5,0,.7-.3c1.2-.9,2.1-1.5,2.7-1.9s1.3-.6,1.8-.6c1.6,0,2.9.7,3.7,2.2.7,1.2,1,2.8,1,4.5s-.4,3.2-1.1,4.5c-.8,1.3-2,2-3.6,2s-2.8-.7-3.5-2c-.4-.8-.7-1.8-.9-3.2,0-.7-.5-1-1.2-1h-11.5c-.7,0-1.1.4-1.1,1.1.1,2.4.6,4.6,1.4,6.3,1.4,3.2,3.6,5.8,6.6,7.6,3,1.9,6.4,2.8,10.3,2.8s7.4-.9,10.4-2.8c3-1.8,5.1-4.4,6.4-7.5,1-2.4,1.5-4.9,1.5-7.3s-.5-5-1.4-7.2c-1.6-3.7-4.2-6.1-7.7-7.2h0Z"/>
  <path class="st0" d="M1058.3,774.8c-22.1,0-40.1,18-40.1,40.1s18,40.1,40.1,40.1,40.1-18,40.1-40.1-18-40.1-40.1-40.1ZM1077.7,827.2c0,.3,0,.6-.3.8s-.5.3-.8.3h-3c-.2,0-.4,0-.4.4v10.9c0,.3,0,.6-.3.8s-.5.3-.8.3h-11.4c-.3,0-.6,0-.8-.3-.2-.2-.3-.5-.3-.8v-10.9c0-.2,0-.4-.4-.4h-22.5c-.3,0-.6,0-.8-.3-.2-.2-.3-.5-.3-.8v-7.6c0-.5,0-.9.3-1.4l11.7-27.2c.2-.5.6-.8,1.2-.8h12.2c.4,0,.6,0,.8.4v.9l-10.4,24.4v.3h7.8c.2,0,.4,0,.4-.4v-7.1c0-.3,0-.6.3-.8s.5-.3.8-.3h11.4c.3,0,.6,0,.8.3.2.2.3.5.3.8v7.1c0,.2,0,.4.4.4h3c.3,0,.6,0,.8.3.2.2.3.5.3.8v9.8h0Z"/>
  <path class="st2" d="M1058.3,763.8c-28.2,0-51.1,22.9-51.1,51.1s22.9,51.1,51.1,51.1,51.1-22.9,51.1-51.1-22.9-51.1-51.1-51.1ZM1058.3,855c-22.1,0-40.1-18-40.1-40.1s18-40.1,40.1-40.1,40.1,18,40.1,40.1-18,40.1-40.1,40.1Z"/>
  <path class="st3" d="M1076.6,816.3h-3c-.2,0-.4,0-.4-.4v-7.1c0-.3,0-.6-.3-.8-.2-.2-.5-.3-.8-.3h-11.4c-.3,0-.6,0-.8.3s-.3.5-.3.8v7.1c0,.2,0,.4-.4.4h-7.8v-.3l10.4-24.4v-.9c0-.2-.4-.4-.8-.4h-12.2c-.6,0-1,.3-1.2.8l-11.7,27.2c-.2.4-.3.9-.3,1.4v7.6c0,.3,0,.6.3.8.2.2.5.3.8.3h22.5c.2,0,.4,0,.4.4v10.9c0,.3,0,.6.3.8.2.2.5.3.8.3h11.4c.3,0,.6,0,.8-.3s.3-.5.3-.8v-10.9c0-.2,0-.4.4-.4h3c.3,0,.6,0,.8-.3s.3-.5.3-.8v-9.8c0-.3,0-.6-.3-.8-.2-.2-.5-.3-.8-.3h0Z"/>
  <path class="st3" d="M197.6,305.3c24.1,0,45.5-11.7,58.8-29.8,8.9-12.1,14.2-27,14.2-43.2s-5.3-31.1-14.2-43.2c-13.3-18.1-34.7-29.8-58.8-29.8-40.3,0-73,32.7-73,73s32.7,73,73,73h0ZM197.6,170.3c34.2,0,62,27.8,62,62s-7.1,32.9-18.5,44.1h0v-.7c0-.3,0-.5-.1-.8-2.5-9.9-7.9-18.1-15.6-24.2-2.6-2.1-5.8-1.9-8.5,0-11.7,8.2-27.4,7.9-39-.4-2.2-1.6-5.4-1.4-7.6.2-8.1,6.3-13.8,15-16.1,25.2v.8c-11.4-11.2-18.5-26.9-18.5-44.1,0-34.2,27.8-62,62-62h0Z"/>
  <path class="st3" d="M202,247.3c13.6-2.4,22.7-15.4,20.3-29.1-2.4-13.3-15-22.8-29.1-20.3-14.2,2.5-22.8,16-20.2,29.5,2.6,13.4,15.6,22.2,29,19.8h0Z"/>
  <path class="st3" d="M1291.6,653.4v-1.1c0-.8,0-1.6-.2-2.3v-1.2c0-.7-.2-1.5-.3-2.2,0-.4,0-.8-.2-1.2,0-.9-.3-1.8-.5-2.7,0-.3,0-.5-.2-.8-.2-1-.4-1.9-.7-2.9,0-.4-.2-.9-.4-1.3-.2-.6-.3-1.2-.5-1.8,0-.5-.3-1-.5-1.5s-.4-1.1-.6-1.6-.3-1-.5-1.5-.4-1-.6-1.6c-.4-.9-.8-1.8-1.2-2.7-.2-.4-.4-.9-.6-1.3-.3-.6-.5-1.1-.8-1.7-.2-.4-.4-.8-.6-1.1-.3-.6-.6-1.1-.9-1.7-.2-.3-.4-.7-.6-1-.3-.6-.7-1.1-1-1.7-.2-.3-.3-.5-.5-.8-.9-1.3-1.7-2.6-2.7-3.9h0c-.3-.5-.6-.9-.9-1.3s-.6-.8-.9-1.1c-.5-.6-.9-1.1-1.4-1.7-.3-.4-.7-.8-1-1.2s-.7-.7-1-1.1c-.5-.6-1.1-1.1-1.6-1.7-.3-.3-.7-.7-1-1-.4-.4-.8-.8-1.2-1.1-.5-.4-.9-.8-1.4-1.3-.5-.4-.9-.8-1.4-1.2-.3-.3-.7-.6-1-.8-.6-.5-1.3-1-2-1.5-.3-.2-.7-.5-1-.7-.5-.4-1.1-.8-1.6-1.2-.4-.3-.7-.5-1.1-.8-.6-.4-1.3-.8-1.9-1.2-.3-.2-.6-.4-.9-.6-.8-.5-1.5-.9-2.3-1.3-.3-.2-.6-.3-.9-.5-.7-.4-1.4-.8-2.2-1.1-.2,0-.5-.2-.7-.4-.8-.4-1.6-.8-2.5-1.1-.3,0-.5-.2-.8-.3-.9-.4-1.8-.7-2.7-1.1-.2,0-.5-.2-.7-.3-.9-.3-1.8-.6-2.7-.9h-.3c-1-.3-2-.6-3-.8-.2,0-.4,0-.7-.2-1-.3-2-.5-3-.7h-.6c-1-.2-2.1-.4-3.2-.6h0c-1.1-.2-2.2-.3-3.3-.4h-.6c-1.1,0-2.1-.2-3.2-.2h-4c-1.1,0,0,0,0,0h-3.9c-1.1,0-2.1,0-3.2.2h-.7c-1.1,0-2.1.2-3.1.4h-.5c-1,.2-1.9.3-2.9.5h-.6c-1,.2-2,.4-2.9.7-.3,0-.5,0-.8.2-.9.2-1.9.5-2.8.8-.3,0-.5.2-.8.3-.8.3-1.6.5-2.4.8-.3,0-.6.2-.9.3-.8.3-1.6.6-2.3.9-.3,0-.7.3-1,.4-.8.3-1.6.7-2.4,1.1-.4.2-.7.4-1.1.5l-1.8.9c-.5.3-1,.5-1.5.8s-1,.5-1.4.8c-.5.3-1,.6-1.5.9-.5.3-1.1.7-1.6,1-.4.3-.9.6-1.3.9-.4.3-.8.6-1.2.8-.7.5-1.3,1-1.9,1.5-.3.2-.6.4-.8.7-.8.6-1.5,1.2-2.2,1.8-.2.2-.4.4-.7.6-1.4,1.3-2.8,2.6-4.1,4,0,0-.3.3-.4.4-.8.8-1.5,1.6-2.2,2.5,0,0-.3.3-.4.4-.8,1-1.7,2-2.4,3-.5.7-1.1,1.4-1.6,2.2,0,0-.2.2-.2.3-.5.7-1,1.4-1.4,2.1,0,0-.2.3-.2.4-1.9,3-3.7,6.2-5.1,9.5,0,.3-.2.5-.4.8-.3.6-.5,1.3-.8,1.9,0,.4-.3.7-.4,1.1-.2.6-.5,1.2-.7,1.8-.2.4-.3.9-.4,1.3-.2.6-.4,1.1-.6,1.7-.2.6-.3,1.1-.5,1.7-.2.7-.4,1.4-.6,2.1-.2.8-.4,1.6-.5,2.4,0,.4-.2.9-.3,1.3,0,.7-.3,1.3-.4,2,0,.5,0,.9-.2,1.4,0,.7-.2,1.4-.3,2.1v1.3c0,.8,0,1.5-.2,2.3v4.6h0v4.6c0,.8,0,1.5.2,2.3v1.3c0,.7.2,1.4.3,2.1,0,.5,0,.9.2,1.4,0,.7.2,1.4.4,2,0,.4.2.9.3,1.3.2.8.4,1.6.6,2.4.2.7.4,1.4.5,2,.2.6.3,1.2.5,1.7.2.6.4,1.1.6,1.7,0,.5.3.9.5,1.4.2.6.4,1.2.7,1.8,0,.4.3.8.5,1.1.3.6.5,1.3.8,1.9,0,.3.3.6.4.8,1.5,3.3,3.2,6.4,5.1,9.4,0,0,.2.3.3.4.5.7.9,1.4,1.4,2.1,0,0,.2.3.3.4.5.7,1,1.4,1.6,2.1h0c.8,1,1.6,2,2.4,3,0,.2.3.3.4.5.7.8,1.4,1.6,2.2,2.4.2.2.3.3.5.5,1.3,1.4,2.7,2.7,4.1,3.9.2.2.5.4.7.6.7.6,1.4,1.2,2.1,1.7.3.2.6.5.9.7.6.5,1.2.9,1.8,1.3.4.3.9.6,1.3.9.4.3.8.6,1.3.9.6.4,1.2.8,1.8,1.2.4.3.9.5,1.3.8.5.3,1,.6,1.5.9.5.3.9.5,1.4.7.6.3,1.3.7,1.9,1,.3.2.7.3,1,.5.8.4,1.6.7,2.4,1.1.3,0,.6.3.9.4.8.3,1.6.7,2.4,1,.2,0,.5.2.7.3.8.3,1.6.6,2.5.8.2,0,.5.2.7.2.9.3,1.9.6,2.8.8.2,0,.5,0,.8.2,1,.2,2,.5,3,.7h.5c1,.2,2,.4,3,.5h.4c1.1.2,2.1.3,3.2.4h.6c1.1,0,2.1.2,3.2.2h3.9c1.1,0,0,0,0,0h4c1.1,0,2.1,0,3.2-.2h.7c1.1,0,2.1-.2,3.2-.4h.2c1-.2,2-.3,3-.5h.7c1-.2,2-.4,3-.7.2,0,.5,0,.7-.2,1-.3,1.9-.5,2.9-.8h.5c.9-.3,1.7-.6,2.6-.9.3,0,.5-.2.8-.3.9-.3,1.8-.7,2.6-1,.3,0,.6-.2.9-.4.8-.3,1.6-.7,2.4-1.1.3,0,.6-.3.9-.4.7-.3,1.4-.7,2.1-1.1.3-.2.6-.3.9-.5.8-.4,1.5-.9,2.3-1.3.3-.2.7-.4,1-.6.6-.4,1.2-.8,1.8-1.2.4-.3.8-.6,1.3-.9.5-.4,1-.7,1.5-1.1.3-.3.7-.5,1-.8.6-.5,1.3-1,1.9-1.5.4-.3.7-.6,1.1-.9.4-.4.9-.8,1.3-1.1.5-.4,1-.9,1.5-1.4s.7-.7,1.1-1.1c.4-.3.7-.7,1-1,.5-.5,1.1-1.1,1.6-1.7.3-.4.7-.8,1-1.1.3-.4.7-.7,1-1.1.5-.6,1-1.2,1.5-1.8.3-.4.6-.7.9-1.1.3-.4.6-.8.9-1.2,1-1.3,1.9-2.7,2.8-4.1,0-.2.3-.5.4-.7.4-.6.7-1.2,1-1.7.2-.3.4-.7.6-1,.3-.6.6-1.1.9-1.7.2-.4.4-.7.6-1.1.3-.6.6-1.1.8-1.7.2-.4.4-.8.5-1.2.4-1,.8-1.9,1.2-2.9s.4-1,.6-1.5.4-1,.5-1.5c.2-.5.4-1.1.5-1.6.2-.5.3-1,.5-1.5.2-.6.3-1.2.5-1.8,0-.4.2-.9.4-1.3.2-.9.5-1.9.7-2.8,0-.3,0-.6.2-.9.2-.9.3-1.8.5-2.7,0-.4,0-.8.2-1.2,0-.7.2-1.5.3-2.2v-1.2c0-.8,0-1.5.2-2.3v-4.5h0v-3.4l-.4.4v-.2h0ZM1262.2,700.9h0v-1.5c-2.5-9.9-7.9-18.1-15.6-24.2-2.6-2.1-5.8-1.9-8.5,0-11.7,8.2-27.4,7.9-39-.4-2.2-1.6-5.4-1.4-7.6.2-8.1,6.3-13.8,15-16.1,25.2v.8c-11.4-11.2-18.5-26.9-18.5-44.1,0-34.2,27.8-62,62-62s62,27.8,62,62-7.1,32.9-18.5,44.1h-.2Z"/>
  <path class="st3" d="M1214.3,622.4c-14.2,2.5-22.8,16-20.2,29.5,2.6,13.4,15.6,22.2,29,19.8,13.6-2.4,22.7-15.4,20.3-29.1-2.4-13.3-15-22.8-29.1-20.3h0Z"/>
</svg>