<?xml version="1.0" encoding="UTF-8"?>
<svg id="Camada_1" xmlns="http://www.w3.org/2000/svg" version="1.1" viewBox="0 0 1074 1297">
  <!-- Generator: Adobe Illustrator 30.2.1, SVG Export Plug-In . SVG Version: 2.1.1 Build 1)  -->
  <defs>
    <style>
      .st0 {
        fill: #4d1c5b;
      }

      .st1 {
        fill: none;
        stroke: #d1d1d1;
        stroke-dasharray: 3 15;
        stroke-linecap: round;
        stroke-linejoin: round;
        stroke-width: 6px;
      }

      .st2 {
        fill: #ee6f22;
      }

      .st3 {
        fill: #d1d1d1;
      }

      .st4 {
        fill: #8b4da0;
      }
    </style>
  </defs>
  <path class="st3" d="M222.4,1203.4c-1.7,0-3-1.3-3-3v-3c0-1.7,1.3-3,3-3s3,1.3,3,3v3c0,1.7-1.3,3-3,3ZM222.4,1185.4c-1.7,0-3-1.3-3-3v-3c0-1.7,1.3-3,3-3s3,1.3,3,3v3c0,1.7-1.3,3-3,3ZM222.4,1167.4c-1.7,0-3-1.3-3-3v-3c0-1.7,1.3-3,3-3s3,1.3,3,3v3c0,1.7-1.3,3-3,3ZM222.4,1149.4c-1.7,0-3-1.3-3-3v-3c0-1.7,1.3-3,3-3s3,1.3,3,3v3c0,1.7-1.3,3-3,3ZM222.4,1131.4c-1.7,0-3-1.3-3-3v-3c0-1.7,1.3-3,3-3s3,1.3,3,3v3c0,1.7-1.3,3-3,3ZM222.4,1113.4c-1.7,0-3-1.3-3-3v-3c0-1.7,1.3-3,3-3s3,1.3,3,3v3c0,1.7-1.3,3-3,3ZM222.4,1095.4c-1.7,0-3-1.3-3-3v-3c0-1.7,1.3-3,3-3s3,1.3,3,3v3c0,1.7-1.3,3-3,3ZM222.4,1077.4c-1.7,0-3-1.3-3-3v-3c0-1.7,1.3-3,3-3s3,1.3,3,3v3c0,1.7-1.3,3-3,3ZM222.4,1059.4c-1.7,0-3-1.3-3-3v-3c0-1.7,1.3-3,3-3s3,1.3,3,3v3c0,1.7-1.3,3-3,3ZM222.4,1041.4c-1.7,0-3-1.3-3-3v-3c0-1.7,1.3-3,3-3s3,1.3,3,3v3c0,1.7-1.3,3-3,3ZM222.4,1023.4c-1.7,0-3-1.3-3-3v-3c0-1.7,1.3-3,3-3s3,1.3,3,3v3c0,1.7-1.3,3-3,3ZM222.4,1005.4c-1.7,0-3-1.3-3-3v-3c0-1.7,1.3-3,3-3s3,1.3,3,3v3c0,1.7-1.3,3-3,3ZM222.4,987.4c-1.7,0-3-1.3-3-3v-3c0-1.7,1.3-3,3-3s3,1.3,3,3v3c0,1.7-1.3,3-3,3ZM222.4,969.4c-1.7,0-3-1.3-3-3v-3c0-1.7,1.3-3,3-3s3,1.3,3,3v3c0,1.7-1.3,3-3,3ZM222.4,951.4c-1.7,0-3-1.3-3-3v-3c0-1.7,1.3-3,3-3s3,1.3,3,3v3c0,1.7-1.3,3-3,3ZM222.4,933.4c-1.7,0-3-1.3-3-3v-3c0-1.7,1.3-3,3-3s3,1.3,3,3v3c0,1.7-1.3,3-3,3ZM222.4,915.4c-1.7,0-3-1.3-3-3v-3c0-1.7,1.3-3,3-3s3,1.3,3,3v3c0,1.7-1.3,3-3,3ZM222.4,897.4c-1.7,0-3-1.3-3-3v-3c0-1.7,1.3-3,3-3s3,1.3,3,3v3c0,1.7-1.3,3-3,3ZM222.4,879.4c-1.7,0-3-1.3-3-3v-3c0-1.7,1.3-3,3-3s3,1.3,3,3v3c0,1.7-1.3,3-3,3ZM222.4,861.4c-1.7,0-3-1.3-3-3v-3c0-1.7,1.3-3,3-3s3,1.3,3,3v3c0,1.7-1.3,3-3,3ZM222.4,843.4c-1.7,0-3-1.3-3-3v-3c0-1.7,1.3-3,3-3s3,1.3,3,3v3c0,1.7-1.3,3-3,3ZM222.4,825.4c-1.7,0-3-1.3-3-3v-3c0-1.7,1.3-3,3-3s3,1.3,3,3v3c0,1.7-1.3,3-3,3ZM222.4,807.4c-1.7,0-3-1.3-3-3v-3c0-1.7,1.3-3,3-3s3,1.3,3,3v3c0,1.7-1.3,3-3,3ZM222.4,789.4c-1.7,0-3-1.3-3-3v-3c0-1.7,1.3-3,3-3s3,1.3,3,3v3c0,1.7-1.3,3-3,3ZM222.4,771.4c-1.7,0-3-1.3-3-3v-3c0-1.7,1.3-3,3-3s3,1.3,3,3v3c0,1.7-1.3,3-3,3ZM222.4,753.4c-1.7,0-3-1.3-3-3v-3c0-1.7,1.3-3,3-3s3,1.3,3,3v3c0,1.7-1.3,3-3,3ZM222.4,735.4c-1.7,0-3-1.3-3-3v-3c0-1.7,1.3-3,3-3s3,1.3,3,3v3c0,1.7-1.3,3-3,3ZM222.4,717.4c-1.7,0-3-1.3-3-3v-3c0-1.7,1.3-3,3-3s3,1.3,3,3v3c0,1.7-1.3,3-3,3ZM222.4,699.4c-1.7,0-3-1.3-3-3v-3c0-1.7,1.3-3,3-3s3,1.3,3,3v3c0,1.7-1.3,3-3,3ZM222.4,681.4c-1.7,0-3-1.3-3-3v-3c0-1.7,1.3-3,3-3s3,1.3,3,3v3c0,1.7-1.3,3-3,3ZM222.4,663.4c-1.7,0-3-1.3-3-3v-3c0-1.7,1.3-3,3-3s3,1.3,3,3v3c0,1.7-1.3,3-3,3ZM222.4,645.4c-1.7,0-3-1.3-3-3v-3c0-1.7,1.3-3,3-3s3,1.3,3,3v3c0,1.7-1.3,3-3,3ZM222.4,627.4c-1.7,0-3-1.3-3-3v-3c0-1.7,1.3-3,3-3s3,1.3,3,3v3c0,1.7-1.3,3-3,3ZM222.4,609.4c-1.7,0-3-1.3-3-3v-3c0-1.7,1.3-3,3-3s3,1.3,3,3v3c0,1.7-1.3,3-3,3ZM222.4,591.4c-1.7,0-3-1.3-3-3v-3c0-1.7,1.3-3,3-3s3,1.3,3,3v3c0,1.7-1.3,3-3,3ZM222.4,573.4c-1.7,0-3-1.3-3-3v-3c0-1.7,1.3-3,3-3s3,1.3,3,3v3c0,1.7-1.3,3-3,3ZM222.4,555.4c-1.7,0-3-1.3-3-3v-3c0-1.7,1.3-3,3-3s3,1.3,3,3v3c0,1.7-1.3,3-3,3ZM222.4,537.4c-1.7,0-3-1.3-3-3v-3c0-1.7,1.3-3,3-3s3,1.3,3,3v3c0,1.7-1.3,3-3,3ZM222.4,519.4c-1.7,0-3-1.3-3-3v-3c0-1.7,1.3-3,3-3s3,1.3,3,3v3c0,1.7-1.3,3-3,3ZM222.4,501.4c-1.7,0-3-1.3-3-3v-3c0-1.7,1.3-3,3-3s3,1.3,3,3v3c0,1.7-1.3,3-3,3ZM222.4,483.4c-1.7,0-3-1.3-3-3v-3c0-1.7,1.3-3,3-3s3,1.3,3,3v3c0,1.7-1.3,3-3,3ZM222.4,465.4c-1.7,0-3-1.3-3-3v-3c0-1.7,1.3-3,3-3s3,1.3,3,3v3c0,1.7-1.3,3-3,3ZM222.4,447.4c-1.7,0-3-1.3-3-3v-3c0-1.7,1.3-3,3-3s3,1.3,3,3v3c0,1.7-1.3,3-3,3ZM222.4,429.4c-1.7,0-3-1.3-3-3v-3c0-1.7,1.3-3,3-3s3,1.3,3,3v3c0,1.7-1.3,3-3,3ZM222.4,411.4c-1.7,0-3-1.3-3-3v-3c0-1.7,1.3-3,3-3s3,1.3,3,3v3c0,1.7-1.3,3-3,3ZM222.4,393.4c-1.7,0-3-1.3-3-3v-3c0-1.7,1.3-3,3-3s3,1.3,3,3v3c0,1.7-1.3,3-3,3ZM222.4,375.4c-1.7,0-3-1.3-3-3v-3c0-1.7,1.3-3,3-3s3,1.3,3,3v3c0,1.7-1.3,3-3,3ZM222.4,357.4c-1.7,0-3-1.3-3-3v-3c0-1.7,1.3-3,3-3s3,1.3,3,3v3c0,1.7-1.3,3-3,3ZM222.4,339.4c-1.7,0-3-1.3-3-3v-3c0-1.7,1.3-3,3-3s3,1.3,3,3v3c0,1.7-1.3,3-3,3ZM222.4,321.4c-1.7,0-3-1.3-3-3v-3c0-1.7,1.3-3,3-3s3,1.3,3,3v3c0,1.7-1.3,3-3,3ZM222.4,303.4c-1.7,0-3-1.3-3-3v-3c0-1.7,1.3-3,3-3s3,1.3,3,3v3c0,1.7-1.3,3-3,3ZM222.4,285.4c-1.7,0-3-1.3-3-3v-3c0-1.7,1.3-3,3-3s3,1.3,3,3v3c0,1.7-1.3,3-3,3ZM222.4,267.4c-1.7,0-3-1.3-3-3v-3c0-1.7,1.3-3,3-3s3,1.3,3,3v3c0,1.7-1.3,3-3,3ZM222.4,249.4c-1.7,0-3-1.3-3-3v-3c0-1.7,1.3-3,3-3s3,1.3,3,3v3c0,1.7-1.3,3-3,3ZM222.4,231.4c-1.7,0-3-1.3-3-3v-3c0-1.7,1.3-3,3-3s3,1.3,3,3v3c0,1.7-1.3,3-3,3ZM222.4,213.4c-1.7,0-3-1.3-3-3v-3c0-1.7,1.3-3,3-3s3,1.3,3,3v3c0,1.7-1.3,3-3,3ZM222.4,195.4c-1.7,0-3-1.3-3-3v-3c0-1.7,1.3-3,3-3s3,1.3,3,3v3c0,1.7-1.3,3-3,3ZM222.4,177.4c-1.7,0-3-1.3-3-3v-3c0-1.7,1.3-3,3-3s3,1.3,3,3v3c0,1.7-1.3,3-3,3ZM222.4,159.4c-1.7,0-3-1.3-3-3v-3c0-1.7,1.3-3,3-3s3,1.3,3,3v3c0,1.7-1.3,3-3,3ZM222.4,141.4c-1.7,0-3-1.3-3-3v-3c0-1.7,1.3-3,3-3s3,1.3,3,3v3c0,1.7-1.3,3-3,3ZM222.4,123.4c-1.7,0-3-1.3-3-3v-3c0-1.7,1.3-3,3-3s3,1.3,3,3v3c0,1.7-1.3,3-3,3Z"/>
  <path class="st3" d="M351.7,1203.4c-1.7,0-3-1.3-3-3v-3c0-1.7,1.3-3,3-3s3,1.3,3,3v3c0,1.7-1.3,3-3,3ZM351.7,1185.4c-1.7,0-3-1.3-3-3v-3c0-1.7,1.3-3,3-3s3,1.3,3,3v3c0,1.7-1.3,3-3,3ZM351.7,1167.4c-1.7,0-3-1.3-3-3v-3c0-1.7,1.3-3,3-3s3,1.3,3,3v3c0,1.7-1.3,3-3,3ZM351.7,1149.4c-1.7,0-3-1.3-3-3v-3c0-1.7,1.3-3,3-3s3,1.3,3,3v3c0,1.7-1.3,3-3,3ZM351.7,1131.4c-1.7,0-3-1.3-3-3v-3c0-1.7,1.3-3,3-3s3,1.3,3,3v3c0,1.7-1.3,3-3,3ZM351.7,1113.4c-1.7,0-3-1.3-3-3v-3c0-1.7,1.3-3,3-3s3,1.3,3,3v3c0,1.7-1.3,3-3,3ZM351.7,1095.4c-1.7,0-3-1.3-3-3v-3c0-1.7,1.3-3,3-3s3,1.3,3,3v3c0,1.7-1.3,3-3,3ZM351.7,1077.4c-1.7,0-3-1.3-3-3v-3c0-1.7,1.3-3,3-3s3,1.3,3,3v3c0,1.7-1.3,3-3,3ZM351.7,1059.4c-1.7,0-3-1.3-3-3v-3c0-1.7,1.3-3,3-3s3,1.3,3,3v3c0,1.7-1.3,3-3,3ZM351.7,1041.4c-1.7,0-3-1.3-3-3v-3c0-1.7,1.3-3,3-3s3,1.3,3,3v3c0,1.7-1.3,3-3,3ZM351.7,1023.4c-1.7,0-3-1.3-3-3v-3c0-1.7,1.3-3,3-3s3,1.3,3,3v3c0,1.7-1.3,3-3,3ZM351.7,1005.4c-1.7,0-3-1.3-3-3v-3c0-1.7,1.3-3,3-3s3,1.3,3,3v3c0,1.7-1.3,3-3,3ZM351.7,987.4c-1.7,0-3-1.3-3-3v-3c0-1.7,1.3-3,3-3s3,1.3,3,3v3c0,1.7-1.3,3-3,3ZM351.7,969.4c-1.7,0-3-1.3-3-3v-3c0-1.7,1.3-3,3-3s3,1.3,3,3v3c0,1.7-1.3,3-3,3ZM351.7,951.4c-1.7,0-3-1.3-3-3v-3c0-1.7,1.3-3,3-3s3,1.3,3,3v3c0,1.7-1.3,3-3,3ZM351.7,933.4c-1.7,0-3-1.3-3-3v-3c0-1.7,1.3-3,3-3s3,1.3,3,3v3c0,1.7-1.3,3-3,3ZM351.7,915.4c-1.7,0-3-1.3-3-3v-3c0-1.7,1.3-3,3-3s3,1.3,3,3v3c0,1.7-1.3,3-3,3ZM351.7,897.4c-1.7,0-3-1.3-3-3v-3c0-1.7,1.3-3,3-3s3,1.3,3,3v3c0,1.7-1.3,3-3,3ZM351.7,879.4c-1.7,0-3-1.3-3-3v-3c0-1.7,1.3-3,3-3s3,1.3,3,3v3c0,1.7-1.3,3-3,3ZM351.7,861.4c-1.7,0-3-1.3-3-3v-3c0-1.7,1.3-3,3-3s3,1.3,3,3v3c0,1.7-1.3,3-3,3ZM351.7,843.4c-1.7,0-3-1.3-3-3v-3c0-1.7,1.3-3,3-3s3,1.3,3,3v3c0,1.7-1.3,3-3,3ZM351.7,825.4c-1.7,0-3-1.3-3-3v-3c0-1.7,1.3-3,3-3s3,1.3,3,3v3c0,1.7-1.3,3-3,3ZM351.7,807.4c-1.7,0-3-1.3-3-3v-3c0-1.7,1.3-3,3-3s3,1.3,3,3v3c0,1.7-1.3,3-3,3ZM351.7,789.4c-1.7,0-3-1.3-3-3v-3c0-1.7,1.3-3,3-3s3,1.3,3,3v3c0,1.7-1.3,3-3,3ZM351.7,771.4c-1.7,0-3-1.3-3-3v-3c0-1.7,1.3-3,3-3s3,1.3,3,3v3c0,1.7-1.3,3-3,3ZM351.7,753.4c-1.7,0-3-1.3-3-3v-3c0-1.7,1.3-3,3-3s3,1.3,3,3v3c0,1.7-1.3,3-3,3ZM351.7,735.4c-1.7,0-3-1.3-3-3v-3c0-1.7,1.3-3,3-3s3,1.3,3,3v3c0,1.7-1.3,3-3,3ZM351.7,717.4c-1.7,0-3-1.3-3-3v-3c0-1.7,1.3-3,3-3s3,1.3,3,3v3c0,1.7-1.3,3-3,3ZM351.7,699.4c-1.7,0-3-1.3-3-3v-3c0-1.7,1.3-3,3-3s3,1.3,3,3v3c0,1.7-1.3,3-3,3ZM351.7,681.4c-1.7,0-3-1.3-3-3v-3c0-1.7,1.3-3,3-3s3,1.3,3,3v3c0,1.7-1.3,3-3,3ZM351.7,663.4c-1.7,0-3-1.3-3-3v-3c0-1.7,1.3-3,3-3s3,1.3,3,3v3c0,1.7-1.3,3-3,3ZM351.7,645.4c-1.7,0-3-1.3-3-3v-3c0-1.7,1.3-3,3-3s3,1.3,3,3v3c0,1.7-1.3,3-3,3ZM351.7,627.4c-1.7,0-3-1.3-3-3v-3c0-1.7,1.3-3,3-3s3,1.3,3,3v3c0,1.7-1.3,3-3,3ZM351.7,609.4c-1.7,0-3-1.3-3-3v-3c0-1.7,1.3-3,3-3s3,1.3,3,3v3c0,1.7-1.3,3-3,3ZM351.7,591.4c-1.7,0-3-1.3-3-3v-3c0-1.7,1.3-3,3-3s3,1.3,3,3v3c0,1.7-1.3,3-3,3ZM351.7,573.4c-1.7,0-3-1.3-3-3v-3c0-1.7,1.3-3,3-3s3,1.3,3,3v3c0,1.7-1.3,3-3,3ZM351.7,555.4c-1.7,0-3-1.3-3-3v-3c0-1.7,1.3-3,3-3s3,1.3,3,3v3c0,1.7-1.3,3-3,3ZM351.7,537.4c-1.7,0-3-1.3-3-3v-3c0-1.7,1.3-3,3-3s3,1.3,3,3v3c0,1.7-1.3,3-3,3ZM351.7,519.4c-1.7,0-3-1.3-3-3v-3c0-1.7,1.3-3,3-3s3,1.3,3,3v3c0,1.7-1.3,3-3,3ZM351.7,501.4c-1.7,0-3-1.3-3-3v-3c0-1.7,1.3-3,3-3s3,1.3,3,3v3c0,1.7-1.3,3-3,3ZM351.7,483.4c-1.7,0-3-1.3-3-3v-3c0-1.7,1.3-3,3-3s3,1.3,3,3v3c0,1.7-1.3,3-3,3ZM351.7,465.4c-1.7,0-3-1.3-3-3v-3c0-1.7,1.3-3,3-3s3,1.3,3,3v3c0,1.7-1.3,3-3,3ZM351.7,447.4c-1.7,0-3-1.3-3-3v-3c0-1.7,1.3-3,3-3s3,1.3,3,3v3c0,1.7-1.3,3-3,3ZM351.7,429.4c-1.7,0-3-1.3-3-3v-3c0-1.7,1.3-3,3-3s3,1.3,3,3v3c0,1.7-1.3,3-3,3ZM351.7,411.4c-1.7,0-3-1.3-3-3v-3c0-1.7,1.3-3,3-3s3,1.3,3,3v3c0,1.7-1.3,3-3,3ZM351.7,393.4c-1.7,0-3-1.3-3-3v-3c0-1.7,1.3-3,3-3s3,1.3,3,3v3c0,1.7-1.3,3-3,3ZM351.7,375.4c-1.7,0-3-1.3-3-3v-3c0-1.7,1.3-3,3-3s3,1.3,3,3v3c0,1.7-1.3,3-3,3ZM351.7,357.4c-1.7,0-3-1.3-3-3v-3c0-1.7,1.3-3,3-3s3,1.3,3,3v3c0,1.7-1.3,3-3,3ZM351.7,339.4c-1.7,0-3-1.3-3-3v-3c0-1.7,1.3-3,3-3s3,1.3,3,3v3c0,1.7-1.3,3-3,3ZM351.7,321.4c-1.7,0-3-1.3-3-3v-3c0-1.7,1.3-3,3-3s3,1.3,3,3v3c0,1.7-1.3,3-3,3ZM351.7,303.4c-1.7,0-3-1.3-3-3v-3c0-1.7,1.3-3,3-3s3,1.3,3,3v3c0,1.7-1.3,3-3,3ZM351.7,285.4c-1.7,0-3-1.3-3-3v-3c0-1.7,1.3-3,3-3s3,1.3,3,3v3c0,1.7-1.3,3-3,3ZM351.7,267.4c-1.7,0-3-1.3-3-3v-3c0-1.7,1.3-3,3-3s3,1.3,3,3v3c0,1.7-1.3,3-3,3ZM351.7,249.4c-1.7,0-3-1.3-3-3v-3c0-1.7,1.3-3,3-3s3,1.3,3,3v3c0,1.7-1.3,3-3,3ZM351.7,231.4c-1.7,0-3-1.3-3-3v-3c0-1.7,1.3-3,3-3s3,1.3,3,3v3c0,1.7-1.3,3-3,3ZM351.7,213.4c-1.7,0-3-1.3-3-3v-3c0-1.7,1.3-3,3-3s3,1.3,3,3v3c0,1.7-1.3,3-3,3ZM351.7,195.4c-1.7,0-3-1.3-3-3v-3c0-1.7,1.3-3,3-3s3,1.3,3,3v3c0,1.7-1.3,3-3,3ZM351.7,177.4c-1.7,0-3-1.3-3-3v-3c0-1.7,1.3-3,3-3s3,1.3,3,3v3c0,1.7-1.3,3-3,3ZM351.7,159.4c-1.7,0-3-1.3-3-3v-3c0-1.7,1.3-3,3-3s3,1.3,3,3v3c0,1.7-1.3,3-3,3ZM351.7,141.4c-1.7,0-3-1.3-3-3v-3c0-1.7,1.3-3,3-3s3,1.3,3,3v3c0,1.7-1.3,3-3,3ZM351.7,123.4c-1.7,0-3-1.3-3-3v-3c0-1.7,1.3-3,3-3s3,1.3,3,3v3c0,1.7-1.3,3-3,3Z"/>
  <path class="st3" d="M481.1,1203.4c-1.7,0-3-1.3-3-3v-3c0-1.7,1.3-3,3-3s3,1.3,3,3v3c0,1.7-1.3,3-3,3ZM481.1,1185.4c-1.7,0-3-1.3-3-3v-3c0-1.7,1.3-3,3-3s3,1.3,3,3v3c0,1.7-1.3,3-3,3ZM481.1,1167.4c-1.7,0-3-1.3-3-3v-3c0-1.7,1.3-3,3-3s3,1.3,3,3v3c0,1.7-1.3,3-3,3ZM481.1,1149.4c-1.7,0-3-1.3-3-3v-3c0-1.7,1.3-3,3-3s3,1.3,3,3v3c0,1.7-1.3,3-3,3ZM481.1,1131.4c-1.7,0-3-1.3-3-3v-3c0-1.7,1.3-3,3-3s3,1.3,3,3v3c0,1.7-1.3,3-3,3ZM481.1,1113.4c-1.7,0-3-1.3-3-3v-3c0-1.7,1.3-3,3-3s3,1.3,3,3v3c0,1.7-1.3,3-3,3ZM481.1,1095.4c-1.7,0-3-1.3-3-3v-3c0-1.7,1.3-3,3-3s3,1.3,3,3v3c0,1.7-1.3,3-3,3ZM481.1,1077.4c-1.7,0-3-1.3-3-3v-3c0-1.7,1.3-3,3-3s3,1.3,3,3v3c0,1.7-1.3,3-3,3ZM481.1,1059.4c-1.7,0-3-1.3-3-3v-3c0-1.7,1.3-3,3-3s3,1.3,3,3v3c0,1.7-1.3,3-3,3ZM481.1,1041.4c-1.7,0-3-1.3-3-3v-3c0-1.7,1.3-3,3-3s3,1.3,3,3v3c0,1.7-1.3,3-3,3ZM481.1,1023.4c-1.7,0-3-1.3-3-3v-3c0-1.7,1.3-3,3-3s3,1.3,3,3v3c0,1.7-1.3,3-3,3ZM481.1,1005.4c-1.7,0-3-1.3-3-3v-3c0-1.7,1.3-3,3-3s3,1.3,3,3v3c0,1.7-1.3,3-3,3ZM481.1,987.4c-1.7,0-3-1.3-3-3v-3c0-1.7,1.3-3,3-3s3,1.3,3,3v3c0,1.7-1.3,3-3,3ZM481.1,969.4c-1.7,0-3-1.3-3-3v-3c0-1.7,1.3-3,3-3s3,1.3,3,3v3c0,1.7-1.3,3-3,3ZM481.1,951.4c-1.7,0-3-1.3-3-3v-3c0-1.7,1.3-3,3-3s3,1.3,3,3v3c0,1.7-1.3,3-3,3ZM481.1,933.4c-1.7,0-3-1.3-3-3v-3c0-1.7,1.3-3,3-3s3,1.3,3,3v3c0,1.7-1.3,3-3,3ZM481.1,915.4c-1.7,0-3-1.3-3-3v-3c0-1.7,1.3-3,3-3s3,1.3,3,3v3c0,1.7-1.3,3-3,3ZM481.1,897.4c-1.7,0-3-1.3-3-3v-3c0-1.7,1.3-3,3-3s3,1.3,3,3v3c0,1.7-1.3,3-3,3ZM481.1,879.4c-1.7,0-3-1.3-3-3v-3c0-1.7,1.3-3,3-3s3,1.3,3,3v3c0,1.7-1.3,3-3,3ZM481.1,861.4c-1.7,0-3-1.3-3-3v-3c0-1.7,1.3-3,3-3s3,1.3,3,3v3c0,1.7-1.3,3-3,3ZM481.1,843.4c-1.7,0-3-1.3-3-3v-3c0-1.7,1.3-3,3-3s3,1.3,3,3v3c0,1.7-1.3,3-3,3ZM481.1,825.4c-1.7,0-3-1.3-3-3v-3c0-1.7,1.3-3,3-3s3,1.3,3,3v3c0,1.7-1.3,3-3,3ZM481.1,807.4c-1.7,0-3-1.3-3-3v-3c0-1.7,1.3-3,3-3s3,1.3,3,3v3c0,1.7-1.3,3-3,3ZM481.1,789.4c-1.7,0-3-1.3-3-3v-3c0-1.7,1.3-3,3-3s3,1.3,3,3v3c0,1.7-1.3,3-3,3ZM481.1,771.4c-1.7,0-3-1.3-3-3v-3c0-1.7,1.3-3,3-3s3,1.3,3,3v3c0,1.7-1.3,3-3,3ZM481.1,753.4c-1.7,0-3-1.3-3-3v-3c0-1.7,1.3-3,3-3s3,1.3,3,3v3c0,1.7-1.3,3-3,3ZM481.1,735.4c-1.7,0-3-1.3-3-3v-3c0-1.7,1.3-3,3-3s3,1.3,3,3v3c0,1.7-1.3,3-3,3ZM481.1,717.4c-1.7,0-3-1.3-3-3v-3c0-1.7,1.3-3,3-3s3,1.3,3,3v3c0,1.7-1.3,3-3,3ZM481.1,699.4c-1.7,0-3-1.3-3-3v-3c0-1.7,1.3-3,3-3s3,1.3,3,3v3c0,1.7-1.3,3-3,3ZM481.1,681.4c-1.7,0-3-1.3-3-3v-3c0-1.7,1.3-3,3-3s3,1.3,3,3v3c0,1.7-1.3,3-3,3ZM481.1,663.4c-1.7,0-3-1.3-3-3v-3c0-1.7,1.3-3,3-3s3,1.3,3,3v3c0,1.7-1.3,3-3,3ZM481.1,645.4c-1.7,0-3-1.3-3-3v-3c0-1.7,1.3-3,3-3s3,1.3,3,3v3c0,1.7-1.3,3-3,3ZM481.1,627.4c-1.7,0-3-1.3-3-3v-3c0-1.7,1.3-3,3-3s3,1.3,3,3v3c0,1.7-1.3,3-3,3ZM481.1,609.4c-1.7,0-3-1.3-3-3v-3c0-1.7,1.3-3,3-3s3,1.3,3,3v3c0,1.7-1.3,3-3,3ZM481.1,591.4c-1.7,0-3-1.3-3-3v-3c0-1.7,1.3-3,3-3s3,1.3,3,3v3c0,1.7-1.3,3-3,3ZM481.1,573.4c-1.7,0-3-1.3-3-3v-3c0-1.7,1.3-3,3-3s3,1.3,3,3v3c0,1.7-1.3,3-3,3ZM481.1,555.4c-1.7,0-3-1.3-3-3v-3c0-1.7,1.3-3,3-3s3,1.3,3,3v3c0,1.7-1.3,3-3,3ZM481.1,537.4c-1.7,0-3-1.3-3-3v-3c0-1.7,1.3-3,3-3s3,1.3,3,3v3c0,1.7-1.3,3-3,3ZM481.1,519.4c-1.7,0-3-1.3-3-3v-3c0-1.7,1.3-3,3-3s3,1.3,3,3v3c0,1.7-1.3,3-3,3ZM481.1,501.4c-1.7,0-3-1.3-3-3v-3c0-1.7,1.3-3,3-3s3,1.3,3,3v3c0,1.7-1.3,3-3,3ZM481.1,483.4c-1.7,0-3-1.3-3-3v-3c0-1.7,1.3-3,3-3s3,1.3,3,3v3c0,1.7-1.3,3-3,3ZM481.1,465.4c-1.7,0-3-1.3-3-3v-3c0-1.7,1.3-3,3-3s3,1.3,3,3v3c0,1.7-1.3,3-3,3ZM481.1,447.4c-1.7,0-3-1.3-3-3v-3c0-1.7,1.3-3,3-3s3,1.3,3,3v3c0,1.7-1.3,3-3,3ZM481.1,429.4c-1.7,0-3-1.3-3-3v-3c0-1.7,1.3-3,3-3s3,1.3,3,3v3c0,1.7-1.3,3-3,3ZM481.1,411.4c-1.7,0-3-1.3-3-3v-3c0-1.7,1.3-3,3-3s3,1.3,3,3v3c0,1.7-1.3,3-3,3ZM481.1,393.4c-1.7,0-3-1.3-3-3v-3c0-1.7,1.3-3,3-3s3,1.3,3,3v3c0,1.7-1.3,3-3,3ZM481.1,375.4c-1.7,0-3-1.3-3-3v-3c0-1.7,1.3-3,3-3s3,1.3,3,3v3c0,1.7-1.3,3-3,3ZM481.1,357.4c-1.7,0-3-1.3-3-3v-3c0-1.7,1.3-3,3-3s3,1.3,3,3v3c0,1.7-1.3,3-3,3ZM481.1,339.4c-1.7,0-3-1.3-3-3v-3c0-1.7,1.3-3,3-3s3,1.3,3,3v3c0,1.7-1.3,3-3,3ZM481.1,321.4c-1.7,0-3-1.3-3-3v-3c0-1.7,1.3-3,3-3s3,1.3,3,3v3c0,1.7-1.3,3-3,3ZM481.1,303.4c-1.7,0-3-1.3-3-3v-3c0-1.7,1.3-3,3-3s3,1.3,3,3v3c0,1.7-1.3,3-3,3ZM481.1,285.4c-1.7,0-3-1.3-3-3v-3c0-1.7,1.3-3,3-3s3,1.3,3,3v3c0,1.7-1.3,3-3,3ZM481.1,267.4c-1.7,0-3-1.3-3-3v-3c0-1.7,1.3-3,3-3s3,1.3,3,3v3c0,1.7-1.3,3-3,3ZM481.1,249.4c-1.7,0-3-1.3-3-3v-3c0-1.7,1.3-3,3-3s3,1.3,3,3v3c0,1.7-1.3,3-3,3ZM481.1,231.4c-1.7,0-3-1.3-3-3v-3c0-1.7,1.3-3,3-3s3,1.3,3,3v3c0,1.7-1.3,3-3,3ZM481.1,213.4c-1.7,0-3-1.3-3-3v-3c0-1.7,1.3-3,3-3s3,1.3,3,3v3c0,1.7-1.3,3-3,3ZM481.1,195.4c-1.7,0-3-1.3-3-3v-3c0-1.7,1.3-3,3-3s3,1.3,3,3v3c0,1.7-1.3,3-3,3ZM481.1,177.4c-1.7,0-3-1.3-3-3v-3c0-1.7,1.3-3,3-3s3,1.3,3,3v3c0,1.7-1.3,3-3,3ZM481.1,159.4c-1.7,0-3-1.3-3-3v-3c0-1.7,1.3-3,3-3s3,1.3,3,3v3c0,1.7-1.3,3-3,3ZM481.1,141.4c-1.7,0-3-1.3-3-3v-3c0-1.7,1.3-3,3-3s3,1.3,3,3v3c0,1.7-1.3,3-3,3ZM481.1,123.4c-1.7,0-3-1.3-3-3v-3c0-1.7,1.3-3,3-3s3,1.3,3,3v3c0,1.7-1.3,3-3,3Z"/>
  <path class="st3" d="M610.5,1203.4c-1.7,0-3-1.3-3-3v-3c0-1.7,1.3-3,3-3s3,1.3,3,3v3c0,1.7-1.3,3-3,3ZM610.5,1185.4c-1.7,0-3-1.3-3-3v-3c0-1.7,1.3-3,3-3s3,1.3,3,3v3c0,1.7-1.3,3-3,3ZM610.5,1167.4c-1.7,0-3-1.3-3-3v-3c0-1.7,1.3-3,3-3s3,1.3,3,3v3c0,1.7-1.3,3-3,3ZM610.5,1149.4c-1.7,0-3-1.3-3-3v-3c0-1.7,1.3-3,3-3s3,1.3,3,3v3c0,1.7-1.3,3-3,3ZM610.5,1131.4c-1.7,0-3-1.3-3-3v-3c0-1.7,1.3-3,3-3s3,1.3,3,3v3c0,1.7-1.3,3-3,3ZM610.5,1113.4c-1.7,0-3-1.3-3-3v-3c0-1.7,1.3-3,3-3s3,1.3,3,3v3c0,1.7-1.3,3-3,3ZM610.5,1095.4c-1.7,0-3-1.3-3-3v-3c0-1.7,1.3-3,3-3s3,1.3,3,3v3c0,1.7-1.3,3-3,3ZM610.5,1077.4c-1.7,0-3-1.3-3-3v-3c0-1.7,1.3-3,3-3s3,1.3,3,3v3c0,1.7-1.3,3-3,3ZM610.5,1059.4c-1.7,0-3-1.3-3-3v-3c0-1.7,1.3-3,3-3s3,1.3,3,3v3c0,1.7-1.3,3-3,3ZM610.5,1041.4c-1.7,0-3-1.3-3-3v-3c0-1.7,1.3-3,3-3s3,1.3,3,3v3c0,1.7-1.3,3-3,3ZM610.5,1023.4c-1.7,0-3-1.3-3-3v-3c0-1.7,1.3-3,3-3s3,1.3,3,3v3c0,1.7-1.3,3-3,3ZM610.5,1005.4c-1.7,0-3-1.3-3-3v-3c0-1.7,1.3-3,3-3s3,1.3,3,3v3c0,1.7-1.3,3-3,3ZM610.5,987.4c-1.7,0-3-1.3-3-3v-3c0-1.7,1.3-3,3-3s3,1.3,3,3v3c0,1.7-1.3,3-3,3ZM610.5,969.4c-1.7,0-3-1.3-3-3v-3c0-1.7,1.3-3,3-3s3,1.3,3,3v3c0,1.7-1.3,3-3,3ZM610.5,951.4c-1.7,0-3-1.3-3-3v-3c0-1.7,1.3-3,3-3s3,1.3,3,3v3c0,1.7-1.3,3-3,3ZM610.5,933.4c-1.7,0-3-1.3-3-3v-3c0-1.7,1.3-3,3-3s3,1.3,3,3v3c0,1.7-1.3,3-3,3ZM610.5,915.4c-1.7,0-3-1.3-3-3v-3c0-1.7,1.3-3,3-3s3,1.3,3,3v3c0,1.7-1.3,3-3,3ZM610.5,897.4c-1.7,0-3-1.3-3-3v-3c0-1.7,1.3-3,3-3s3,1.3,3,3v3c0,1.7-1.3,3-3,3ZM610.5,879.4c-1.7,0-3-1.3-3-3v-3c0-1.7,1.3-3,3-3s3,1.3,3,3v3c0,1.7-1.3,3-3,3ZM610.5,861.4c-1.7,0-3-1.3-3-3v-3c0-1.7,1.3-3,3-3s3,1.3,3,3v3c0,1.7-1.3,3-3,3ZM610.5,843.4c-1.7,0-3-1.3-3-3v-3c0-1.7,1.3-3,3-3s3,1.3,3,3v3c0,1.7-1.3,3-3,3ZM610.5,825.4c-1.7,0-3-1.3-3-3v-3c0-1.7,1.3-3,3-3s3,1.3,3,3v3c0,1.7-1.3,3-3,3ZM610.5,807.4c-1.7,0-3-1.3-3-3v-3c0-1.7,1.3-3,3-3s3,1.3,3,3v3c0,1.7-1.3,3-3,3ZM610.5,789.4c-1.7,0-3-1.3-3-3v-3c0-1.7,1.3-3,3-3s3,1.3,3,3v3c0,1.7-1.3,3-3,3ZM610.5,771.4c-1.7,0-3-1.3-3-3v-3c0-1.7,1.3-3,3-3s3,1.3,3,3v3c0,1.7-1.3,3-3,3ZM610.5,753.4c-1.7,0-3-1.3-3-3v-3c0-1.7,1.3-3,3-3s3,1.3,3,3v3c0,1.7-1.3,3-3,3ZM610.5,735.4c-1.7,0-3-1.3-3-3v-3c0-1.7,1.3-3,3-3s3,1.3,3,3v3c0,1.7-1.3,3-3,3ZM610.5,717.4c-1.7,0-3-1.3-3-3v-3c0-1.7,1.3-3,3-3s3,1.3,3,3v3c0,1.7-1.3,3-3,3ZM610.5,699.4c-1.7,0-3-1.3-3-3v-3c0-1.7,1.3-3,3-3s3,1.3,3,3v3c0,1.7-1.3,3-3,3ZM610.5,681.4c-1.7,0-3-1.3-3-3v-3c0-1.7,1.3-3,3-3s3,1.3,3,3v3c0,1.7-1.3,3-3,3ZM610.5,663.4c-1.7,0-3-1.3-3-3v-3c0-1.7,1.3-3,3-3s3,1.3,3,3v3c0,1.7-1.3,3-3,3ZM610.5,645.4c-1.7,0-3-1.3-3-3v-3c0-1.7,1.3-3,3-3s3,1.3,3,3v3c0,1.7-1.3,3-3,3ZM610.5,627.4c-1.7,0-3-1.3-3-3v-3c0-1.7,1.3-3,3-3s3,1.3,3,3v3c0,1.7-1.3,3-3,3ZM610.5,609.4c-1.7,0-3-1.3-3-3v-3c0-1.7,1.3-3,3-3s3,1.3,3,3v3c0,1.7-1.3,3-3,3ZM610.5,591.4c-1.7,0-3-1.3-3-3v-3c0-1.7,1.3-3,3-3s3,1.3,3,3v3c0,1.7-1.3,3-3,3ZM610.5,573.4c-1.7,0-3-1.3-3-3v-3c0-1.7,1.3-3,3-3s3,1.3,3,3v3c0,1.7-1.3,3-3,3ZM610.5,555.4c-1.7,0-3-1.3-3-3v-3c0-1.7,1.3-3,3-3s3,1.3,3,3v3c0,1.7-1.3,3-3,3ZM610.5,537.4c-1.7,0-3-1.3-3-3v-3c0-1.7,1.3-3,3-3s3,1.3,3,3v3c0,1.7-1.3,3-3,3ZM610.5,519.4c-1.7,0-3-1.3-3-3v-3c0-1.7,1.3-3,3-3s3,1.3,3,3v3c0,1.7-1.3,3-3,3ZM610.5,501.4c-1.7,0-3-1.3-3-3v-3c0-1.7,1.3-3,3-3s3,1.3,3,3v3c0,1.7-1.3,3-3,3ZM610.5,483.4c-1.7,0-3-1.3-3-3v-3c0-1.7,1.3-3,3-3s3,1.3,3,3v3c0,1.7-1.3,3-3,3ZM610.5,465.4c-1.7,0-3-1.3-3-3v-3c0-1.7,1.3-3,3-3s3,1.3,3,3v3c0,1.7-1.3,3-3,3ZM610.5,447.4c-1.7,0-3-1.3-3-3v-3c0-1.7,1.3-3,3-3s3,1.3,3,3v3c0,1.7-1.3,3-3,3ZM610.5,429.4c-1.7,0-3-1.3-3-3v-3c0-1.7,1.3-3,3-3s3,1.3,3,3v3c0,1.7-1.3,3-3,3ZM610.5,411.4c-1.7,0-3-1.3-3-3v-3c0-1.7,1.3-3,3-3s3,1.3,3,3v3c0,1.7-1.3,3-3,3ZM610.5,393.4c-1.7,0-3-1.3-3-3v-3c0-1.7,1.3-3,3-3s3,1.3,3,3v3c0,1.7-1.3,3-3,3ZM610.5,375.4c-1.7,0-3-1.3-3-3v-3c0-1.7,1.3-3,3-3s3,1.3,3,3v3c0,1.7-1.3,3-3,3ZM610.5,357.4c-1.7,0-3-1.3-3-3v-3c0-1.7,1.3-3,3-3s3,1.3,3,3v3c0,1.7-1.3,3-3,3ZM610.5,339.4c-1.7,0-3-1.3-3-3v-3c0-1.7,1.3-3,3-3s3,1.3,3,3v3c0,1.7-1.3,3-3,3ZM610.5,321.4c-1.7,0-3-1.3-3-3v-3c0-1.7,1.3-3,3-3s3,1.3,3,3v3c0,1.7-1.3,3-3,3ZM610.5,303.4c-1.7,0-3-1.3-3-3v-3c0-1.7,1.3-3,3-3s3,1.3,3,3v3c0,1.7-1.3,3-3,3ZM610.5,285.4c-1.7,0-3-1.3-3-3v-3c0-1.7,1.3-3,3-3s3,1.3,3,3v3c0,1.7-1.3,3-3,3ZM610.5,267.4c-1.7,0-3-1.3-3-3v-3c0-1.7,1.3-3,3-3s3,1.3,3,3v3c0,1.7-1.3,3-3,3ZM610.5,249.4c-1.7,0-3-1.3-3-3v-3c0-1.7,1.3-3,3-3s3,1.3,3,3v3c0,1.7-1.3,3-3,3ZM610.5,231.4c-1.7,0-3-1.3-3-3v-3c0-1.7,1.3-3,3-3s3,1.3,3,3v3c0,1.7-1.3,3-3,3ZM610.5,213.4c-1.7,0-3-1.3-3-3v-3c0-1.7,1.3-3,3-3s3,1.3,3,3v3c0,1.7-1.3,3-3,3ZM610.5,195.4c-1.7,0-3-1.3-3-3v-3c0-1.7,1.3-3,3-3s3,1.3,3,3v3c0,1.7-1.3,3-3,3ZM610.5,177.4c-1.7,0-3-1.3-3-3v-3c0-1.7,1.3-3,3-3s3,1.3,3,3v3c0,1.7-1.3,3-3,3ZM610.5,159.4c-1.7,0-3-1.3-3-3v-3c0-1.7,1.3-3,3-3s3,1.3,3,3v3c0,1.7-1.3,3-3,3ZM610.5,141.4c-1.7,0-3-1.3-3-3v-3c0-1.7,1.3-3,3-3s3,1.3,3,3v3c0,1.7-1.3,3-3,3ZM610.5,123.4c-1.7,0-3-1.3-3-3v-3c0-1.7,1.3-3,3-3s3,1.3,3,3v3c0,1.7-1.3,3-3,3Z"/>
  <path class="st3" d="M739.9,1203.4c-1.7,0-3-1.3-3-3v-3c0-1.7,1.3-3,3-3s3,1.3,3,3v3c0,1.7-1.3,3-3,3ZM739.9,1185.4c-1.7,0-3-1.3-3-3v-3c0-1.7,1.3-3,3-3s3,1.3,3,3v3c0,1.7-1.3,3-3,3ZM739.9,1167.4c-1.7,0-3-1.3-3-3v-3c0-1.7,1.3-3,3-3s3,1.3,3,3v3c0,1.7-1.3,3-3,3ZM739.9,1149.4c-1.7,0-3-1.3-3-3v-3c0-1.7,1.3-3,3-3s3,1.3,3,3v3c0,1.7-1.3,3-3,3ZM739.9,1131.4c-1.7,0-3-1.3-3-3v-3c0-1.7,1.3-3,3-3s3,1.3,3,3v3c0,1.7-1.3,3-3,3ZM739.9,1113.4c-1.7,0-3-1.3-3-3v-3c0-1.7,1.3-3,3-3s3,1.3,3,3v3c0,1.7-1.3,3-3,3ZM739.9,1095.4c-1.7,0-3-1.3-3-3v-3c0-1.7,1.3-3,3-3s3,1.3,3,3v3c0,1.7-1.3,3-3,3ZM739.9,1077.4c-1.7,0-3-1.3-3-3v-3c0-1.7,1.3-3,3-3s3,1.3,3,3v3c0,1.7-1.3,3-3,3ZM739.9,1059.4c-1.7,0-3-1.3-3-3v-3c0-1.7,1.3-3,3-3s3,1.3,3,3v3c0,1.7-1.3,3-3,3ZM739.9,1041.4c-1.7,0-3-1.3-3-3v-3c0-1.7,1.3-3,3-3s3,1.3,3,3v3c0,1.7-1.3,3-3,3ZM739.9,1023.4c-1.7,0-3-1.3-3-3v-3c0-1.7,1.3-3,3-3s3,1.3,3,3v3c0,1.7-1.3,3-3,3ZM739.9,1005.4c-1.7,0-3-1.3-3-3v-3c0-1.7,1.3-3,3-3s3,1.3,3,3v3c0,1.7-1.3,3-3,3ZM739.9,987.4c-1.7,0-3-1.3-3-3v-3c0-1.7,1.3-3,3-3s3,1.3,3,3v3c0,1.7-1.3,3-3,3ZM739.9,969.4c-1.7,0-3-1.3-3-3v-3c0-1.7,1.3-3,3-3s3,1.3,3,3v3c0,1.7-1.3,3-3,3ZM739.9,951.4c-1.7,0-3-1.3-3-3v-3c0-1.7,1.3-3,3-3s3,1.3,3,3v3c0,1.7-1.3,3-3,3ZM739.9,933.4c-1.7,0-3-1.3-3-3v-3c0-1.7,1.3-3,3-3s3,1.3,3,3v3c0,1.7-1.3,3-3,3ZM739.9,915.4c-1.7,0-3-1.3-3-3v-3c0-1.7,1.3-3,3-3s3,1.3,3,3v3c0,1.7-1.3,3-3,3ZM739.9,897.4c-1.7,0-3-1.3-3-3v-3c0-1.7,1.3-3,3-3s3,1.3,3,3v3c0,1.7-1.3,3-3,3ZM739.9,879.4c-1.7,0-3-1.3-3-3v-3c0-1.7,1.3-3,3-3s3,1.3,3,3v3c0,1.7-1.3,3-3,3ZM739.9,861.4c-1.7,0-3-1.3-3-3v-3c0-1.7,1.3-3,3-3s3,1.3,3,3v3c0,1.7-1.3,3-3,3ZM739.9,843.4c-1.7,0-3-1.3-3-3v-3c0-1.7,1.3-3,3-3s3,1.3,3,3v3c0,1.7-1.3,3-3,3ZM739.9,825.4c-1.7,0-3-1.3-3-3v-3c0-1.7,1.3-3,3-3s3,1.3,3,3v3c0,1.7-1.3,3-3,3ZM739.9,807.4c-1.7,0-3-1.3-3-3v-3c0-1.7,1.3-3,3-3s3,1.3,3,3v3c0,1.7-1.3,3-3,3ZM739.9,789.4c-1.7,0-3-1.3-3-3v-3c0-1.7,1.3-3,3-3s3,1.3,3,3v3c0,1.7-1.3,3-3,3ZM739.9,771.4c-1.7,0-3-1.3-3-3v-3c0-1.7,1.3-3,3-3s3,1.3,3,3v3c0,1.7-1.3,3-3,3ZM739.9,753.4c-1.7,0-3-1.3-3-3v-3c0-1.7,1.3-3,3-3s3,1.3,3,3v3c0,1.7-1.3,3-3,3ZM739.9,735.4c-1.7,0-3-1.3-3-3v-3c0-1.7,1.3-3,3-3s3,1.3,3,3v3c0,1.7-1.3,3-3,3ZM739.9,717.4c-1.7,0-3-1.3-3-3v-3c0-1.7,1.3-3,3-3s3,1.3,3,3v3c0,1.7-1.3,3-3,3ZM739.9,699.4c-1.7,0-3-1.3-3-3v-3c0-1.7,1.3-3,3-3s3,1.3,3,3v3c0,1.7-1.3,3-3,3ZM739.9,681.4c-1.7,0-3-1.3-3-3v-3c0-1.7,1.3-3,3-3s3,1.3,3,3v3c0,1.7-1.3,3-3,3ZM739.9,663.4c-1.7,0-3-1.3-3-3v-3c0-1.7,1.3-3,3-3s3,1.3,3,3v3c0,1.7-1.3,3-3,3ZM739.9,645.4c-1.7,0-3-1.3-3-3v-3c0-1.7,1.3-3,3-3s3,1.3,3,3v3c0,1.7-1.3,3-3,3ZM739.9,627.4c-1.7,0-3-1.3-3-3v-3c0-1.7,1.3-3,3-3s3,1.3,3,3v3c0,1.7-1.3,3-3,3ZM739.9,609.4c-1.7,0-3-1.3-3-3v-3c0-1.7,1.3-3,3-3s3,1.3,3,3v3c0,1.7-1.3,3-3,3ZM739.9,591.4c-1.7,0-3-1.3-3-3v-3c0-1.7,1.3-3,3-3s3,1.3,3,3v3c0,1.7-1.3,3-3,3ZM739.9,573.4c-1.7,0-3-1.3-3-3v-3c0-1.7,1.3-3,3-3s3,1.3,3,3v3c0,1.7-1.3,3-3,3ZM739.9,555.4c-1.7,0-3-1.3-3-3v-3c0-1.7,1.3-3,3-3s3,1.3,3,3v3c0,1.7-1.3,3-3,3ZM739.9,537.4c-1.7,0-3-1.3-3-3v-3c0-1.7,1.3-3,3-3s3,1.3,3,3v3c0,1.7-1.3,3-3,3ZM739.9,519.4c-1.7,0-3-1.3-3-3v-3c0-1.7,1.3-3,3-3s3,1.3,3,3v3c0,1.7-1.3,3-3,3ZM739.9,501.4c-1.7,0-3-1.3-3-3v-3c0-1.7,1.3-3,3-3s3,1.3,3,3v3c0,1.7-1.3,3-3,3ZM739.9,483.4c-1.7,0-3-1.3-3-3v-3c0-1.7,1.3-3,3-3s3,1.3,3,3v3c0,1.7-1.3,3-3,3ZM739.9,465.4c-1.7,0-3-1.3-3-3v-3c0-1.7,1.3-3,3-3s3,1.3,3,3v3c0,1.7-1.3,3-3,3ZM739.9,447.4c-1.7,0-3-1.3-3-3v-3c0-1.7,1.3-3,3-3s3,1.3,3,3v3c0,1.7-1.3,3-3,3ZM739.9,429.4c-1.7,0-3-1.3-3-3v-3c0-1.7,1.3-3,3-3s3,1.3,3,3v3c0,1.7-1.3,3-3,3ZM739.9,411.4c-1.7,0-3-1.3-3-3v-3c0-1.7,1.3-3,3-3s3,1.3,3,3v3c0,1.7-1.3,3-3,3ZM739.9,393.4c-1.7,0-3-1.3-3-3v-3c0-1.7,1.3-3,3-3s3,1.3,3,3v3c0,1.7-1.3,3-3,3ZM739.9,375.4c-1.7,0-3-1.3-3-3v-3c0-1.7,1.3-3,3-3s3,1.3,3,3v3c0,1.7-1.3,3-3,3ZM739.9,357.4c-1.7,0-3-1.3-3-3v-3c0-1.7,1.3-3,3-3s3,1.3,3,3v3c0,1.7-1.3,3-3,3ZM739.9,339.4c-1.7,0-3-1.3-3-3v-3c0-1.7,1.3-3,3-3s3,1.3,3,3v3c0,1.7-1.3,3-3,3ZM739.9,321.4c-1.7,0-3-1.3-3-3v-3c0-1.7,1.3-3,3-3s3,1.3,3,3v3c0,1.7-1.3,3-3,3ZM739.9,303.4c-1.7,0-3-1.3-3-3v-3c0-1.7,1.3-3,3-3s3,1.3,3,3v3c0,1.7-1.3,3-3,3ZM739.9,285.4c-1.7,0-3-1.3-3-3v-3c0-1.7,1.3-3,3-3s3,1.3,3,3v3c0,1.7-1.3,3-3,3ZM739.9,267.4c-1.7,0-3-1.3-3-3v-3c0-1.7,1.3-3,3-3s3,1.3,3,3v3c0,1.7-1.3,3-3,3ZM739.9,249.4c-1.7,0-3-1.3-3-3v-3c0-1.7,1.3-3,3-3s3,1.3,3,3v3c0,1.7-1.3,3-3,3ZM739.9,231.4c-1.7,0-3-1.3-3-3v-3c0-1.7,1.3-3,3-3s3,1.3,3,3v3c0,1.7-1.3,3-3,3ZM739.9,213.4c-1.7,0-3-1.3-3-3v-3c0-1.7,1.3-3,3-3s3,1.3,3,3v3c0,1.7-1.3,3-3,3ZM739.9,195.4c-1.7,0-3-1.3-3-3v-3c0-1.7,1.3-3,3-3s3,1.3,3,3v3c0,1.7-1.3,3-3,3ZM739.9,177.4c-1.7,0-3-1.3-3-3v-3c0-1.7,1.3-3,3-3s3,1.3,3,3v3c0,1.7-1.3,3-3,3ZM739.9,159.4c-1.7,0-3-1.3-3-3v-3c0-1.7,1.3-3,3-3s3,1.3,3,3v3c0,1.7-1.3,3-3,3ZM739.9,141.4c-1.7,0-3-1.3-3-3v-3c0-1.7,1.3-3,3-3s3,1.3,3,3v3c0,1.7-1.3,3-3,3ZM739.9,123.4c-1.7,0-3-1.3-3-3v-3c0-1.7,1.3-3,3-3s3,1.3,3,3v3c0,1.7-1.3,3-3,3Z"/>
  <path class="st1" d="M998.7,1200.4"/>
  <g>
    <g>
      <path class="st2" d="M494.1,728.3c-.9,0-1.8-.3-2.5-.9-1.7-1.4-2-3.9-.6-5.6,1-1.3,2.1-2.6,3.1-3.9,1.4-1.7,3.9-2,5.6-.6,1.7,1.4,2,3.9.6,5.6-1,1.3-2.1,2.6-3.1,3.9-.8,1-1.9,1.5-3.1,1.5Z"/>
      <path class="st2" d="M506.9,712.6c-.9,0-1.8-.3-2.5-.9-1.7-1.4-2-3.9-.6-5.6,2.1-2.6,4.3-5.2,6.4-7.8,1.4-1.7,3.9-1.9,5.6-.5,1.7,1.4,1.9,3.9.5,5.6-2.1,2.6-4.3,5.2-6.4,7.8-.8,1-1.9,1.5-3.1,1.5ZM523,693.1c-.9,0-1.8-.3-2.6-.9-1.7-1.4-1.9-3.9-.5-5.6,2.2-2.6,4.3-5.2,6.5-7.8,1.4-1.7,3.9-1.9,5.6-.5,1.7,1.4,1.9,3.9.5,5.6-2.2,2.6-4.3,5.2-6.5,7.8-.8.9-1.9,1.4-3.1,1.4ZM539.2,673.7c-.9,0-1.8-.3-2.6-.9-1.7-1.4-1.9-3.9-.5-5.6l6.5-7.8c1.4-1.7,3.9-1.9,5.6-.5,1.7,1.4,1.9,3.9.5,5.6l-6.5,7.8c-.8.9-1.9,1.4-3.1,1.4ZM555.5,654.3c-.9,0-1.8-.3-2.6-.9-1.7-1.4-1.9-3.9-.5-5.6,2.2-2.6,4.3-5.2,6.5-7.8,1.4-1.7,3.9-1.9,5.6-.5,1.7,1.4,1.9,3.9.5,5.6-2.2,2.6-4.3,5.2-6.5,7.8-.8.9-1.9,1.4-3.1,1.4ZM571.7,634.8c-.9,0-1.8-.3-2.5-.9-1.7-1.4-1.9-3.9-.5-5.6,2.1-2.6,4.3-5.2,6.4-7.8,1.4-1.7,3.9-2,5.6-.6,1.7,1.4,2,3.9.6,5.6-2.1,2.6-4.3,5.2-6.4,7.8-.8,1-1.9,1.5-3.1,1.5ZM587.7,615.2c-.9,0-1.8-.3-2.5-.9-1.7-1.4-2-3.9-.6-5.6,2.1-2.6,4.2-5.2,6.3-7.9,1.4-1.7,3.9-2,5.6-.6,1.7,1.4,2,3.9.6,5.6-2.1,2.6-4.2,5.3-6.4,7.9-.8,1-1.9,1.5-3.1,1.5ZM603.4,595.4c-.9,0-1.7-.3-2.5-.9-1.7-1.4-2-3.9-.7-5.6,2.1-2.6,4.1-5.3,6.2-8,1.4-1.7,3.9-2.1,5.6-.7,1.7,1.4,2.1,3.9.7,5.6-2.1,2.7-4.2,5.4-6.2,8-.8,1-2,1.5-3.2,1.5ZM619.7,576.2c-.8,0-1.7-.3-2.4-.8-1.8-1.3-2.1-3.8-.8-5.6,2-2.6,4.1-5.3,6.4-8.1,1.4-1.7,3.9-1.9,5.6-.5,1.7,1.4,1.9,3.9.5,5.6-2.3,2.7-4.3,5.2-6.2,7.8-.8,1-2,1.6-3.2,1.6ZM635.9,556.8c-.9,0-1.9-.3-2.7-1-1.7-1.5-1.8-4-.3-5.6l.7-.8c1.7-2.1,3.4-4.5,5.2-7,1.3-1.8,3.8-2.2,5.6-.9s2.2,3.8.9,5.6c-1.9,2.6-3.7,5-5.5,7.3,0,0,0,.1-.1.2l-.8.8c-.8.9-1.9,1.3-3,1.3ZM651.5,536.9c-.9,0-1.9-.3-2.7-1-1.7-1.5-1.8-4-.3-5.6,2-2.3,4.1-4.7,6.5-7.6,1.4-1.7,3.9-1.9,5.6-.5,1.7,1.4,1.9,3.9.5,5.6-2.5,3-4.6,5.4-6.7,7.7-.8.9-1.9,1.3-3,1.3ZM667.9,517.6c-.9,0-1.8-.3-2.6-.9-1.7-1.4-1.9-3.9-.5-5.6,2.5-3,4.6-5.5,6.7-7.7,1.5-1.7,4-1.8,5.6-.4,1.7,1.5,1.8,4,.4,5.6-2,2.2-4,4.7-6.5,7.6-.8.9-1.9,1.4-3.1,1.4ZM684.2,498.3c-.9,0-1.8-.3-2.5-.9-1.7-1.4-2-3.9-.6-5.6,2.1-2.6,4.3-5.3,6.4-7.9,1.4-1.7,3.9-2,5.6-.6,1.7,1.4,2,3.9.6,5.6-2.1,2.6-4.2,5.2-6.4,7.8-.8,1-1.9,1.5-3.1,1.5ZM700.3,478.7c-.9,0-1.8-.3-2.5-.9-1.7-1.4-2-3.9-.6-5.6l6.4-7.8c1.4-1.7,3.9-2,5.6-.5,1.7,1.4,2,3.9.5,5.6l-6.4,7.8c-.8,1-1.9,1.5-3.1,1.5ZM716.3,459.1c-.9,0-1.8-.3-2.5-.9-1.7-1.4-2-3.9-.6-5.6,2.1-2.6,4.3-5.2,6.4-7.8,1.4-1.7,3.9-2,5.6-.6,1.7,1.4,2,3.9.6,5.6-2.1,2.6-4.3,5.2-6.4,7.8-.8,1-1.9,1.5-3.1,1.5ZM732.3,439.5c-.9,0-1.8-.3-2.5-.9-1.7-1.4-2-3.9-.6-5.6,2.1-2.6,4.2-5.2,6.3-7.9,1.4-1.7,3.9-2,5.6-.6,1.7,1.4,2,3.9.6,5.6-2.1,2.7-4.2,5.3-6.3,7.9-.8,1-1.9,1.5-3.1,1.5ZM748.1,419.7c-.9,0-1.7-.3-2.5-.9-1.7-1.4-2-3.9-.7-5.6l1.1-1.4c.1-.1.2-.3.3-.4.8-.8,1.7-1.4,2.5-2,.4-.3,1-.6,1.2-.9l2-2.5c1.4-1.7,3.9-2,5.6-.6,1.7,1.4,2,3.9.6,5.6l-2.2,2.7c0,.1-.2.2-.3.3-.8.8-1.7,1.4-2.5,2-.4.3-.9.6-1.2.8l-.9,1.1c-.8,1-2,1.5-3.2,1.5ZM764.8,400.9c-.9,0-1.8-.3-2.5-.9-1.7-1.4-2-3.9-.6-5.6l6.4-7.9c1.4-1.7,3.9-2,5.6-.6,1.7,1.4,2,3.9.6,5.6l-6.4,7.9c-.8,1-1.9,1.5-3.1,1.5ZM780.8,381.2c-.9,0-1.8-.3-2.5-.9-1.7-1.4-2-3.9-.6-5.6l6.4-7.8c1.4-1.7,3.9-2,5.6-.6,1.7,1.4,2,3.9.6,5.6l-6.4,7.8c-.8,1-1.9,1.5-3.1,1.5ZM796.8,361.6c-.9,0-1.8-.3-2.5-.9-1.7-1.4-2-3.9-.6-5.6l6.4-7.8c1.4-1.7,3.9-2,5.6-.6,1.7,1.4,2,3.9.6,5.6l-6.4,7.8c-.8,1-1.9,1.5-3.1,1.5ZM812.9,342.1c-.9,0-1.8-.3-2.5-.9-1.7-1.4-2-3.9-.6-5.6l6.4-7.8c1.4-1.7,3.9-2,5.6-.6,1.7,1.4,2,3.9.6,5.6l-6.4,7.8c-.8,1-1.9,1.5-3.1,1.5ZM828.9,322.5c-.9,0-1.8-.3-2.5-.9-1.7-1.4-2-3.9-.6-5.6l6.4-7.8c1.4-1.7,3.9-2,5.6-.5,1.7,1.4,2,3.9.5,5.6l-6.4,7.8c-.8,1-1.9,1.5-3.1,1.5Z"/>
      <path class="st2" d="M845,302.9c-.9,0-1.8-.3-2.5-.9-1.7-1.4-2-3.9-.6-5.6l3.2-3.9c1.4-1.7,3.9-2,5.6-.6,1.7,1.4,2,3.9.6,5.6l-3.2,3.9c-.8,1-1.9,1.5-3.1,1.5Z"/>
      <polygon class="st2" points="852.5 315.7 848.5 315.9 847.3 296.2 827.7 298.9 827.2 295 851 291.7 852.5 315.7"/>
    </g>
    <circle class="st2" cx="739.8" cy="421.4" r="26.2"/>
    <circle class="st2" cx="612.3" cy="577.1" r="26.2"/>
  </g>
  <g>
    <g>
      <path class="st4" d="M101.3,1204.4c-.9,0-1.8-.3-2.6-.9-1.7-1.4-1.9-3.9-.5-5.6,1.1-1.3,2.1-2.6,3.2-3.8,1.4-1.7,3.9-1.9,5.6-.5,1.7,1.4,1.9,3.9.5,5.6-1.1,1.3-2.1,2.6-3.2,3.9-.8,1-1.9,1.4-3.1,1.4Z"/>
      <path class="st4" d="M114,1189c-.9,0-1.8-.3-2.5-.9-1.7-1.4-2-3.9-.6-5.6,2.1-2.6,4.2-5.1,6.3-7.7,1.4-1.7,3.9-2,5.6-.6,1.7,1.4,2,3.9.6,5.6-2.1,2.6-4.2,5.1-6.3,7.7-.8,1-1.9,1.5-3.1,1.5ZM129.7,1169.7c-.9,0-1.8-.3-2.5-.9-1.7-1.4-2-3.9-.6-5.6l6.2-7.7c1.4-1.7,3.9-2,5.6-.6,1.7,1.4,2,3.9.6,5.6l-6.2,7.7c-.8,1-1.9,1.5-3.1,1.5ZM145.3,1150.4c-.9,0-1.8-.3-2.5-.9-1.7-1.4-2-3.9-.6-5.6l.5-.6c2-2.4,4-4.8,5.9-7.1,1.4-1.7,3.9-1.9,5.6-.5,1.7,1.4,1.9,3.9.5,5.6-2,2.3-3.9,4.7-5.9,7.1l-.4.5c-.8,1-1.9,1.5-3.1,1.5ZM161.2,1131.3c-.9,0-1.8-.3-2.5-.9-1.7-1.4-1.9-3.9-.5-5.6,2.1-2.6,4.2-5.1,6.3-7.7,1.4-1.7,3.9-1.9,5.6-.5,1.7,1.4,2,3.9.5,5.6-2.1,2.6-4.2,5.1-6.3,7.7-.8,1-1.9,1.5-3.1,1.5ZM177,1112.1c-.9,0-1.8-.3-2.5-.9-1.7-1.4-2-3.9-.6-5.6l6.3-7.7c1.4-1.7,3.9-2,5.6-.6,1.7,1.4,2,3.9.6,5.6l-6.3,7.7c-.8,1-1.9,1.5-3.1,1.5ZM192.8,1092.8c-.9,0-1.8-.3-2.5-.9-1.7-1.4-2-3.9-.5-5.6,2.1-2.6,4.2-5.1,6.3-7.7,1.4-1.7,3.9-1.9,5.6-.5,1.7,1.4,1.9,3.9.5,5.6-2.1,2.6-4.2,5.1-6.3,7.7-.8,1-1.9,1.5-3.1,1.5ZM208.6,1073.7c-.9,0-1.8-.3-2.6-.9-1.7-1.4-1.9-3.9-.5-5.6,2.1-2.5,4.3-5.1,6.4-7.6,1.4-1.7,3.9-1.9,5.6-.5,1.7,1.4,1.9,3.9.5,5.6-2.1,2.5-4.3,5.1-6.4,7.6-.8.9-1.9,1.4-3.1,1.4ZM224.6,1054.7c-.9,0-1.8-.3-2.6-1-1.7-1.4-1.9-4-.4-5.6,2.1-2.5,4.3-5,6.5-7.6,1.4-1.7,4-1.9,5.6-.4,1.7,1.4,1.9,4,.4,5.6-2.2,2.5-4.3,5-6.5,7.5-.8.9-1.9,1.4-3,1.4ZM240.9,1035.9c-.8,0-1.6-.2-2.3-.7-1.8-1.3-2.2-3.8-.9-5.6,2-2.8,4-5.4,6-8.1,1.3-1.8,3.9-2.1,5.6-.7,1.8,1.3,2.1,3.9.7,5.6-2,2.6-4,5.2-5.9,7.8-.8,1.1-2,1.7-3.3,1.7ZM256.5,1016.7c-1.3,0-2.5-.6-3.3-1.7-1.3-1.8-.8-4.3,1-5.6.2-.2.4-.3.5-.3,1.7-2.2,3.4-4.3,5-6.4,1.4-1.7,3.9-2,5.6-.7,1.7,1.4,2,3.9.7,5.6-1.7,2.2-3.4,4.4-5.2,6.7-.1.1-.2.3-.3.4-.6.6-1.2,1-1.7,1.4-.7.5-1.5.7-2.3.7ZM272,997.4c-.9,0-1.7-.3-2.5-.9-1.7-1.4-2-3.9-.7-5.6,2-2.6,4.1-5.1,6.1-7.8,1.4-1.7,3.9-2,5.6-.7,1.7,1.4,2,3.9.7,5.6-2.1,2.7-4.1,5.2-6.2,7.8-.8,1-2,1.5-3.1,1.5ZM288.1,978.5c-1.1,0-2.1-.4-2.9-1.3-1.5-1.6-1.4-4.1.2-5.7.4-.4.7-.7.9-1,0,0,.1-.2.2-.3,1.6-2,3.2-4,4.8-6,1.4-1.7,3.9-2,5.6-.6,1.7,1.4,2,3.9.6,5.6-1.6,1.9-3.1,3.9-4.7,5.8-.6.8-1.2,1.6-2,2.3-.8.7-1.8,1.1-2.7,1.1ZM303.8,959.2c-.9,0-1.8-.3-2.5-.9-1.7-1.4-1.9-3.9-.5-5.6,2.1-2.6,4.2-5.1,6.4-7.7,1.4-1.7,3.9-1.9,5.6-.5,1.7,1.4,1.9,3.9.5,5.6-2.1,2.5-4.2,5.1-6.3,7.6-.8,1-1.9,1.5-3.1,1.5ZM319.7,940.1c-.9,0-1.8-.3-2.6-.9-1.7-1.4-1.9-3.9-.5-5.6l6.4-7.6c1.4-1.7,3.9-1.9,5.6-.5,1.7,1.4,1.9,3.9.5,5.6l-6.4,7.6c-.8.9-1.9,1.4-3.1,1.4ZM335.7,921.1c-.9,0-1.8-.3-2.6-.9-1.7-1.4-1.9-3.9-.5-5.6,2.1-2.5,4.1-4.9,6.2-7.4v-.2c1.5-1.7,4-2,5.7-.6,1.7,1.4,2,3.9.6,5.6l-.2.2c-2.1,2.6-4.2,5-6.3,7.5-.8.9-1.9,1.4-3.1,1.4ZM351.5,901.9c-.9,0-1.8-.3-2.5-.9-1.7-1.4-2-3.9-.6-5.6,2.1-2.6,4.2-5.2,6.3-7.7,1.4-1.7,3.9-2,5.6-.6,1.7,1.4,2,3.9.6,5.6-2.1,2.6-4.2,5.1-6.3,7.7-.8,1-1.9,1.5-3.1,1.5ZM367.1,882.5c-.9,0-1.8-.3-2.5-.9-1.7-1.4-2-3.9-.6-5.6,2.1-2.6,4.2-5.1,6.3-7.7,1.4-1.7,3.9-2,5.6-.6,1.7,1.4,2,3.9.6,5.6-2.1,2.6-4.2,5.1-6.3,7.7-.8,1-1.9,1.5-3.1,1.5ZM382.9,863.3c-.9,0-1.8-.3-2.5-.9-1.7-1.4-2-3.9-.6-5.6l6.3-7.7c1.4-1.7,3.9-2,5.6-.6,1.7,1.4,2,3.9.6,5.6l-6.3,7.7c-.8,1-1.9,1.5-3.1,1.5ZM398.6,844.1c-.9,0-1.8-.3-2.5-.9-1.7-1.4-2-3.9-.6-5.6l6.3-7.7c1.4-1.7,3.9-2,5.6-.6,1.7,1.4,2,3.9.6,5.6l-6.3,7.7c-.8,1-1.9,1.5-3.1,1.5ZM414.4,824.9c-.9,0-1.8-.3-2.5-.9-1.7-1.4-2-3.9-.6-5.6l6.3-7.7c1.4-1.7,3.9-2,5.6-.6,1.7,1.4,2,3.9.6,5.6l-6.3,7.7c-.8,1-1.9,1.5-3.1,1.5ZM430.1,805.6c-.9,0-1.8-.3-2.5-.9-1.7-1.4-2-3.9-.6-5.6,2.1-2.6,4.2-5.1,6.3-7.7,1.4-1.7,3.9-2,5.6-.6,1.7,1.4,2,3.9.6,5.6-2.1,2.6-4.2,5.1-6.3,7.7-.8,1-1.9,1.5-3.1,1.5ZM445.8,786.4c-.9,0-1.8-.3-2.5-.9-1.7-1.4-2-3.9-.6-5.6,2.1-2.6,4.2-5.1,6.2-7.7,1.4-1.7,3.9-2,5.6-.6,1.7,1.4,2,3.9.6,5.6-2.1,2.6-4.2,5.2-6.3,7.7-.8,1-1.9,1.5-3.1,1.5ZM461.4,767c-.9,0-1.8-.3-2.6-.9-1.7-1.4-1.9-3.9-.5-5.6,2.3-2.7,4.6-5.2,6.8-7.5,1.5-1.6,4-1.7,5.7-.2,1.6,1.5,1.7,4,.2,5.7-2.1,2.3-4.4,4.7-6.5,7.2-.8.9-1.9,1.4-3.1,1.4Z"/>
      <path class="st4" d="M478,748.4c-.9,0-1.7-.3-2.5-.9-1.7-1.4-2-3.9-.7-5.6l.6-.7c0,0,0-.1.1-.2,0-.1,0-.2.1-.3.4-1,1.2-2.9,3.3-3.9,2-1,4.4-.2,5.4,1.8.9,1.8.4,3.9-1.2,5,0,0,0,.2,0,.2-.3.7-.7,1.6-1.5,2.5-.2.2-.3.4-.5.6-.8,1-2,1.5-3.1,1.5ZM475.8,740.9s0,0,0,0c0,0,0,0,0,0Z"/>
    </g>
    <g>
      <path class="st4" d="M495.6,734c-1.8,0-3.4-1.2-3.9-3-.6-2.1.7-4.3,2.9-4.9l4.8-1.3c2.1-.6,4.3.7,4.9,2.9.6,2.1-.7,4.3-2.9,4.9l-4.8,1.3c-.3,0-.7.1-1,.1Z"/>
      <path class="st4" d="M514.4,729.1c-1.8,0-3.4-1.2-3.9-3-.6-2.1.7-4.3,2.9-4.9l9.4-2.4c2.1-.6,4.3.7,4.9,2.9.6,2.1-.7,4.3-2.9,4.9l-9.4,2.4c-.3,0-.7.1-1,.1ZM537.8,723.1c-1.8,0-3.4-1.2-3.9-3-.6-2.1.7-4.3,2.9-4.9l9.3-2.4c2.1-.6,4.3.7,4.9,2.9s-.7,4.3-2.9,4.9l-9.3,2.4c-.3,0-.7.1-1,.1ZM561.2,717c-1.8,0-3.4-1.2-3.9-3-.6-2.1.7-4.3,2.9-4.9l9.3-2.4c2.1-.6,4.3.7,4.9,2.9.6,2.1-.7,4.3-2.9,4.9l-9.3,2.4c-.3,0-.7.1-1,.1ZM584.6,710.8c-1.8,0-3.4-1.2-3.9-3-.6-2.1.7-4.3,2.9-4.9l9.3-2.4c2.1-.6,4.3.7,4.9,2.9.6,2.1-.7,4.3-2.9,4.9l-9.3,2.4c-.3,0-.7.1-1,.1ZM607.9,704.7c-1.8,0-3.4-1.2-3.9-3-.6-2.1.7-4.3,2.9-4.9l9.3-2.4c2.1-.6,4.3.7,4.9,2.9.6,2.1-.7,4.3-2.9,4.9l-9.3,2.4c-.3,0-.7.1-1,.1ZM631.3,698.6c-1.8,0-3.4-1.2-3.9-3-.6-2.1.7-4.3,2.9-4.9l9.3-2.4c2.1-.6,4.3.7,4.9,2.9.6,2.1-.7,4.3-2.9,4.9l-9.3,2.4c-.3,0-.7.1-1,.1ZM654.7,692.5c-1.8,0-3.4-1.2-3.9-3-.6-2.1.7-4.3,2.9-4.9l9.3-2.4c2.1-.6,4.3.7,4.9,2.9.6,2.1-.7,4.3-2.9,4.9l-9.3,2.4c-.3,0-.7.1-1,.1ZM678,686.4c-1.8,0-3.4-1.2-3.9-3-.6-2.1.7-4.3,2.9-4.9l9.3-2.4c2.1-.6,4.3.7,4.9,2.9.6,2.1-.7,4.3-2.9,4.9l-9.3,2.4c-.3,0-.7.1-1,.1ZM701.4,680.3c-1.8,0-3.4-1.2-3.9-3-.6-2.1.7-4.3,2.9-4.9l9.3-2.4c2.1-.6,4.3.7,4.9,2.9.6,2.1-.7,4.3-2.9,4.9l-9.4,2.4c-.3,0-.7.1-1,.1ZM724.8,674.1c-1.8,0-3.4-1.2-3.9-3-.6-2.1.7-4.3,2.9-4.9l9.4-2.4c2.1-.6,4.3.7,4.9,2.9.6,2.1-.7,4.3-2.9,4.9l-9.3,2.4c-.3,0-.7.1-1,.1ZM748.2,668c-1.8,0-3.4-1.2-3.9-3-.6-2.1.7-4.3,2.9-4.9l9.4-2.4c2.1-.6,4.3.7,4.9,2.9.6,2.1-.7,4.3-2.9,4.9l-9.4,2.4c-.3,0-.7.1-1,.1ZM771.5,662c-1.8,0-3.4-1.2-3.9-3-.6-2.1.7-4.3,2.9-4.9l9.4-2.4c2.1-.6,4.3.7,4.9,2.9s-.7,4.3-2.9,4.9l-9.4,2.4c-.3,0-.7.1-1,.1ZM794.9,655.9c-1.8,0-3.4-1.2-3.9-3-.6-2.1.7-4.3,2.9-4.9l9.4-2.4c2.1-.6,4.3.7,4.9,2.9s-.7,4.3-2.9,4.9l-9.4,2.4c-.3,0-.7.1-1,.1ZM818.3,649.8c-1.8,0-3.4-1.2-3.9-3-.6-2.1.7-4.3,2.9-4.9l9.4-2.4c2.1-.5,4.3.7,4.9,2.9.6,2.1-.7,4.3-2.9,4.9l-9.4,2.4c-.3,0-.7.1-1,.1Z"/>
      <path class="st4" d="M841.7,643.8c-1.8,0-3.4-1.2-3.9-3-.6-2.1.7-4.3,2.9-4.9l4.8-1.2c2.1-.5,4.3.7,4.9,2.9.6,2.1-.7,4.3-2.9,4.9l-4.8,1.2c-.3,0-.7.1-1,.1Z"/>
      <polygon class="st4" points="837.9 657.7 834.5 655.5 845.1 638.9 827.7 629.6 829.6 626 850.8 637.4 837.9 657.7"/>
    </g>
    <circle class="st4" cx="222.4" cy="1053.4" r="26.2"/>
    <circle class="st4" cx="480.9" cy="740.5" r="26.2"/>
    <circle class="st4" cx="351.6" cy="901.6" r="26.2"/>
    <circle class="st4" cx="610.6" cy="698.1" r="26.2"/>
  </g>
  <g>
    <path class="st2" d="M873.1,240.8c0,.3-.2.5-.5.5h-11.8c0,0-.1,0-.2,0,0,0,0,0,0,.1,0,.3.2.7.4,1.1.3.5.8,1,1.4,1.3.6.3,1.4.5,2.3.5,1.6,0,2.9-.5,3.8-1.6.1-.1.2-.2.3-.2s.2,0,.3.2l3,3.4c.1,0,.2.2.2.3s0,.2-.2.3c-.9,1-2,1.7-3.4,2.3-1.3.5-2.8.8-4.4.8-2.4,0-4.4-.5-6-1.5-1.6-1-2.8-2.5-3.6-4.3-.5-1.3-.8-2.9-.8-4.9s.2-2.6.6-3.9c.7-1.9,1.8-3.4,3.3-4.5,1.5-1.1,3.4-1.6,5.5-1.6s3.2.4,4.6,1.1c1.3.7,2.4,1.8,3.3,3.1.8,1.3,1.4,2.8,1.6,4.4.1.8.2,1.8.1,3.1ZM860.8,236.6c-.1.3-.2.6-.2.8,0,.1,0,.2.2.2h5.5c.1,0,.2,0,.2-.2,0-.2,0-.5-.2-.8-.2-.6-.5-1.1-1-1.5-.5-.3-1.1-.5-1.8-.5-1.3,0-2.2.6-2.7,1.9Z"/>
    <path class="st2" d="M879.6,249.1l-6.1-19.2c0,0,0-.1,0-.2,0-.2.1-.3.4-.3h6.1c.3,0,.5.1.5.4l2.6,10.7c0,0,0,.1.1.1s0,0,.1-.1l2.6-10.7c0-.3.3-.4.5-.4h6c.2,0,.3.1.3.2,0,0,0,.2,0,.4l-6.1,19.1c0,.3-.2.4-.5.4h-6.2c-.3,0-.4-.1-.5-.4Z"/>
    <path class="st2" d="M897,248c-1.6-1.2-2.7-2.9-3.3-5-.3-1.1-.5-2.2-.5-3.5s.2-2.7.5-3.8c.6-2,1.7-3.6,3.3-4.8,1.6-1.2,3.6-1.7,5.9-1.7s4.2.6,5.8,1.7c1.6,1.2,2.7,2.7,3.3,4.8.4,1.2.5,2.4.5,3.7s-.1,2.3-.4,3.4c-.5,2.2-1.6,3.9-3.3,5.2s-3.6,1.9-6,1.9-4.3-.6-5.9-1.9ZM904.8,243.6c.5-.5.9-1.1,1.1-2,.2-.7.2-1.4.2-2.2s0-1.5-.3-2.3c-.2-.8-.6-1.4-1-1.9-.5-.4-1.1-.7-1.9-.7-1.5,0-2.5.8-3,2.5-.2.6-.2,1.4-.2,2.3s0,1.5.2,2.2c.2.8.6,1.5,1.1,2,.5.5,1.1.7,1.9.7s1.4-.2,1.9-.7Z"/>
    <path class="st2" d="M915.6,249.4c0,0-.1-.2-.1-.3v-26.2c0-.1,0-.2.1-.3,0,0,.2-.1.3-.1h5.5c.1,0,.2,0,.3.1,0,0,.1.2.1.3v26.2c0,.1,0,.2-.1.3,0,0-.2.1-.3.1h-5.5c-.1,0-.2,0-.3-.1Z"/>
    <path class="st2" d="M936.8,229.6c0,0,.2-.1.3-.1h5.5c.1,0,.2,0,.3.1s.1.2.1.3v19.1c0,.1,0,.2-.1.3,0,0-.2.1-.3.1h-5.5c-.1,0-.2,0-.3-.1,0,0-.1-.2-.1-.3v-1.4c0,0,0-.1,0-.2,0,0-.1,0-.2,0-1,1.5-2.7,2.2-4.9,2.2s-3.6-.6-4.8-1.9c-1.2-1.2-1.8-3-1.8-5.2v-12.8c0-.1,0-.2.1-.3s.2-.1.3-.1h5.5c.1,0,.2,0,.3.1,0,0,.1.2.1.3v11.4c0,.9.2,1.6.7,2.2.5.5,1.1.8,1.9.8s1.3-.2,1.8-.7c.5-.4.8-1,.9-1.7v-12c0-.1,0-.2.1-.3Z"/>
    <path class="st2" d="M952.9,236.5c-.3.7-.4,1.7-.4,2.9s.1,2.1.4,2.9c.5,1.3,1.4,2,2.8,2s1.3-.2,1.7-.5c.5-.3.8-.8,1-1.5,0,0,0-.1,0-.2,0,0,0,0,0-.2,0-.3.3-.4.5-.4l5.4.9c.3,0,.4.2.4.4,0,.4,0,.8-.2,1.3-.5,1.4-1.3,2.6-2.4,3.6-1.2.9-2.5,1.6-4.2,1.9,0,0-.1,0-.1,0s0,.1,0,.2c1.1,1.1,1.7,2.2,1.7,3.4s0,.7-.2,1c-.3.9-.7,1.6-1.4,2-.7.4-1.5.6-2.4.6s-1.8-.2-2.7-.5c-.3,0-.4-.3-.3-.5l.3-2.4c0-.2,0-.3.2-.3.1,0,.2,0,.4,0,.2,0,.5.1.7.1.6,0,.9-.2,1.1-.7,0-.2,0-.3,0-.3,0-.3-.2-.7-.5-1.1-.3-.4-.8-.8-1.3-1.2,0,0,0,0-.1,0,0,0,0,0,0,0-1.6-.3-3-1-4.1-2-1.2-1-2-2.3-2.6-3.8-.5-1.2-.7-2.7-.7-4.5s.2-3.2.7-4.5c.6-1.8,1.8-3.2,3.4-4.3,1.6-1,3.5-1.5,5.6-1.5s4,.5,5.7,1.6c1.6,1.1,2.7,2.4,3.3,4,.2.5.3,1,.3,1.5,0,.3-.1.5-.4.5l-5.4.8h0c-.2,0-.4-.1-.5-.4v-.3c-.1-.2-.2-.3-.2-.5-.2-.5-.6-.9-1-1.2-.5-.3-1.1-.5-1.7-.5-1.4,0-2.3.6-2.7,1.8Z"/>
    <path class="st2" d="M980.6,230c1.4.6,2.5,1.4,3.3,2.4.8,1,1.2,2.2,1.2,3.4v13.2c0,.1,0,.2-.1.3,0,0-.2.1-.3.1h-5.5c-.1,0-.2,0-.3-.1,0,0-.1-.2-.1-.3v-1.4c0-.1,0-.2,0-.2,0,0-.1,0-.2.1-1,1.5-2.7,2.2-5,2.2s-3.7-.5-4.9-1.5c-1.2-1-1.8-2.4-1.8-4.3s.7-3.5,2.1-4.6c1.4-1.1,3.4-1.6,6-1.6h3.8c.1,0,.2,0,.2-.2v-.7c0-.7-.2-1.2-.7-1.6s-1.1-.6-1.9-.6-1.2.1-1.6.3c-.5.2-.7.5-.9.9-.1.3-.3.4-.5.4l-5.6-.7c-.3,0-.5-.2-.5-.3.1-1.1.5-2.2,1.3-3.1.8-.9,1.9-1.6,3.2-2.2,1.3-.5,2.8-.8,4.4-.8s3.3.3,4.7.9ZM977.3,227.5c-.4-.1-.8-.3-1.2-.5-.5-.2-.9-.4-1.2-.5-.3,0-.5-.1-.8-.1-.9,0-1.5.3-2.1.8-.1.1-.3.2-.4.2s-.2,0-.3-.2l-1.9-2.1c-.2-.2-.2-.4,0-.6.4-.8,1-1.4,1.8-1.9.8-.5,1.6-.7,2.6-.7s1,0,1.4.2c.4.1.8.3,1.1.4s.5.2.6.3c.1,0,.3.1.6.3.3.1.5.2.7.3.2,0,.4,0,.6,0,.8,0,1.4-.3,1.8-.9.1-.2.2-.2.3-.2s.2,0,.3.2l1.7,2.2c.2.2.2.3.2.5-.3.7-.9,1.3-1.6,1.7s-1.7.7-2.8.7-1,0-1.4-.2ZM977.7,244.5c.6-.5,1-1.2,1-2v-.9c0-.1,0-.2-.2-.2h-2.3c-1,0-1.7.2-2.3.5-.5.3-.8.8-.8,1.5s.2,1,.6,1.4c.4.3.9.5,1.6.5s1.8-.3,2.4-.8Z"/>
    <path class="st2" d="M991.5,248c-1.6-1.2-2.7-2.9-3.3-5-.3-1.1-.5-2.2-.5-3.5s.2-2.7.5-3.8c.6-2,1.7-3.6,3.3-4.8,1.6-1.2,3.6-1.7,5.9-1.7s4.2.6,5.8,1.7c1.6,1.2,2.7,2.7,3.3,4.8.4,1.2.5,2.4.5,3.7s-.1,2.3-.4,3.4c-.5,2.2-1.6,3.9-3.3,5.2s-3.6,1.9-6,1.9-4.3-.6-5.9-1.9ZM999.3,243.6c.5-.5.9-1.1,1.1-2,.2-.7.2-1.4.2-2.2s0-1.5-.3-2.3c-.2-.8-.6-1.4-1-1.9-.5-.4-1.1-.7-1.9-.7-1.5,0-2.5.8-3,2.5-.2.6-.2,1.4-.2,2.3s0,1.5.2,2.2c.2.8.6,1.5,1.1,2,.5.5,1.1.7,1.9.7s1.4-.2,1.9-.7Z"/>
    <path class="st2" d="M870.6,263.4c1.3,1.3,1.9,3,1.9,5.2v12.8c0,.1,0,.2-.1.3,0,0-.2.1-.3.1h-5.5c-.1,0-.2,0-.3-.1,0,0-.1-.2-.1-.3v-11.4c0-.9-.2-1.6-.7-2.2s-1.1-.9-1.9-.9-1.5.3-1.9.8c-.5.6-.7,1.3-.7,2.2v11.4c0,.1,0,.2-.1.3,0,0-.2.1-.3.1h-5.5c-.1,0-.2,0-.3-.1,0,0-.1-.2-.1-.3v-26.2c0-.1,0-.2.1-.3,0,0,.2-.1.3-.1h5.5c.1,0,.2,0,.3.1,0,0,.1.2.1.3v8.5c0,.1,0,.2,0,.2,0,0,0,0,.1,0,1-1.5,2.5-2.3,4.7-2.3s3.7.6,5,1.9Z"/>
    <path class="st2" d="M876.6,259.1c-.6-.6-1-1.4-1-2.4s.3-1.8,1-2.4,1.4-.9,2.4-.9,1.8.3,2.4.9c.6.6,1,1.4,1,2.4s-.3,1.8-1,2.4c-.6.6-1.4,1-2.4,1s-1.8-.3-2.4-1ZM875.9,281.7c0,0-.1-.2-.1-.3v-19.1c0-.1,0-.2.1-.3,0,0,.2-.1.3-.1h5.5c.1,0,.2,0,.3.1,0,0,.1.2.1.3v19.1c0,.1,0,.2-.1.3,0,0-.2.1-.3.1h-5.5c-.1,0-.2,0-.3-.1Z"/>
    <path class="st2" d="M905.1,271.9c0,1.8-.3,3.5-.8,4.9-.6,1.6-1.5,2.9-2.9,3.9s-2.9,1.5-4.8,1.5-3.3-.6-4.2-1.8c0,0-.1-.1-.2,0,0,0,0,0,0,.2v8.1c0,.1,0,.2-.1.3,0,0-.2.1-.3.1h-5.5c-.1,0-.2,0-.3-.1,0,0-.1-.2-.1-.3v-26.2c0-.1,0-.2.1-.3s.2-.1.3-.1h5.5c.1,0,.2,0,.3.1s.1.2.1.3v1.3c0,0,0,.1,0,.1,0,0,.1,0,.2,0,1-1.4,2.5-2.1,4.5-2.1s3.3.5,4.7,1.6c1.3,1,2.3,2.5,2.9,4.3.4,1.4.6,2.9.6,4.5ZM898.3,271.8c0-1.4-.2-2.5-.7-3.3-.5-1-1.4-1.5-2.4-1.5s-1.8.5-2.4,1.5c-.4.9-.7,2-.7,3.3s.2,2.6.7,3.5c.5.9,1.3,1.4,2.3,1.4s1.9-.5,2.4-1.4c.5-.9.8-2,.8-3.5Z"/>
    <path class="st2" d="M911.1,280.3c-1.6-1.2-2.7-2.9-3.3-5-.3-1.1-.5-2.2-.5-3.5s.2-2.7.5-3.8c.6-2,1.7-3.6,3.3-4.8,1.6-1.2,3.6-1.7,5.9-1.7s4.2.6,5.8,1.7c1.6,1.2,2.7,2.7,3.3,4.8.4,1.2.5,2.4.5,3.7s-.1,2.3-.4,3.4c-.5,2.2-1.6,3.9-3.3,5.2s-3.6,1.9-6,1.9-4.3-.6-5.9-1.9ZM918.9,276c.5-.5.9-1.1,1.1-2,.2-.7.2-1.4.2-2.2s0-1.5-.3-2.3c-.2-.8-.6-1.4-1-1.9-.5-.4-1.1-.7-1.9-.7-1.5,0-2.5.8-3,2.5-.2.6-.2,1.4-.2,2.3s0,1.5.2,2.2c.2.8.6,1.5,1.1,2,.5.5,1.1.7,1.9.7s1.4-.2,1.9-.7Z"/>
    <path class="st2" d="M941.1,266.8c0,0-.2.1-.3.1h-3.5c-.1,0-.2,0-.2.2v7.1c0,1.5.6,2.2,1.8,2.2h1.4c.1,0,.2,0,.3.1,0,0,.1.2.1.3v4.5c0,.3-.2.5-.5.5-1.2,0-2.1,0-2.7,0-2.3,0-3.9-.4-5-1.1-1.1-.7-1.6-2.1-1.7-4.1v-9.7c0-.1,0-.2-.2-.2h-2.2c-.1,0-.2,0-.3-.1s-.1-.2-.1-.3v-4.2c0-.1,0-.2.1-.3s.2-.1.3-.1h2.2c.1,0,.2,0,.2-.2v-4.7c0-.1,0-.2.1-.3s.2-.1.3-.1h5.2c.1,0,.2,0,.3.1,0,0,.1.2.1.3v4.7c0,.1,0,.2.2.2h3.5c.1,0,.2,0,.3.1s.1.2.1.3v4.2c0,.1,0,.2-.1.3Z"/>
    <path class="st2" d="M962.3,273.1c0,.3-.2.5-.5.5h-11.8c0,0-.1,0-.2,0,0,0,0,0,0,.1,0,.3.2.7.4,1.1.3.5.8,1,1.4,1.3.6.3,1.4.5,2.3.5,1.6,0,2.9-.5,3.8-1.6.1-.1.2-.2.3-.2s.2,0,.3.2l3,3.4c.1,0,.2.2.2.3s0,.2-.2.3c-.9,1-2,1.7-3.4,2.3-1.3.5-2.8.8-4.4.8-2.4,0-4.4-.5-6-1.5-1.6-1-2.8-2.5-3.6-4.3-.5-1.3-.8-2.9-.8-4.9s.2-2.6.6-3.9c.7-1.9,1.8-3.4,3.3-4.5,1.5-1.1,3.4-1.6,5.5-1.6s3.2.4,4.6,1.1c1.3.7,2.4,1.8,3.3,3.1.8,1.3,1.4,2.8,1.6,4.4.1.8.2,1.8.1,3.1ZM949.7,259.3c0-.1,0-.2,0-.4l2-3.8c.1-.2.3-.3.6-.3h4.8c.3,0,.4,0,.4.3s0,.2-.1.3l-2.8,3.9c-.1.2-.3.3-.5.3h-4c-.2,0-.3,0-.3-.2ZM950,268.9c-.1.3-.2.6-.2.8,0,.1,0,.2.2.2h5.5c.1,0,.2,0,.2-.2,0-.2,0-.5-.2-.8-.2-.6-.5-1.1-1-1.5-.5-.3-1.1-.5-1.8-.5-1.3,0-2.2.6-2.7,1.9Z"/>
    <path class="st2" d="M976.6,266.8c0,0-.2.1-.3.1h-3.5c-.1,0-.2,0-.2.2v7.1c0,1.5.6,2.2,1.8,2.2h1.4c.1,0,.2,0,.3.1,0,0,.1.2.1.3v4.5c0,.3-.2.5-.5.5-1.2,0-2.1,0-2.7,0-2.3,0-3.9-.4-5-1.1-1.1-.7-1.6-2.1-1.7-4.1v-9.7c0-.1,0-.2-.2-.2h-2.2c-.1,0-.2,0-.3-.1s-.1-.2-.1-.3v-4.2c0-.1,0-.2.1-.3s.2-.1.3-.1h2.2c.1,0,.2,0,.2-.2v-4.7c0-.1,0-.2.1-.3s.2-.1.3-.1h5.2c.1,0,.2,0,.3.1,0,0,.1.2.1.3v4.7c0,.1,0,.2.2.2h3.5c.1,0,.2,0,.3.1s.1.2.1.3v4.2c0,.1,0,.2-.1.3Z"/>
    <path class="st2" d="M980.3,259.1c-.6-.6-1-1.4-1-2.4s.3-1.8,1-2.4,1.4-.9,2.4-.9,1.8.3,2.4.9c.6.6,1,1.4,1,2.4s-.3,1.8-1,2.4c-.6.6-1.4,1-2.4,1s-1.8-.3-2.4-1ZM979.6,281.7c0,0-.1-.2-.1-.3v-19.1c0-.1,0-.2.1-.3,0,0,.2-.1.3-.1h5.5c.1,0,.2,0,.3.1,0,0,.1.2.1.3v19.1c0,.1,0,.2-.1.3,0,0-.2.1-.3.1h-5.5c-.1,0-.2,0-.3-.1Z"/>
    <path class="st2" d="M992.9,280.6c-1.6-1.1-2.7-2.5-3.4-4.4-.5-1.2-.7-2.7-.7-4.5s.2-3.2.7-4.5c.6-1.8,1.8-3.2,3.4-4.3,1.6-1,3.5-1.5,5.6-1.5s4,.5,5.7,1.6c1.6,1.1,2.7,2.4,3.3,4,.2.5.3,1,.3,1.5,0,.3-.1.5-.4.5l-5.4.8h0c-.2,0-.4-.1-.5-.4v-.3c-.1-.2-.2-.4-.2-.5-.2-.5-.6-.9-1.1-1.2s-1-.5-1.7-.5c-1.4,0-2.3.6-2.7,1.8-.3.7-.4,1.7-.4,2.9s.1,2.1.4,2.9c.5,1.3,1.4,2,2.8,2s1.3-.2,1.7-.5c.5-.3.8-.8,1-1.5,0,0,0-.1,0-.2,0,0,0,0,0-.2,0-.3.3-.4.5-.4l5.4.9c.3,0,.4.2.4.4,0,.4,0,.8-.2,1.3-.6,1.8-1.7,3.2-3.4,4.2-1.6,1-3.5,1.5-5.6,1.5s-4-.5-5.6-1.6Z"/>
    <path class="st2" d="M1023.4,262.4c1.4.6,2.5,1.4,3.3,2.4.8,1,1.2,2.2,1.2,3.4v13.2c0,.1,0,.2-.1.3,0,0-.2.1-.3.1h-5.5c-.1,0-.2,0-.3-.1,0,0-.1-.2-.1-.3v-1.4c0-.1,0-.2,0-.2,0,0-.1,0-.2.1-1,1.5-2.7,2.2-5,2.2s-3.7-.5-4.9-1.5c-1.2-1-1.8-2.4-1.8-4.3s.7-3.5,2.1-4.6c1.4-1.1,3.4-1.6,6-1.6h3.8c.1,0,.2,0,.2-.2v-.7c0-.7-.2-1.2-.7-1.6s-1.1-.6-1.9-.6-1.2.1-1.6.3c-.5.2-.7.5-.9.9-.1.3-.3.4-.5.4l-5.6-.7c-.3,0-.5-.2-.5-.3.1-1.1.5-2.2,1.3-3.1.8-.9,1.9-1.6,3.2-2.2,1.3-.5,2.8-.8,4.4-.8s3.3.3,4.7.9ZM1020.5,276.8c.6-.5,1-1.2,1-2v-.9c0-.1,0-.2-.2-.2h-2.3c-1,0-1.7.2-2.3.5-.5.3-.8.8-.8,1.5s.2,1,.6,1.4c.4.3.9.5,1.6.5s1.8-.3,2.4-.8Z"/>
  </g>
  <g>
    <path class="st2" d="M630.3,386.1l-7.3-26.4h0c0-.3.1-.4.4-.4h3.1c.2,0,.4.1.4.3l5.1,19.3c0,0,0,0,0,0s0,0,0,0l4.8-19.3c0-.2.2-.3.4-.3h3.1c.2,0,.4.1.4.3l5.1,19.4c0,0,0,0,0,0s0,0,0,0l5.1-19.4c0-.2.2-.3.4-.3h2.9c.1,0,.2,0,.3.1,0,0,0,.2,0,.3l-7,26.4c0,.2-.2.3-.4.3h-3c-.2,0-.4-.1-.4-.3l-5.1-20c0,0,0-.1,0-.1s0,0,0,.1l-4.9,20c0,.2-.2.3-.4.3h-2.8c-.2,0-.4-.1-.4-.3Z"/>
    <path class="st2" d="M672.8,377.7c0,.3-.1.4-.4.4h-12.4c-.1,0-.2,0-.2.2,0,.9,0,1.6.2,2,.3,1,.9,1.8,1.7,2.4.9.6,2,.9,3.3.9,1.9,0,3.4-.8,4.4-2.4.1-.3.3-.3.5-.1l2.2,1.5c.2.2.2.3.1.5-.7,1.2-1.8,2.1-3.1,2.8-1.3.7-2.8,1-4.5,1s-3.5-.4-4.8-1.2c-1.3-.8-2.3-2-2.9-3.5-.6-1.5-.9-3.4-.9-5.6s.1-3.3.4-4.3c.5-1.8,1.4-3.2,2.8-4.2s3.1-1.6,5.1-1.6,4.6.7,5.9,2c1.3,1.3,2.1,3.2,2.4,5.8.1,1.1.1,2.3.1,3.6ZM661.7,370.4c-.7.6-1.2,1.3-1.5,2.2-.2.6-.3,1.3-.3,2.2,0,.1,0,.2.2.2h8.9c.1,0,.2,0,.2-.2,0-.9-.1-1.5-.2-1.9-.3-1-.8-1.8-1.5-2.4-.8-.6-1.7-.9-2.9-.9s-2,.3-2.8.8Z"/>
    <path class="st2" d="M694.1,376.5c0,1.9-.2,3.6-.7,5-.6,1.7-1.5,3-2.7,3.9s-2.8,1.4-4.6,1.4-1.7-.2-2.5-.5c-.8-.4-1.4-.9-2-1.5,0,0,0,0-.1,0,0,0,0,0,0,.1v1.3c0,.3-.1.4-.4.4h-3c-.3,0-.4-.1-.4-.4v-26.4c0-.3.1-.4.4-.4h3c.3,0,.4.1.4.4v8.7c0,0,0,0,0,.1,0,0,0,0,.1,0,.6-.6,1.2-1.1,2-1.5.8-.3,1.6-.5,2.5-.5,1.9,0,3.5.5,4.8,1.4,1.2,1,2.1,2.3,2.7,4,.4,1.3.6,2.9.6,4.7ZM690.4,376.6c0-2.1-.4-3.8-1.2-5.1-.8-1.2-1.9-1.9-3.5-1.9s-2.5.7-3.3,2c-.7,1.2-1,2.8-1,5s.3,3.8.9,4.9c.8,1.4,1.9,2.1,3.4,2.1s2.9-.7,3.7-2.1c.6-1.2,1-2.8,1-4.8Z"/>
    <path class="st2" d="M724,376.2v2.6c0,.3-.1.4-.4.4h-1.7c-.1,0-.2,0-.2.2v6.8c0,.3-.1.4-.4.4h-3c-.3,0-.4-.1-.4-.4v-6.8c0-.1,0-.2-.2-.2h-11.8c-.3,0-.4-.1-.4-.4v-2.1c0-.1,0-.3.1-.5l7.6-16.7c0-.2.2-.3.4-.3h3.1c.1,0,.2,0,.3.1s0,.2,0,.3l-7.3,15.9c0,0,0,0,0,.1,0,0,0,0,.1,0h7.8c.1,0,.2,0,.2-.2v-5.8c0-.3.1-.4.4-.4h3c.3,0,.4.1.4.4v5.8c0,.1,0,.2.2.2h1.7c.3,0,.4.1.4.4Z"/>
    <path class="st2" d="M729.6,385.8c-.5-.5-.7-1.1-.7-1.8s.2-1.3.7-1.8,1.1-.7,1.8-.7,1.3.2,1.8.7.7,1.1.7,1.8-.2,1.3-.7,1.8-1.1.7-1.8.7-1.3-.2-1.8-.7Z"/>
    <path class="st2" d="M740.4,384.6c-1.5-1.5-2.3-3.5-2.3-6v-11.5c0-2.5.8-4.5,2.3-6,1.5-1.5,3.6-2.2,6.2-2.2s4.7.7,6.3,2.2c1.6,1.5,2.3,3.5,2.3,6v11.5c0,2.5-.8,4.5-2.3,6s-3.7,2.2-6.3,2.2-4.7-.7-6.2-2.2ZM750.2,382.3c.9-.9,1.3-2,1.3-3.5v-11.9c0-1.4-.4-2.6-1.3-3.5s-2.1-1.3-3.6-1.3-2.6.4-3.5,1.3-1.3,2-1.3,3.5v11.9c0,1.4.4,2.6,1.3,3.5s2,1.3,3.5,1.3,2.7-.4,3.6-1.3Z"/>
  </g>
  <g>
    <path class="st2" d="M504.2,540.3l-7.3-26.4h0c0-.3.1-.4.4-.4h3.1c.2,0,.4.1.4.3l5.1,19.3c0,0,0,0,0,0s0,0,0,0l4.8-19.3c0-.2.2-.3.4-.3h3.1c.2,0,.4.1.4.3l5.1,19.4c0,0,0,0,0,0s0,0,0,0l5.1-19.4c0-.2.2-.3.4-.3h2.9c.1,0,.2,0,.3.1,0,0,0,.2,0,.3l-7,26.4c0,.2-.2.3-.4.3h-3c-.2,0-.4-.1-.4-.3l-5.1-20c0,0,0-.1,0-.1s0,0,0,.1l-4.9,20c0,.2-.2.3-.4.3h-2.8c-.2,0-.4-.1-.4-.3Z"/>
    <path class="st2" d="M546.7,531.9c0,.3-.1.4-.4.4h-12.4c-.1,0-.2,0-.2.2,0,.9,0,1.6.2,2,.3,1,.9,1.8,1.7,2.4.9.6,2,.9,3.3.9,1.9,0,3.4-.8,4.4-2.4.1-.3.3-.3.5-.1l2.2,1.5c.2.2.2.3.1.5-.7,1.2-1.8,2.1-3.1,2.8-1.3.7-2.8,1-4.5,1s-3.5-.4-4.8-1.2c-1.3-.8-2.3-2-2.9-3.5-.6-1.5-.9-3.4-.9-5.6s.1-3.3.4-4.3c.5-1.8,1.4-3.2,2.8-4.2,1.4-1,3.1-1.6,5.1-1.6s4.6.7,5.9,2,2.1,3.2,2.4,5.8c.1,1.1.1,2.3.1,3.6ZM535.6,524.6c-.7.6-1.2,1.3-1.5,2.2-.2.6-.3,1.3-.3,2.2,0,.1,0,.2.2.2h8.9c.1,0,.2,0,.2-.2,0-.9-.1-1.5-.2-1.9-.3-1-.8-1.8-1.5-2.4-.8-.6-1.7-.9-2.9-.9s-2,.3-2.8.8Z"/>
    <path class="st2" d="M568,530.7c0,1.9-.2,3.6-.7,5-.6,1.7-1.5,3-2.7,3.9-1.2.9-2.8,1.4-4.6,1.4s-1.7-.2-2.5-.5c-.8-.4-1.4-.9-2-1.5,0,0,0,0-.1,0s0,0,0,.1v1.3c0,.3-.1.4-.4.4h-3c-.3,0-.4-.1-.4-.4v-26.4c0-.3.1-.4.4-.4h3c.3,0,.4.1.4.4v8.7c0,0,0,0,0,.1,0,0,0,0,.1,0,.6-.6,1.2-1.1,2-1.5.8-.3,1.6-.5,2.5-.5,1.9,0,3.5.5,4.8,1.4,1.2,1,2.1,2.3,2.7,4,.4,1.3.6,2.9.6,4.7ZM564.2,530.8c0-2.1-.4-3.8-1.2-5.1-.8-1.2-1.9-1.9-3.5-1.9s-2.5.7-3.3,2c-.7,1.2-1,2.8-1,5s.3,3.8.9,4.9c.8,1.4,1.9,2.1,3.4,2.1s2.9-.7,3.7-2.1c.6-1.2,1-2.8,1-4.8Z"/>
    <path class="st2" d="M596,532.1c0,1.4-.2,2.6-.6,3.8-.6,1.6-1.5,2.8-2.8,3.7-1.3.9-2.9,1.3-4.8,1.3s-3.5-.5-4.8-1.4c-1.4-1-2.3-2.3-2.9-3.9-.3-.7-.5-1.8-.5-3.1,0-.3.1-.4.4-.4h3c.3,0,.4.1.4.4,0,.9.2,1.6.3,2.1.3,1,.7,1.7,1.5,2.3.7.6,1.6.9,2.7.9,2,0,3.3-.9,4-2.7.3-.8.5-1.8.5-3s-.2-2.5-.6-3.5c-.7-1.6-2-2.4-3.9-2.4s-1,.2-1.7.6c-.1,0-.2,0-.2,0-.1,0-.2,0-.3-.2l-1.5-2c0-.1,0-.2,0-.3s0-.2.1-.3l6.6-7.1c0-.1,0-.2,0-.2h-10.3c-.3,0-.4-.1-.4-.4v-2.4c0-.3.1-.4.4-.4h15.1c.3,0,.4.1.4.4v2.8c0,.1,0,.3-.2.5l-5.9,6.4c0,0,0,0,0,.1,0,0,0,0,.2,0,1.3.1,2.4.5,3.3,1.2.9.7,1.6,1.6,2.1,2.7.5,1.3.8,2.7.8,4.4Z"/>
    <path class="st2" d="M601.7,539.9c-.5-.5-.7-1.1-.7-1.8s.2-1.3.7-1.8,1.1-.7,1.8-.7,1.3.2,1.8.7.7,1.1.7,1.8-.2,1.3-.7,1.8-1.1.7-1.8.7-1.3-.2-1.8-.7Z"/>
    <path class="st2" d="M612.4,538.8c-1.5-1.5-2.3-3.5-2.3-6v-11.5c0-2.5.8-4.5,2.3-6,1.5-1.5,3.6-2.2,6.2-2.2s4.7.7,6.3,2.2c1.6,1.5,2.3,3.5,2.3,6v11.5c0,2.5-.8,4.5-2.3,6-1.6,1.5-3.7,2.2-6.3,2.2s-4.7-.7-6.2-2.2ZM622.2,536.5c.9-.9,1.3-2,1.3-3.5v-11.9c0-1.4-.4-2.6-1.3-3.5-.9-.9-2.1-1.3-3.6-1.3s-2.6.4-3.5,1.3c-.9.9-1.3,2-1.3,3.5v11.9c0,1.4.4,2.6,1.3,3.5.9.9,2,1.3,3.5,1.3s2.7-.4,3.6-1.3Z"/>
  </g>
  <g>
    <path class="st4" d="M376.9,693.4l-7.3-26.4h0c0-.3.1-.4.4-.4h3.1c.2,0,.4.1.4.3l5.1,19.3c0,0,0,0,0,0s0,0,0,0l4.8-19.3c0-.2.2-.3.4-.3h3.1c.2,0,.4.1.4.3l5.1,19.4c0,0,0,0,0,0s0,0,0,0l5.1-19.4c0-.2.2-.3.4-.3h3c.1,0,.2,0,.3.1,0,0,0,.2,0,.3l-7,26.4c0,.2-.2.3-.4.3h-3c-.2,0-.4-.1-.4-.3l-5.1-20c0,0,0-.1,0-.1s0,0,0,.1l-4.9,20c0,.2-.2.3-.4.3h-2.8c-.2,0-.4-.1-.4-.3Z"/>
    <path class="st4" d="M419.5,685c0,.3-.1.4-.4.4h-12.4c-.1,0-.2,0-.2.2,0,.9,0,1.6.2,2,.3,1,.9,1.8,1.7,2.4s2,.9,3.3.9c1.9,0,3.4-.8,4.4-2.4.1-.3.3-.3.5-.1l2.2,1.5c.2.2.2.3.1.5-.7,1.2-1.8,2.1-3.1,2.8-1.3.7-2.8,1-4.5,1s-3.5-.4-4.8-1.2-2.3-2-2.9-3.5c-.6-1.5-.9-3.4-.9-5.6s.1-3.3.4-4.3c.5-1.8,1.4-3.2,2.8-4.2,1.4-1,3.1-1.6,5.1-1.6s4.6.7,5.9,2c1.3,1.3,2.1,3.2,2.4,5.8.1,1.1.1,2.3.1,3.6ZM408.4,677.7c-.7.6-1.2,1.3-1.5,2.2-.2.6-.3,1.3-.3,2.2,0,.1,0,.2.2.2h8.9c.1,0,.2,0,.2-.2,0-.9-.1-1.5-.2-1.9-.3-1-.8-1.8-1.5-2.4-.8-.6-1.7-.9-2.9-.9s-2,.3-2.8.8Z"/>
    <path class="st4" d="M440.7,683.8c0,1.9-.2,3.6-.7,5-.6,1.7-1.5,3-2.7,3.9-1.2.9-2.8,1.4-4.6,1.4s-1.7-.2-2.5-.5c-.8-.4-1.4-.9-2-1.5,0,0,0,0-.1,0s0,0,0,.1v1.3c0,.3-.1.4-.4.4h-2.9c-.3,0-.4-.1-.4-.4v-26.4c0-.3.1-.4.4-.4h2.9c.3,0,.4.1.4.4v8.7c0,0,0,0,0,.1s0,0,.1,0c.6-.6,1.2-1.1,2-1.5.8-.3,1.6-.5,2.5-.5,1.9,0,3.5.5,4.8,1.4,1.2,1,2.1,2.3,2.7,4,.4,1.3.6,2.9.6,4.7ZM437,683.9c0-2.1-.4-3.8-1.2-5.1-.8-1.2-1.9-1.9-3.5-1.9s-2.5.7-3.3,2c-.7,1.2-1,2.8-1,5s.3,3.8.9,4.9c.8,1.4,1.9,2.1,3.4,2.1s2.9-.7,3.7-2.1c.6-1.2,1-2.8,1-4.8Z"/>
    <path class="st4" d="M457.6,690.5s0,0,.1,0h11.7c.3,0,.4.1.4.4v2.4c0,.3-.1.4-.4.4h-16.3c-.3,0-.4-.1-.4-.4v-2.4c0-.2,0-.3.2-.5.9-1,2.9-3.4,6.1-7.1l2.7-3.2c2.4-2.9,3.6-5.1,3.6-6.7s-.4-2.2-1.2-2.9c-.8-.7-1.9-1.1-3.2-1.1s-2.4.4-3.2,1.1c-.8.8-1.2,1.7-1.2,3v1.2c0,.3-.1.4-.4.4h-3c-.3,0-.4-.1-.4-.4v-1.7c0-1.3.4-2.5,1.1-3.6s1.7-1.8,2.9-2.4c1.2-.6,2.6-.8,4.1-.8s3.1.3,4.3.9,2.2,1.5,2.9,2.6,1,2.3,1,3.7c0,2.1-1.2,4.7-3.5,7.6-1,1.3-2.3,2.8-3.7,4.4-1.4,1.6-2.8,3.3-4.3,4.8,0,0,0,0,0,.1Z"/>
    <path class="st4" d="M475.2,693c-.5-.5-.7-1.1-.7-1.8s.2-1.3.7-1.8,1.1-.7,1.8-.7,1.3.2,1.8.7.7,1.1.7,1.8-.2,1.3-.7,1.8-1.1.7-1.8.7-1.3-.2-1.8-.7Z"/>
    <path class="st4" d="M486,691.9c-1.5-1.5-2.3-3.5-2.3-6v-11.5c0-2.5.8-4.5,2.3-6,1.5-1.5,3.6-2.2,6.2-2.2s4.7.7,6.3,2.2c1.6,1.5,2.3,3.5,2.3,6v11.5c0,2.5-.8,4.5-2.3,6-1.6,1.5-3.7,2.2-6.3,2.2s-4.7-.7-6.2-2.2ZM495.8,689.6c.9-.9,1.3-2,1.3-3.5v-11.9c0-1.4-.4-2.6-1.3-3.5-.9-.9-2.1-1.3-3.6-1.3s-2.6.4-3.5,1.3c-.9.9-1.3,2-1.3,3.5v11.9c0,1.4.4,2.6,1.3,3.5.9.9,2,1.3,3.5,1.3s2.7-.4,3.6-1.3Z"/>
  </g>
  <g>
    <path class="st4" d="M656.2,733.3l-7.3-26.4h0c0-.3.1-.4.4-.4h3.1c.2,0,.4.1.4.3l5.1,19.3c0,0,0,0,0,0s0,0,0,0l4.8-19.3c0-.2.2-.3.4-.3h3.1c.2,0,.4.1.4.3l5.1,19.4c0,0,0,0,0,0s0,0,0,0l5.1-19.4c0-.2.2-.3.4-.3h2.9c.1,0,.2,0,.3.1,0,0,0,.2,0,.3l-7,26.4c0,.2-.2.3-.4.3h-3c-.2,0-.4-.1-.4-.3l-5.1-20c0,0,0-.1,0-.1s0,0,0,.1l-4.9,20c0,.2-.2.3-.4.3h-2.8c-.2,0-.4-.1-.4-.3Z"/>
    <path class="st4" d="M698.7,724.9c0,.3-.1.4-.4.4h-12.4c-.1,0-.2,0-.2.2,0,.9,0,1.6.2,2,.3,1,.9,1.8,1.7,2.4.9.6,2,.9,3.3.9,1.9,0,3.4-.8,4.4-2.4.1-.3.3-.3.5-.1l2.2,1.5c.2.2.2.3.1.5-.7,1.2-1.8,2.1-3.1,2.8-1.3.7-2.8,1-4.5,1s-3.5-.4-4.8-1.2c-1.3-.8-2.3-2-2.9-3.5-.6-1.5-.9-3.4-.9-5.6s.1-3.3.4-4.3c.5-1.8,1.4-3.2,2.8-4.2,1.4-1,3.1-1.6,5.1-1.6s4.6.7,5.9,2c1.3,1.3,2.1,3.2,2.4,5.8.1,1.1.1,2.3.1,3.6ZM687.6,717.6c-.7.6-1.2,1.3-1.5,2.2-.2.6-.3,1.3-.3,2.2,0,.1,0,.2.2.2h8.9c.1,0,.2,0,.2-.2,0-.9-.1-1.5-.2-1.9-.3-1-.8-1.8-1.5-2.4-.8-.6-1.7-.9-2.9-.9s-2,.3-2.8.8Z"/>
    <path class="st4" d="M720,723.7c0,1.9-.2,3.6-.7,5-.6,1.7-1.5,3-2.7,3.9-1.2.9-2.8,1.4-4.6,1.4s-1.7-.2-2.5-.5c-.8-.4-1.4-.9-2-1.5,0,0,0,0-.1,0s0,0,0,.1v1.3c0,.3-.1.4-.4.4h-3c-.3,0-.4-.1-.4-.4v-26.4c0-.3.1-.4.4-.4h3c.3,0,.4.1.4.4v8.7c0,0,0,0,0,.1s0,0,.1,0c.6-.6,1.2-1.1,2-1.5.8-.3,1.6-.5,2.5-.5,1.9,0,3.5.5,4.8,1.4,1.2,1,2.1,2.3,2.7,4,.4,1.3.6,2.9.6,4.7ZM716.2,723.8c0-2.1-.4-3.8-1.2-5.1-.8-1.2-1.9-1.9-3.5-1.9s-2.5.7-3.3,2c-.7,1.2-1,2.8-1,5s.3,3.8.9,4.9c.8,1.4,1.9,2.1,3.4,2.1s2.9-.7,3.7-2.1c.6-1.2,1-2.8,1-4.8Z"/>
    <path class="st4" d="M736.9,730.4s0,0,.1,0h11.7c.3,0,.4.1.4.4v2.4c0,.3-.1.4-.4.4h-16.3c-.3,0-.4-.1-.4-.4v-2.4c0-.2,0-.3.2-.5.9-1,2.9-3.4,6.1-7.1l2.7-3.2c2.4-2.9,3.6-5.1,3.6-6.7s-.4-2.2-1.2-2.9c-.8-.7-1.9-1.1-3.2-1.1s-2.4.4-3.2,1.1c-.8.8-1.2,1.7-1.2,3v1.2c0,.3-.1.4-.4.4h-3c-.3,0-.4-.1-.4-.4v-1.7c0-1.3.4-2.5,1.1-3.6s1.7-1.8,2.9-2.4c1.2-.6,2.6-.8,4.1-.8s3.1.3,4.3.9,2.2,1.5,2.9,2.6,1,2.3,1,3.7c0,2.1-1.2,4.7-3.5,7.6-1,1.3-2.3,2.8-3.7,4.4-1.4,1.6-2.8,3.3-4.3,4.8,0,0,0,0,0,.1Z"/>
    <path class="st4" d="M754.5,732.9c-.5-.5-.7-1.1-.7-1.8s.2-1.3.7-1.8,1.1-.7,1.8-.7,1.3.2,1.8.7.7,1.1.7,1.8-.2,1.3-.7,1.8-1.1.7-1.8.7-1.3-.2-1.8-.7Z"/>
    <path class="st4" d="M780.3,725.1c0,1.2-.2,2.3-.5,3.4-.5,1.7-1.4,3-2.8,3.9-1.4,1-3,1.5-4.9,1.5s-3.5-.5-4.9-1.4c-1.3-.9-2.3-2.2-2.8-3.8-.3-.7-.4-1.4-.4-1.9h0c0-.3.1-.4.3-.4h3.1c.2,0,.4.1.4.3,0,.2,0,.5.2.8.3,1,.8,1.7,1.5,2.3s1.6.8,2.6.8,2-.3,2.7-.9,1.2-1.4,1.5-2.4c.2-.5.3-1.3.3-2.3s0-1.6-.2-2.4c-.2-1-.6-1.7-1.4-2.3s-1.6-.8-2.7-.8-1.9.2-2.7.7-1.3,1.1-1.6,1.8c0,.2-.2.3-.4.3h-3.1c-.3,0-.4-.1-.4-.4v-15.3c0-.3.1-.4.4-.4h14.5c.3,0,.4.1.4.4v2.4c0,.3-.1.4-.4.4h-11c-.1,0-.2,0-.2.2v8.1c0,.2,0,.2.2.1.6-.5,1.3-1,2.2-1.2.8-.3,1.7-.4,2.6-.4,1.8,0,3.4.5,4.7,1.4,1.3.9,2.2,2.2,2.6,3.8.3,1.1.4,2.3.4,3.5Z"/>
  </g>
  <g>
    <path class="st4" d="M249.7,863.8l-7.3-26.4h0c0-.3.1-.4.4-.4h3.1c.2,0,.4.1.4.3l5.1,19.3c0,0,0,0,0,0s0,0,0,0l4.8-19.3c0-.2.2-.3.4-.3h3.1c.2,0,.4.1.4.3l5.1,19.4c0,0,0,0,0,0s0,0,0,0l5.1-19.4c0-.2.2-.3.4-.3h3c.1,0,.2,0,.3.1,0,0,0,.2,0,.3l-7,26.4c0,.2-.2.3-.4.3h-3c-.2,0-.4-.1-.4-.3l-5.1-20c0,0,0-.1,0-.1s0,0,0,.1l-4.9,20c0,.2-.2.3-.4.3h-2.8c-.2,0-.4-.1-.4-.3Z"/>
    <path class="st4" d="M292.2,855.3c0,.3-.1.4-.4.4h-12.4c-.1,0-.2,0-.2.2,0,.9,0,1.6.2,2,.3,1,.9,1.8,1.7,2.4.9.6,2,.9,3.3.9,1.9,0,3.4-.8,4.4-2.4.1-.3.3-.3.5-.1l2.2,1.5c.2.2.2.3.1.5-.7,1.2-1.8,2.1-3.1,2.8-1.3.7-2.8,1-4.5,1s-3.5-.4-4.8-1.2-2.3-2-2.9-3.5c-.6-1.5-.9-3.4-.9-5.6s.1-3.3.4-4.3c.5-1.8,1.4-3.2,2.8-4.2,1.4-1,3.1-1.6,5.1-1.6s4.6.7,5.9,2c1.3,1.3,2.1,3.2,2.4,5.8.1,1.1.1,2.3.1,3.6ZM281.1,848.1c-.7.6-1.2,1.3-1.5,2.2-.2.6-.3,1.3-.3,2.2,0,.1,0,.2.2.2h8.9c.1,0,.2,0,.2-.2,0-.9-.1-1.5-.2-1.9-.3-1-.8-1.8-1.5-2.4-.8-.6-1.7-.9-2.9-.9s-2,.3-2.8.8Z"/>
    <path class="st4" d="M313.5,854.2c0,1.9-.2,3.6-.7,5-.6,1.7-1.5,3-2.7,3.9-1.2.9-2.8,1.4-4.6,1.4s-1.7-.2-2.5-.5c-.8-.4-1.4-.9-2-1.5,0,0,0,0-.1,0,0,0,0,0,0,.1v1.3c0,.3-.1.4-.4.4h-2.9c-.3,0-.4-.1-.4-.4v-26.4c0-.3.1-.4.4-.4h2.9c.3,0,.4.1.4.4v8.7c0,0,0,0,0,.1,0,0,0,0,.1,0,.6-.6,1.2-1.1,2-1.5.8-.3,1.6-.5,2.5-.5,1.9,0,3.5.5,4.8,1.4s2.1,2.3,2.7,4c.4,1.3.6,2.9.6,4.7ZM309.8,854.2c0-2.1-.4-3.8-1.2-5.1-.8-1.2-1.9-1.9-3.5-1.9s-2.5.7-3.3,2c-.7,1.2-1,2.8-1,5s.3,3.8.9,4.9c.8,1.4,1.9,2.1,3.4,2.1s2.9-.7,3.7-2.1c.6-1.2,1-2.8,1-4.8Z"/>
    <path class="st4" d="M330.6,836.9h3.1c.3,0,.4.1.4.4v26.4c0,.3-.1.4-.4.4h-2.9c-.3,0-.4-.1-.4-.4v-22.8c0,0,0,0,0-.1,0,0,0,0-.1,0l-4.1,1.4c0,0-.1,0-.2,0-.2,0-.2-.1-.3-.3l-.2-2.2c0-.3,0-.4.2-.5l4.4-2.2c.2,0,.3-.1.5-.1Z"/>
    <path class="st4" d="M340.6,863.4c-.5-.5-.7-1.1-.7-1.8s.2-1.3.7-1.8,1.1-.7,1.8-.7,1.3.2,1.8.7.7,1.1.7,1.8-.2,1.3-.7,1.8-1.1.7-1.8.7-1.3-.2-1.8-.7Z"/>
    <path class="st4" d="M351.3,862.2c-1.5-1.5-2.3-3.5-2.3-6v-11.5c0-2.5.8-4.5,2.3-6,1.5-1.5,3.6-2.2,6.2-2.2s4.7.7,6.3,2.2c1.6,1.5,2.3,3.5,2.3,6v11.5c0,2.5-.8,4.5-2.3,6-1.6,1.5-3.7,2.2-6.3,2.2s-4.7-.7-6.2-2.2ZM361.1,860c.9-.9,1.3-2,1.3-3.5v-11.9c0-1.4-.4-2.6-1.3-3.5-.9-.9-2.1-1.3-3.6-1.3s-2.6.4-3.5,1.3c-.9.9-1.3,2-1.3,3.5v11.9c0,1.4.4,2.6,1.3,3.5.9.9,2,1.3,3.5,1.3s2.7-.4,3.6-1.3Z"/>
  </g>
  <g>
    <path class="st4" d="M144,991c1.2.7,2.1,1.6,2.8,2.8.7,1.2,1,2.6,1,4.1s-.3,2.9-1,4.1c-.7,1.2-1.6,2.1-2.9,2.7-1.2.6-2.6,1-4.3,1h-6.8c-.1,0-.2,0-.2.2v11c0,.3-.1.4-.4.4h-3c-.3,0-.4-.1-.4-.4v-26.4c0-.3.1-.4.4-.4h10.5c1.6,0,3,.3,4.2,1ZM142.8,1001.3c.9-.9,1.3-2,1.3-3.4s-.4-2.6-1.3-3.4c-.9-.9-2-1.3-3.4-1.3h-6.5c-.1,0-.2,0-.2.2v9.1c0,.1,0,.2.2.2h6.5c1.4,0,2.6-.4,3.4-1.3Z"/>
    <path class="st4" d="M156,1016.4c-1.4-.7-2.5-1.8-3.3-3.1-.8-1.4-1.2-2.9-1.2-4.7v-10.1c0-1.8.4-3.3,1.2-4.6.8-1.3,1.9-2.4,3.3-3.1,1.4-.7,3.1-1.1,4.9-1.1s3.5.4,4.9,1.1c1.4.7,2.5,1.7,3.3,3,.8,1.3,1.2,2.8,1.2,4.5h0c0,.2,0,.3-.1.3,0,0-.2.1-.3.1l-3,.2c-.3,0-.4-.1-.4-.3h0c0-1.8-.5-3.1-1.6-4.1-1-1-2.4-1.5-4.2-1.5s-3.1.5-4.2,1.5c-1,1-1.6,2.3-1.6,4v10.3c0,1.7.5,3,1.6,4,1,1,2.4,1.5,4.2,1.5s3.1-.5,4.2-1.5c1-1,1.6-2.3,1.6-4h0c0-.3.1-.4.4-.4l3,.2c.3,0,.4.1.4.4,0,1.7-.4,3.2-1.2,4.5-.8,1.3-1.9,2.3-3.3,3-1.4.7-3.1,1.1-4.9,1.1s-3.5-.4-4.9-1.1Z"/>
    <path class="st4" d="M201.2,993.2h-13.8c-.1,0-.2,0-.2.2v8.3c0,.1,0,.2.2.2h9.5c.3,0,.4.1.4.4v2.4c0,.3-.1.4-.4.4h-9.5c-.1,0-.2,0-.2.2v8.5c0,.1,0,.2.2.2h13.8c.3,0,.4.1.4.4v2.4c0,.3-.1.4-.4.4h-17.3c-.3,0-.4-.1-.4-.4v-26.4c0-.3.1-.4.4-.4h17.3c.3,0,.4.1.4.4v2.4c0,.3-.1.4-.4.4Z"/>
    <path class="st4" d="M217.2,997.7c.2,0,.2.2.2.5l-.6,2.9c0,.2-.2.3-.5.2-.4-.2-1-.3-1.6-.3h-.5c-1.2,0-2.2.5-3,1.3-.8.8-1.2,1.8-1.2,3.1v11.3c0,.3-.1.4-.4.4h-3c-.3,0-.4-.1-.4-.4v-19c0-.3.1-.4.4-.4h3c.3,0,.4.1.4.4v2.1c0,0,0,.1,0,.1,0,0,0,0,0,0,1.2-1.8,2.8-2.7,4.8-2.7s1.6.2,2.3.5Z"/>
    <path class="st4" d="M231.9,998c1.2.6,2.1,1.3,2.7,2.3.6,1,1,2.1,1,3.4v13.1c0,.3-.1.4-.4.4h-2.9c-.3,0-.4-.1-.4-.4v-1.4c0-.1,0-.2-.2,0-.7.7-1.5,1.2-2.5,1.6-1,.4-2.1.6-3.2.6-1.9,0-3.5-.5-4.8-1.5-1.3-1-1.9-2.4-1.9-4.4s.7-3.6,2.1-4.8c1.4-1.2,3.4-1.7,5.9-1.7h4.3c.1,0,.2,0,.2-.2v-1c0-1.1-.3-2-1-2.7-.7-.6-1.7-1-3-1s-2,.2-2.7.6c-.7.4-1.1,1-1.3,1.7,0,.3-.2.4-.5.3l-3.1-.4c-.3,0-.4-.2-.3-.3.2-1.5,1-2.8,2.4-3.7,1.4-1,3.2-1.5,5.4-1.5s3,.3,4.1.8ZM230.3,1013.3c1-.7,1.5-1.6,1.5-2.8v-2.3c0-.1,0-.2-.2-.2h-3.6c-1.5,0-2.7.3-3.6.9-.9.6-1.4,1.4-1.4,2.5s.3,1.7,1,2.2c.7.5,1.6.7,2.7.7s2.6-.4,3.6-1.1Z"/>
  </g>
  <g>
    <path class="st0" d="M77.1,764.6c-.5,1.4-1.2,2.4-2.1,3.2-.9.7-2,1.1-3.2,1.1h-.4c-.1,0-.2,0-.3-.1,0,0-.1-.2-.1-.3v-5.2c0-.1,0-.2.1-.3,0,0,.2-.1.3-.1.5,0,.9-.3,1.2-.8.3-.5.5-1.2.5-2.1s-.1-1.3-.4-1.7c-.2-.4-.6-.6-1-.6s-.7.2-.9.7c-.2.5-.4,1.2-.6,2.2-.3,1.6-.7,3-1.1,4-.5,1.3-1.2,2.4-2,3.1-.8.8-1.9,1.2-3.4,1.2-2,0-3.6-.8-4.8-2.3-1.2-1.6-1.8-3.6-1.8-6.2s.3-3.3.8-4.6c.6-1.3,1.3-2.3,2.3-3,1-.7,2.2-1.1,3.5-1.1s.2,0,.3.1c0,0,.1.2.1.3v5.1c0,.1,0,.2-.1.3,0,0-.2.1-.3.1-.5,0-.9.2-1.2.7s-.5,1.1-.5,1.9.1,1.3.4,1.8c.2.5.6.7,1,.7s.8-.2,1-.7c.2-.5.4-1.3.6-2.5.3-1.5.6-2.5.7-3.1.5-1.6,1.2-2.9,2.1-3.7.9-.9,2.1-1.3,3.5-1.3s3.6.8,4.7,2.4c1.1,1.6,1.6,3.7,1.6,6.4s-.3,3.4-.8,4.8Z"/>
    <path class="st0" d="M68.8,729.8c.3,0,.5.2.5.5v11.8c0,0,0,.1,0,.2,0,0,0,0,.1,0,.3,0,.7-.2,1.1-.4.5-.3,1-.8,1.3-1.4.3-.6.5-1.4.5-2.3,0-1.6-.5-2.9-1.6-3.8-.1-.1-.2-.2-.2-.3s0-.2.2-.3l3.4-3c0-.1.2-.2.3-.2s.2,0,.3.2c1,.9,1.7,2,2.3,3.4.5,1.3.8,2.8.8,4.4,0,2.4-.5,4.4-1.5,6-1,1.6-2.5,2.8-4.3,3.6-1.3.5-2.9.8-4.9.8s-2.6-.2-3.9-.6c-1.9-.7-3.4-1.8-4.5-3.3-1.1-1.5-1.6-3.4-1.6-5.5s.4-3.2,1.1-4.6c.7-1.3,1.8-2.4,3.1-3.3,1.3-.8,2.8-1.4,4.4-1.6.8-.1,1.8-.2,3.1-.1ZM64.5,742.1c.3.1.6.2.8.2.1,0,.2,0,.2-.2v-5.5c0-.1,0-.2-.2-.2-.2,0-.5,0-.8.2-.6.2-1.1.5-1.5,1-.3.5-.5,1.1-.5,1.8,0,1.3.6,2.2,1.9,2.7Z"/>
    <path class="st0" d="M59,699.4c1.2-1.1,3-1.7,5.2-1.7h12.8c.1,0,.2,0,.3.1,0,0,.1.2.1.3v5.5c0,.1,0,.2-.1.3,0,0-.2.1-.3.1h-11.4c-.9,0-1.6.2-2.2.7-.6.5-.8,1.1-.8,1.8s.3,1.4.8,1.8c.5.5,1.3.7,2.2.7h11.4c.1,0,.2,0,.3.1,0,0,.1.2.1.3v5.5c0,.1,0,.2-.1.3,0,0-.2.1-.3.1h-11.4c-.9,0-1.6.2-2.2.7-.6.5-.8,1.1-.8,1.8s.2,1.3.7,1.7c.4.5,1,.8,1.7.9h12c.1,0,.2,0,.3.1,0,0,.1.2.1.3v5.5c0,.1,0,.2-.1.3,0,0-.2.1-.3.1h-19.1c-.1,0-.2,0-.3-.1,0,0-.1-.2-.1-.3v-5.5c0-.1,0-.2.1-.3,0,0,.2-.1.3-.1h1.7c.1,0,.2,0,.2,0,0,0,0-.1-.1-.2-1.7-1-2.6-2.7-2.6-5s.3-2.4.9-3.4c.6-1,1.4-1.7,2.5-2.3.2,0,.1-.2,0-.2-1.1-.5-1.9-1.3-2.5-2.2-.5-.9-.8-2-.8-3.3,0-2,.6-3.6,1.9-4.7Z"/>
    <path class="st0" d="M55.1,692.3c-.1,0-.3,0-.4,0l-4.1-2.8c-.2-.1-.3-.3-.3-.5v-6.2c0-.2.1-.4.3-.5l4.1-2.9c0,0,.2,0,.3,0,.2,0,.3.1.3.4v4.2c0,.3-.1.4-.3.5l-2.1,1.3c0,0-.1.1-.1.2s0,0,.1.1l2.1,1.3c.2.1.3.3.3.5v4.2c0,.2,0,.3-.2.4ZM58,681.5c.6-1.4,1.4-2.5,2.4-3.3,1-.8,2.2-1.2,3.4-1.2h13.2c.1,0,.2,0,.3.1,0,0,.1.2.1.3v5.5c0,.1,0,.2-.1.3,0,0-.2.1-.3.1h-1.4c-.1,0-.2,0-.2,0,0,0,0,.1.1.2,1.4,1,2.2,2.7,2.2,5s-.5,3.7-1.5,4.9c-1,1.2-2.4,1.8-4.3,1.8s-3.5-.7-4.6-2.1c-1.1-1.4-1.6-3.4-1.6-6v-3.8c0-.1,0-.2-.2-.2h-.7c-.7,0-1.2.2-1.6.7-.4.5-.6,1.1-.6,1.9s.1,1.2.3,1.6.5.7.9.9c.3.1.4.3.4.5l-.7,5.6c0,.3-.2.5-.3.5-1.1-.1-2.2-.5-3.1-1.3s-1.6-1.9-2.2-3.2c-.5-1.3-.8-2.8-.8-4.4s.3-3.3.9-4.7ZM72.4,684.4c-.5-.6-1.2-1-2-1h-.9c-.1,0-.2,0-.2.2v2.3c0,1,.2,1.7.5,2.3.3.5.8.8,1.5.8s1-.2,1.4-.6c.3-.4.5-.9.5-1.6s-.3-1.8-.8-2.4Z"/>
    <path class="st0" d="M59,657.6c1.3-1.3,3-1.9,5.2-1.9h12.8c.1,0,.2,0,.3.1,0,0,.1.2.1.3v5.5c0,.1,0,.2-.1.3,0,0-.2.1-.3.1h-11.4c-.9,0-1.6.2-2.2.7-.6.5-.9,1.1-.9,1.9s.3,1.5.8,1.9c.6.5,1.3.7,2.2.7h11.4c.1,0,.2,0,.3.1,0,0,.1.2.1.3v5.5c0,.1,0,.2-.1.3,0,0-.2.1-.3.1h-19.1c-.1,0-.2,0-.3-.1,0,0-.1-.2-.1-.3v-5.5c0-.1,0-.2.1-.3,0,0,.2-.1.3-.1h1.4c.1,0,.2,0,.2,0,0,0,0,0,0-.1-1.5-1-2.3-2.5-2.3-4.7s.6-3.7,1.9-5Z"/>
    <path class="st0" d="M62.5,640.3c0,0,.1.2.1.3v3.5c0,.1,0,.2.2.2h7.1c1.5,0,2.2-.6,2.2-1.8v-1.4c0-.1,0-.2.1-.3,0,0,.2-.1.3-.1h4.5c.3,0,.5.2.5.5,0,1.2,0,2.1,0,2.7,0,2.3-.4,3.9-1.1,5-.7,1.1-2.1,1.6-4.1,1.7h-9.7c-.1,0-.2,0-.2.2v2.2c0,.1,0,.2-.1.3,0,0-.2.1-.3.1h-4.2c-.1,0-.2,0-.3-.1,0,0-.1-.2-.1-.3v-2.2c0-.1,0-.2-.2-.2h-4.7c-.1,0-.2,0-.3-.1,0,0-.1-.2-.1-.3v-5.2c0-.1,0-.2.1-.3,0,0,.2-.1.3-.1h4.7c.1,0,.2,0,.2-.2v-3.5c0-.1,0-.2.1-.3,0,0,.2-.1.3-.1h4.2c.1,0,.2,0,.3.1Z"/>
    <path class="st0" d="M54.7,636.6c-.6.6-1.4,1-2.4,1s-1.8-.3-2.4-1-.9-1.4-.9-2.4.3-1.8.9-2.4c.6-.6,1.4-1,2.4-1s1.8.3,2.4,1c.6.6,1,1.4,1,2.4s-.3,1.8-1,2.4ZM77.4,637.3c0,0-.2.1-.3.1h-19.1c-.1,0-.2,0-.3-.1,0,0-.1-.2-.1-.3v-5.5c0-.1,0-.2.1-.3,0,0,.2-.1.3-.1h19.1c.1,0,.2,0,.3.1,0,0,.1.2.1.3v5.5c0,.1,0,.2-.1.3Z"/>
    <path class="st0" d="M76.2,624c-1.1,1.6-2.5,2.7-4.4,3.4-1.2.5-2.7.7-4.5.7s-3.2-.2-4.5-.7c-1.8-.6-3.2-1.8-4.3-3.4-1-1.6-1.5-3.5-1.5-5.6s.5-4,1.6-5.7,2.4-2.7,4-3.3c.5-.2,1-.3,1.5-.3.3,0,.5.1.5.4l.8,5.4h0c0,.3-.1.5-.4.5h-.3c-.2.1-.4.2-.5.2-.5.2-.9.6-1.2,1.1s-.5,1-.5,1.7c0,1.4.6,2.3,1.8,2.7.7.3,1.7.4,2.9.4s2.1-.1,2.9-.4c1.3-.5,2-1.4,2-2.8s-.2-1.3-.5-1.7c-.3-.5-.8-.8-1.5-1,0,0-.1,0-.2,0,0,0,0,0-.2,0-.3,0-.4-.3-.4-.5l.9-5.4c0-.3.2-.4.4-.4.4,0,.8,0,1.3.2,1.8.6,3.2,1.7,4.2,3.4s1.5,3.5,1.5,5.6-.5,4-1.6,5.6Z"/>
    <path class="st0" d="M58,593.5c.6-1.4,1.4-2.5,2.4-3.3,1-.8,2.2-1.2,3.4-1.2h13.2c.1,0,.2,0,.3.1,0,0,.1.2.1.3v5.5c0,.1,0,.2-.1.3,0,0-.2.1-.3.1h-1.4c-.1,0-.2,0-.2,0,0,0,0,.1.1.2,1.4,1,2.2,2.7,2.2,5s-.5,3.7-1.5,4.9c-1,1.2-2.4,1.8-4.3,1.8s-3.5-.7-4.6-2.1c-1.1-1.4-1.6-3.4-1.6-6v-3.8c0-.1,0-.2-.2-.2h-.7c-.7,0-1.2.2-1.6.7-.4.5-.6,1.1-.6,1.9s.1,1.2.3,1.6.5.7.9.9c.3.1.4.3.4.5l-.7,5.6c0,.3-.2.5-.3.5-1.1-.1-2.2-.5-3.1-1.3s-1.6-1.9-2.2-3.2c-.5-1.3-.8-2.8-.8-4.4s.3-3.3.9-4.7ZM72.4,596.4c-.5-.6-1.2-1-2-1h-.9c-.1,0-.2,0-.2.2v2.3c0,1,.2,1.7.5,2.3.3.5.8.8,1.5.8s1-.2,1.4-.6c.3-.4.5-.9.5-1.6s-.3-1.8-.8-2.4Z"/>
  </g>
  <g>
    <path class="st4" d="M883.9,598.3c0,.3-.2.5-.5.5h-11.8c0,0-.1,0-.2,0,0,0,0,0,0,.1,0,.3.2.7.4,1.1.3.5.8,1,1.4,1.3s1.4.5,2.3.5c1.6,0,2.9-.5,3.8-1.6.1-.1.2-.2.3-.2s.2,0,.3.2l3,3.4c.1,0,.2.2.2.3s0,.2-.2.3c-.9,1-2,1.7-3.4,2.3s-2.8.8-4.4.8c-2.4,0-4.4-.5-6-1.5-1.6-1-2.8-2.5-3.6-4.3-.5-1.3-.8-2.9-.8-4.9s.2-2.6.6-3.9c.7-1.9,1.8-3.4,3.3-4.5,1.5-1.1,3.4-1.6,5.5-1.6s3.2.4,4.6,1.1c1.3.7,2.4,1.8,3.3,3.1.8,1.3,1.4,2.8,1.6,4.4.1.8.2,1.8.1,3.1ZM871.5,594.1c-.1.3-.2.6-.2.8,0,.1,0,.2.2.2h5.5c.1,0,.2,0,.2-.2,0-.2,0-.5-.2-.8-.2-.6-.5-1.1-1-1.5-.5-.3-1.1-.5-1.8-.5-1.3,0-2.2.6-2.7,1.9Z"/>
    <path class="st4" d="M890.4,606.7l-6.1-19.2c0,0,0-.1,0-.2,0-.2.1-.3.4-.3h6.1c.3,0,.5.1.5.4l2.6,10.7c0,0,0,.1.1.1s0,0,.1-.1l2.6-10.7c0-.3.3-.4.5-.4h6c.2,0,.3.1.3.2,0,0,0,.2,0,.4l-6.1,19.1c0,.3-.2.4-.5.4h-6.2c-.3,0-.4-.1-.5-.4Z"/>
    <path class="st4" d="M907.8,605.5c-1.6-1.2-2.7-2.9-3.3-5-.3-1.1-.5-2.2-.5-3.5s.2-2.7.5-3.8c.6-2,1.7-3.6,3.3-4.8s3.6-1.7,5.9-1.7,4.2.6,5.8,1.7,2.7,2.7,3.3,4.8c.4,1.2.5,2.4.5,3.7s-.1,2.3-.4,3.4c-.5,2.2-1.6,3.9-3.3,5.2-1.6,1.3-3.6,1.9-6,1.9s-4.3-.6-5.9-1.9ZM915.6,601.1c.5-.5.9-1.1,1.1-2,.2-.7.2-1.4.2-2.2s0-1.5-.3-2.3c-.2-.8-.6-1.4-1-1.9-.5-.4-1.1-.7-1.9-.7-1.5,0-2.5.8-3,2.5-.2.6-.2,1.4-.2,2.3s0,1.5.2,2.2c.2.8.6,1.5,1.1,2,.5.5,1.1.7,1.9.7s1.4-.2,1.9-.7Z"/>
    <path class="st4" d="M926.3,606.9c0,0-.1-.2-.1-.3v-26.2c0-.1,0-.2.1-.3s.2-.1.3-.1h5.5c.1,0,.2,0,.3.1s.1.2.1.3v26.2c0,.1,0,.2-.1.3s-.2.1-.3.1h-5.5c-.1,0-.2,0-.3-.1Z"/>
    <path class="st4" d="M947.6,587.1c0,0,.2-.1.3-.1h5.5c.1,0,.2,0,.3.1,0,0,.1.2.1.3v19.1c0,.1,0,.2-.1.3s-.2.1-.3.1h-5.5c-.1,0-.2,0-.3-.1,0,0-.1-.2-.1-.3v-1.4c0,0,0-.1,0-.2,0,0-.1,0-.2,0-1,1.5-2.7,2.2-4.9,2.2s-3.6-.6-4.8-1.9c-1.2-1.2-1.8-3-1.8-5.2v-12.8c0-.1,0-.2.1-.3,0,0,.2-.1.3-.1h5.5c.1,0,.2,0,.3.1,0,0,.1.2.1.3v11.4c0,.9.2,1.6.7,2.2.5.5,1.1.8,1.9.8s1.3-.2,1.8-.7c.5-.4.8-1,.9-1.7v-12c0-.1,0-.2.1-.3Z"/>
    <path class="st4" d="M963.7,594c-.3.7-.4,1.7-.4,3s.1,2.1.4,2.9c.5,1.3,1.4,2,2.8,2s1.3-.2,1.7-.5c.5-.3.8-.8,1-1.5,0,0,0-.1,0-.2,0,0,0,0,0-.2,0-.3.3-.4.5-.4l5.4.9c.3,0,.4.2.4.4,0,.4,0,.8-.2,1.3-.5,1.4-1.3,2.6-2.4,3.6-1.2.9-2.5,1.6-4.2,1.9,0,0-.1,0-.1,0s0,.1,0,.2c1.1,1.1,1.7,2.2,1.7,3.4s0,.7-.2,1c-.3.9-.7,1.6-1.4,2-.7.4-1.5.6-2.4.6s-1.8-.2-2.7-.5c-.3,0-.4-.3-.3-.5l.3-2.4c0-.2,0-.3.2-.3s.2,0,.4,0c.2,0,.5.1.7.1.6,0,.9-.2,1.1-.7,0-.2,0-.3,0-.3,0-.3-.2-.7-.5-1.1-.3-.4-.8-.8-1.3-1.2,0,0,0,0-.1,0s0,0,0,0c-1.6-.3-3-1-4.1-2-1.2-1-2-2.3-2.6-3.8-.5-1.2-.7-2.7-.7-4.5s.2-3.2.7-4.5c.6-1.8,1.8-3.2,3.4-4.2,1.6-1,3.5-1.5,5.6-1.5s4,.5,5.7,1.6c1.6,1.1,2.7,2.4,3.3,4,.2.5.3,1,.3,1.5,0,.3-.1.5-.4.5l-5.4.8h0c-.2,0-.4-.1-.5-.4v-.3c-.1-.2-.2-.3-.2-.5-.2-.5-.6-.9-1-1.2-.5-.3-1.1-.5-1.7-.5-1.4,0-2.3.6-2.7,1.8Z"/>
    <path class="st4" d="M991.4,587.6c1.4.6,2.5,1.4,3.3,2.4s1.2,2.2,1.2,3.4v13.2c0,.1,0,.2-.1.3s-.2.1-.3.1h-5.5c-.1,0-.2,0-.3-.1,0,0-.1-.2-.1-.3v-1.4c0-.1,0-.2,0-.2,0,0-.1,0-.2.1-1,1.4-2.7,2.2-5,2.2s-3.7-.5-4.9-1.5c-1.2-1-1.8-2.4-1.8-4.3s.7-3.5,2.1-4.6c1.4-1.1,3.4-1.6,6-1.6h3.8c.1,0,.2,0,.2-.2v-.7c0-.7-.2-1.2-.7-1.7-.5-.4-1.1-.6-1.9-.6s-1.2.1-1.6.3c-.5.2-.7.5-.9.9-.1.3-.3.4-.5.4l-5.6-.7c-.3,0-.5-.2-.5-.3.1-1.1.5-2.2,1.3-3.1.8-.9,1.9-1.6,3.2-2.2,1.3-.5,2.8-.8,4.4-.8s3.3.3,4.7.9ZM988.1,585c-.4-.1-.8-.3-1.2-.5-.5-.2-.9-.4-1.2-.5-.3,0-.5-.1-.8-.1-.9,0-1.5.3-2.1.8-.1.1-.3.2-.4.2s-.2,0-.3-.2l-1.9-2.1c-.2-.2-.2-.4,0-.6.4-.8,1-1.4,1.8-1.9.8-.5,1.6-.7,2.6-.7s1,0,1.4.2c.4.1.8.3,1.1.4.3.1.5.2.6.3.1,0,.3.1.6.3.3.1.5.2.7.3.2,0,.4,0,.6,0,.8,0,1.4-.3,1.8-.9.1-.2.2-.2.3-.2s.2,0,.3.2l1.7,2.2c.2.2.2.3.2.5-.3.7-.9,1.3-1.6,1.7-.8.5-1.7.7-2.8.7s-1,0-1.4-.2ZM988.5,602c.6-.5,1-1.2,1-2v-.9c0-.1,0-.2-.2-.2h-2.3c-1,0-1.7.2-2.3.5-.5.3-.8.8-.8,1.5s.2,1,.6,1.4c.4.3.9.5,1.6.5s1.8-.3,2.4-.8Z"/>
    <path class="st4" d="M1002.2,605.5c-1.6-1.2-2.7-2.9-3.3-5-.3-1.1-.5-2.2-.5-3.5s.2-2.7.5-3.8c.6-2,1.7-3.6,3.3-4.8s3.6-1.7,5.9-1.7,4.2.6,5.8,1.7,2.7,2.7,3.3,4.8c.4,1.2.5,2.4.5,3.7s-.1,2.3-.4,3.4c-.5,2.2-1.6,3.9-3.3,5.2-1.6,1.3-3.6,1.9-6,1.9s-4.3-.6-5.9-1.9ZM1010,601.1c.5-.5.9-1.1,1.1-2,.2-.7.2-1.4.2-2.2s0-1.5-.3-2.3c-.2-.8-.6-1.4-1-1.9-.5-.4-1.1-.7-1.9-.7-1.5,0-2.5.8-3,2.5-.2.6-.2,1.4-.2,2.3s0,1.5.2,2.2c.2.8.6,1.5,1.1,2,.5.5,1.1.7,1.9.7s1.4-.2,1.9-.7Z"/>
    <path class="st4" d="M878,619.6c.2.1.3.3.2.6l-.9,5.4c0,.3-.2.4-.5.3-.5-.1-.9-.2-1.3-.2s-.8,0-1,0c-.8.1-1.5.4-2,.9-.6.5-.8,1.2-.8,2.1v10.2c0,.1,0,.2-.1.3s-.2.1-.3.1h-5.5c-.1,0-.2,0-.3-.1s-.1-.2-.1-.3v-19.1c0-.1,0-.2.1-.3,0,0,.2-.1.3-.1h5.5c.1,0,.2,0,.3.1,0,0,.1.2.1.3v1.2c0,0,0,.1,0,.2,0,0,0,0,.1,0,1-1.4,2.4-2.1,4-2.1s1.7.2,2.2.5Z"/>
    <path class="st4" d="M898.4,630.7c0,.3-.2.5-.5.5h-11.8c0,0-.1,0-.2,0,0,0,0,0,0,.1,0,.3.2.7.4,1.1.3.5.8,1,1.4,1.3s1.4.5,2.3.5c1.6,0,2.9-.5,3.8-1.6.1-.1.2-.2.3-.2s.2,0,.3.2l3,3.4c.1,0,.2.2.2.3s0,.2-.2.3c-.9,1-2,1.7-3.4,2.3s-2.8.8-4.4.8c-2.4,0-4.4-.5-6-1.5-1.6-1-2.8-2.5-3.6-4.3-.5-1.3-.8-2.9-.8-4.9s.2-2.6.6-3.9c.7-1.9,1.8-3.4,3.3-4.5,1.5-1.1,3.4-1.6,5.5-1.6s3.2.4,4.6,1.1c1.3.7,2.4,1.8,3.3,3.1.8,1.3,1.4,2.8,1.6,4.4.1.8.2,1.8.1,3.1ZM886.1,626.4c-.1.3-.2.6-.2.8,0,.1,0,.2.2.2h5.5c.1,0,.2,0,.2-.2,0-.2,0-.5-.2-.8-.2-.6-.5-1.1-1-1.5-.5-.3-1.1-.5-1.8-.5-1.3,0-2.2.6-2.7,1.9Z"/>
    <path class="st4" d="M913.9,619.9c1.4.6,2.5,1.4,3.3,2.4s1.2,2.2,1.2,3.4v13.2c0,.1,0,.2-.1.3s-.2.1-.3.1h-5.5c-.1,0-.2,0-.3-.1,0,0-.1-.2-.1-.3v-1.4c0-.1,0-.2,0-.2,0,0-.1,0-.2.1-1,1.4-2.7,2.2-5,2.2s-3.7-.5-4.9-1.5c-1.2-1-1.8-2.4-1.8-4.3s.7-3.5,2.1-4.6c1.4-1.1,3.4-1.6,6-1.6h3.8c.1,0,.2,0,.2-.2v-.7c0-.7-.2-1.2-.7-1.7-.5-.4-1.1-.6-1.9-.6s-1.2.1-1.6.3c-.5.2-.7.5-.9.9-.1.3-.3.4-.5.4l-5.6-.7c-.3,0-.5-.2-.5-.3.1-1.1.5-2.2,1.3-3.1.8-.9,1.9-1.6,3.2-2.2,1.3-.5,2.8-.8,4.4-.8s3.3.3,4.7.9ZM911,634.3c.6-.5,1-1.2,1-2v-.9c0-.1,0-.2-.2-.2h-2.3c-1,0-1.7.2-2.3.5-.5.3-.8.8-.8,1.5s.2,1,.6,1.4c.4.3.9.5,1.6.5s1.8-.3,2.4-.8Z"/>
    <path class="st4" d="M921.7,639.3c0,0-.1-.2-.1-.3v-26.2c0-.1,0-.2.1-.3s.2-.1.3-.1h5.5c.1,0,.2,0,.3.1s.1.2.1.3v26.2c0,.1,0,.2-.1.3s-.2.1-.3.1h-5.5c-.1,0-.2,0-.3-.1Z"/>
  </g>
  <g>
    <g>
      <path class="st0" d="M846.6,1204.6H57c-2.2,0-4-1.8-4-4s1.8-4,4-4h789.6c2.2,0,4,1.8,4,4s-1.8,4-4,4Z"/>
      <polygon class="st0" points="833.4 1217 830.6 1214.1 845.1 1200.6 830.6 1187.2 833.4 1184.3 851 1200.6 833.4 1217"/>
    </g>
    <g>
      <path class="st0" d="M100.2,1247.8c-2.2,0-4-1.8-4-4V108.5c0-2.2,1.8-4,4-4s4,1.8,4,4v1135.3c0,2.2-1.8,4-4,4Z"/>
      <polygon class="st0" points="116.5 121.7 113.6 124.4 100.2 110 86.7 124.4 83.8 121.7 100.2 104.1 116.5 121.7"/>
    </g>
  </g>
  <g>
    <path class="st0" d="M357.6,1243.6c-1.4-.5-2.4-1.2-3.2-2.1-.7-.9-1.1-2-1.1-3.2v-.4c0-.1,0-.2.1-.3,0,0,.2-.1.3-.1h5.2c.1,0,.2,0,.3.1,0,0,.1.2.1.3,0,.5.3.9.8,1.2.5.3,1.2.5,2.1.5s1.3-.1,1.7-.4c.4-.2.6-.6.6-1s-.2-.7-.7-.9-1.2-.4-2.2-.6c-1.6-.3-2.9-.7-4-1.1-1.3-.5-2.4-1.2-3.1-2-.8-.8-1.2-1.9-1.2-3.4,0-2,.8-3.6,2.3-4.8,1.6-1.2,3.6-1.8,6.2-1.8s3.3.3,4.6.8c1.3.6,2.3,1.3,3,2.3.7,1,1.1,2.2,1.1,3.5s0,.2-.1.3c0,0-.2.1-.3.1h-5.1c-.1,0-.2,0-.3-.1,0,0-.1-.2-.1-.3,0-.5-.2-.9-.7-1.2-.5-.3-1.1-.5-1.9-.5s-1.3.1-1.8.4c-.5.2-.7.6-.7,1s.2.8.7,1c.5.2,1.3.4,2.5.6,1.5.3,2.5.6,3.1.7,1.6.5,2.9,1.2,3.7,2.1.9.9,1.3,2.1,1.3,3.5s-.8,3.6-2.4,4.7-3.7,1.6-6.4,1.6-3.4-.3-4.8-.8Z"/>
    <path class="st0" d="M377,1242.5c-1.6-1.2-2.7-2.9-3.3-5-.3-1.1-.5-2.2-.5-3.5s.2-2.7.5-3.8c.6-2,1.7-3.6,3.3-4.8,1.6-1.2,3.6-1.7,5.9-1.7s4.2.6,5.8,1.7c1.6,1.2,2.7,2.7,3.3,4.8.4,1.2.5,2.4.5,3.7s-.1,2.3-.4,3.4c-.5,2.2-1.6,3.9-3.3,5.2-1.6,1.3-3.6,1.9-6,1.9s-4.3-.6-5.9-1.9ZM384.8,1238.1c.5-.5.9-1.1,1.1-2,.2-.7.2-1.4.2-2.2s0-1.5-.3-2.3c-.2-.8-.6-1.4-1-1.9-.5-.4-1.1-.7-1.9-.7-1.5,0-2.5.8-2.9,2.5-.2.6-.2,1.4-.2,2.3s0,1.5.2,2.2c.2.8.6,1.5,1.1,2s1.1.7,1.9.7,1.4-.2,1.9-.7Z"/>
    <path class="st0" d="M399,1242.8c-1.6-1.1-2.7-2.5-3.4-4.4-.5-1.2-.7-2.7-.7-4.5s.2-3.2.7-4.5c.6-1.8,1.8-3.2,3.4-4.2,1.6-1,3.5-1.5,5.6-1.5s4,.5,5.7,1.6c1.6,1.1,2.7,2.4,3.3,4,.2.5.3,1,.3,1.5,0,.3-.1.5-.4.5l-5.4.8h0c-.2,0-.4-.1-.5-.4v-.3c-.1-.2-.2-.4-.2-.5-.2-.5-.6-.9-1.1-1.2s-1-.5-1.7-.5c-1.4,0-2.3.6-2.7,1.8-.3.7-.4,1.7-.4,3s.1,2.1.4,2.9c.5,1.3,1.4,2,2.8,2s1.3-.2,1.7-.5c.5-.3.8-.8,1-1.5,0,0,0-.1,0-.2,0,0,0,0,0-.2,0-.3.3-.4.5-.4l5.4.9c.3,0,.4.2.4.4,0,.4,0,.8-.2,1.3-.6,1.8-1.7,3.2-3.4,4.2-1.6,1-3.5,1.5-5.6,1.5s-4-.5-5.6-1.6Z"/>
    <path class="st0" d="M417.4,1221.2c-.6-.6-1-1.4-1-2.4s.3-1.8,1-2.4,1.4-.9,2.4-.9,1.8.3,2.4.9,1,1.4,1,2.4-.3,1.8-1,2.4c-.6.6-1.4,1-2.4,1s-1.8-.3-2.4-1ZM416.7,1243.9c0,0-.1-.2-.1-.3v-19.1c0-.1,0-.2.1-.3,0,0,.2-.1.3-.1h5.5c.1,0,.2,0,.3.1,0,0,.1.2.1.3v19.1c0,.1,0,.2-.1.3s-.2.1-.3.1h-5.5c-.1,0-.2,0-.3-.1Z"/>
    <path class="st0" d="M439.4,1224.5c1.4.6,2.5,1.4,3.3,2.4s1.2,2.2,1.2,3.4v13.2c0,.1,0,.2-.1.3s-.2.1-.3.1h-5.5c-.1,0-.2,0-.3-.1,0,0-.1-.2-.1-.3v-1.4c0-.1,0-.2,0-.2,0,0-.1,0-.2.1-1,1.4-2.7,2.2-5,2.2s-3.7-.5-4.9-1.5c-1.2-1-1.8-2.4-1.8-4.3s.7-3.5,2.1-4.6c1.4-1.1,3.4-1.6,6-1.6h3.8c.1,0,.2,0,.2-.2v-.7c0-.7-.2-1.2-.7-1.7-.5-.4-1.1-.6-1.9-.6s-1.2.1-1.6.3c-.5.2-.7.5-.9.9-.1.3-.3.4-.5.4l-5.6-.7c-.3,0-.5-.2-.5-.3.1-1.1.5-2.2,1.3-3.1.8-.9,1.9-1.6,3.2-2.2,1.3-.5,2.8-.8,4.4-.8s3.3.3,4.7.9ZM436.5,1239c.6-.5,1-1.2,1-2v-.9c0-.1,0-.2-.2-.2h-2.3c-1,0-1.7.2-2.3.5-.5.3-.8.8-.8,1.5s.2,1,.6,1.4c.4.3.9.5,1.6.5s1.8-.3,2.4-.8Z"/>
    <path class="st0" d="M447.2,1243.9c0,0-.1-.2-.1-.3v-26.2c0-.1,0-.2.1-.3s.2-.1.3-.1h5.5c.1,0,.2,0,.3.1s.1.2.1.3v26.2c0,.1,0,.2-.1.3s-.2.1-.3.1h-5.5c-.1,0-.2,0-.3-.1Z"/>
    <path class="st0" d="M457.7,1221.2c-.6-.6-1-1.4-1-2.4s.3-1.8,1-2.4,1.4-.9,2.4-.9,1.8.3,2.4.9c.6.6,1,1.4,1,2.4s-.3,1.8-1,2.4c-.6.6-1.4,1-2.4,1s-1.8-.3-2.4-1ZM457,1243.9c0,0-.1-.2-.1-.3v-19.1c0-.1,0-.2.1-.3,0,0,.2-.1.3-.1h5.5c.1,0,.2,0,.3.1,0,0,.1.2.1.3v19.1c0,.1,0,.2-.1.3,0,0-.2.1-.3.1h-5.5c-.1,0-.2,0-.3-.1Z"/>
    <path class="st0" d="M465.9,1243.9c0,0-.1-.2-.1-.3v-5c0-.2,0-.4.2-.6l8-8c0,0,0-.1,0-.2,0,0,0,0-.2,0h-7.4c-.1,0-.2,0-.3-.1,0,0-.1-.2-.1-.3v-4.9c0-.1,0-.2.1-.3,0,0,.2-.1.3-.1h14.9c.1,0,.2,0,.3.1,0,0,.1.2.1.3v5c0,.2,0,.4-.2.6l-8.3,8c0,0,0,.1,0,.2,0,0,0,0,.2,0h8.2c.1,0,.2,0,.3.1,0,0,.1.2.1.3v4.9c0,.1,0,.2-.1.3,0,0-.2.1-.3.1h-15.4c-.1,0-.2,0-.3-.1Z"/>
    <path class="st0" d="M497.7,1224.5c1.4.6,2.5,1.4,3.3,2.4s1.2,2.2,1.2,3.4v13.2c0,.1,0,.2-.1.3s-.2.1-.3.1h-5.5c-.1,0-.2,0-.3-.1,0,0-.1-.2-.1-.3v-1.4c0-.1,0-.2,0-.2,0,0-.1,0-.2.1-1,1.4-2.7,2.2-5,2.2s-3.7-.5-4.9-1.5c-1.2-1-1.8-2.4-1.8-4.3s.7-3.5,2.1-4.6c1.4-1.1,3.4-1.6,6-1.6h3.8c.1,0,.2,0,.2-.2v-.7c0-.7-.2-1.2-.7-1.7-.5-.4-1.1-.6-1.9-.6s-1.2.1-1.6.3c-.5.2-.7.5-.9.9-.1.3-.3.4-.5.4l-5.6-.7c-.3,0-.5-.2-.5-.3.1-1.1.5-2.2,1.3-3.1.8-.9,1.9-1.6,3.2-2.2,1.3-.5,2.8-.8,4.4-.8s3.3.3,4.7.9ZM494.9,1239c.6-.5,1-1.2,1-2v-.9c0-.1,0-.2-.2-.2h-2.3c-1,0-1.7.2-2.3.5-.5.3-.8.8-.8,1.5s.2,1,.6,1.4c.4.3.9.5,1.6.5s1.8-.3,2.4-.8Z"/>
    <path class="st0" d="M511.9,1231c-.3.7-.4,1.7-.4,3s.1,2.1.4,2.9c.5,1.3,1.4,2,2.8,2s1.3-.2,1.7-.5c.5-.3.8-.8,1-1.5,0,0,0-.1,0-.2,0,0,0,0,0-.2,0-.3.3-.4.5-.4l5.4.9c.3,0,.4.2.4.4,0,.4,0,.8-.2,1.3-.5,1.4-1.3,2.6-2.4,3.6-1.2.9-2.5,1.6-4.2,1.9,0,0-.1,0-.1,0s0,.1,0,.2c1.1,1.1,1.7,2.2,1.7,3.4s0,.7-.2,1c-.3.9-.7,1.6-1.4,2-.7.4-1.5.6-2.4.6s-1.8-.2-2.7-.5c-.3,0-.4-.3-.3-.5l.3-2.4c0-.2,0-.3.2-.3s.2,0,.4,0c.2,0,.5.1.7.1.6,0,.9-.2,1.1-.7,0-.2,0-.3,0-.3,0-.3-.2-.7-.5-1.1-.3-.4-.8-.8-1.3-1.2,0,0,0,0-.1,0s0,0,0,0c-1.6-.3-3-1-4.1-2-1.2-1-2-2.3-2.6-3.8-.5-1.2-.7-2.7-.7-4.5s.2-3.2.7-4.5c.6-1.8,1.8-3.2,3.4-4.2,1.6-1,3.5-1.5,5.6-1.5s4,.5,5.7,1.6c1.6,1.1,2.7,2.4,3.3,4,.2.5.3,1,.3,1.5,0,.3-.1.5-.4.5l-5.4.8h0c-.2,0-.4-.1-.5-.4v-.3c-.1-.2-.2-.3-.2-.5-.2-.5-.6-.9-1-1.2-.5-.3-1.1-.5-1.7-.5-1.4,0-2.3.6-2.7,1.8Z"/>
    <path class="st0" d="M539.6,1224.5c1.4.6,2.5,1.4,3.3,2.4s1.2,2.2,1.2,3.4v13.2c0,.1,0,.2-.1.3s-.2.1-.3.1h-5.5c-.1,0-.2,0-.3-.1,0,0-.1-.2-.1-.3v-1.4c0-.1,0-.2,0-.2,0,0-.1,0-.2.1-1,1.4-2.7,2.2-5,2.2s-3.7-.5-4.9-1.5c-1.2-1-1.8-2.4-1.8-4.3s.7-3.5,2.1-4.6c1.4-1.1,3.4-1.6,6-1.6h3.8c.1,0,.2,0,.2-.2v-.7c0-.7-.2-1.2-.7-1.7-.5-.4-1.1-.6-1.9-.6s-1.2.1-1.6.3c-.5.2-.7.5-.9.9-.1.3-.3.4-.5.4l-5.6-.7c-.3,0-.5-.2-.5-.3.1-1.1.5-2.2,1.3-3.1.8-.9,1.9-1.6,3.2-2.2,1.3-.5,2.8-.8,4.4-.8s3.3.3,4.7.9ZM536.3,1222c-.4-.1-.8-.3-1.2-.5-.5-.2-.9-.4-1.2-.5-.3,0-.5-.1-.8-.1-.9,0-1.5.3-2.1.8-.1.1-.3.2-.4.2s-.2,0-.3-.2l-1.9-2.1c-.2-.2-.2-.4,0-.6.4-.8,1-1.4,1.8-1.9.8-.5,1.6-.7,2.6-.7s1,0,1.4.2c.4.1.8.3,1.1.4.3.1.5.2.6.3.1,0,.3.1.6.3.3.1.5.2.7.3.2,0,.4,0,.6,0,.8,0,1.4-.3,1.8-.9.1-.2.2-.2.3-.2s.2,0,.3.2l1.7,2.2c.2.2.2.3.2.5-.3.7-.9,1.3-1.6,1.7-.8.5-1.7.7-2.8.7s-1,0-1.4-.2ZM536.7,1239c.6-.5,1-1.2,1-2v-.9c0-.1,0-.2-.2-.2h-2.3c-1,0-1.7.2-2.3.5-.5.3-.8.8-.8,1.5s.2,1,.6,1.4c.4.3.9.5,1.6.5s1.8-.3,2.4-.8Z"/>
    <path class="st0" d="M550.5,1242.5c-1.6-1.2-2.7-2.9-3.3-5-.3-1.1-.5-2.2-.5-3.5s.2-2.7.5-3.8c.6-2,1.7-3.6,3.3-4.8s3.6-1.7,5.9-1.7,4.2.6,5.8,1.7,2.7,2.7,3.3,4.8c.4,1.2.5,2.4.5,3.7s-.1,2.3-.4,3.4c-.5,2.2-1.6,3.9-3.3,5.2-1.6,1.3-3.6,1.9-6,1.9s-4.3-.6-5.9-1.9ZM558.3,1238.1c.5-.5.9-1.1,1.1-2,.2-.7.2-1.4.2-2.2s0-1.5-.3-2.3c-.2-.8-.6-1.4-1-1.9-.5-.4-1.1-.7-1.9-.7-1.5,0-2.5.8-3,2.5-.2.6-.2,1.4-.2,2.3s0,1.5.2,2.2c.2.8.6,1.5,1.1,2,.5.5,1.1.7,1.9.7s1.4-.2,1.9-.7Z"/>
  </g>
  <g>
    <path class="st3" d="M188.6,69.5h5.7c.1,0,.2,0,.3.1,0,0,.1.2.1.3v26.2c0,.1,0,.2-.1.3,0,0-.2.1-.3.1h-5.5c-.1,0-.2,0-.3-.1,0,0-.1-.2-.1-.3v-20.5c0,0,0-.1,0-.2,0,0-.1,0-.2,0l-3.8.9h-.2c-.2,0-.3-.1-.3-.4v-4.1c0-.3,0-.4.3-.5l4-1.7c.2,0,.4-.1.6-.1Z"/>
    <path class="st3" d="M217.7,78.3v11.6c0,1.4-.4,2.6-1.1,3.7-.8,1.1-1.8,1.9-3.2,2.5-1.4.6-3,.9-4.8.9s-3.3-.3-4.7-.9c-1.4-.6-2.4-1.4-3.2-2.5-.8-1.1-1.1-2.3-1.1-3.7v-1.3c0-.1,0-.2.1-.3,0,0,.2-.1.3-.1h5.5c.1,0,.2,0,.3.1,0,0,.1.2.1.3v.3c0,.7.2,1.3.7,1.7.5.5,1.1.7,1.8.7s1.4-.2,1.9-.7c.5-.5.8-1.1.8-1.8v-3c0,0,0-.1,0-.2,0,0-.1,0-.2,0-1,.8-2.3,1.1-3.9,1.1s-3-.4-4.3-1.2-2.3-1.9-3.1-3.3c-.5-1.1-.8-2.5-.8-4.2s.2-2.8.7-3.9c.7-1.6,1.8-2.8,3.3-3.7,1.5-.9,3.3-1.4,5.3-1.4s3.8.5,5.3,1.4,2.6,2.2,3.3,3.8c.5,1.1.7,2.4.7,3.8ZM211.2,78.2c0-.8-.2-1.5-.5-2.1-.5-.9-1.3-1.3-2.4-1.3s-1.9.4-2.4,1.3c-.4.6-.6,1.3-.6,2.1s.2,1.6.6,2.2c.5.8,1.3,1.2,2.3,1.2s1.9-.4,2.4-1.2c.4-.6.5-1.3.5-2.2Z"/>
    <path class="st3" d="M241.1,88.6c0,1.4-.3,2.7-.9,3.8-.7,1.4-1.8,2.5-3.3,3.3-1.5.8-3.2,1.2-5.3,1.2s-3.7-.4-5.2-1.2-2.7-1.9-3.4-3.4c-.6-1.1-.9-2.4-.9-3.8s0-1.5.3-2.2c.2-.7.4-1.3.7-1.8.4-.8,1-1.5,1.7-2,.1,0,.1-.2,0-.3-.6-.5-1.1-1.1-1.5-1.9-.5-1-.8-2.2-.8-3.4,0-1.9.6-3.5,1.7-4.9.8-1,1.9-1.8,3.2-2.3s2.8-.8,4.4-.8,3.1.3,4.4.9c1.3.6,2.3,1.3,3.1,2.3,1.2,1.4,1.7,3,1.7,4.9s-.3,2.5-1,3.5c-.4.6-.9,1.2-1.5,1.7-.1.1-.1.2,0,.3.8.5,1.3,1.2,1.7,2,.6,1.2,1,2.5,1,4.1ZM234.6,88c0-.9-.1-1.6-.4-2-.5-1-1.3-1.4-2.5-1.4s-2,.5-2.5,1.4c-.3.6-.4,1.3-.4,2.1s.2,1.6.5,2.2c.5.8,1.3,1.2,2.4,1.2s1.8-.4,2.3-1.1c.4-.6.6-1.4.6-2.4ZM228.8,77.4c0,.6.1,1.2.4,1.7.5.8,1.3,1.2,2.4,1.2s2-.4,2.5-1.2c.3-.4.4-1,.4-1.7s-.1-1-.3-1.4c-.2-.4-.6-.8-1-1-.5-.3-1-.4-1.6-.4s-1,.1-1.5.3c-.4.2-.8.6-1,1.1-.2.5-.3,1-.3,1.4Z"/>
    <path class="st3" d="M248.3,94.7c-1.7-1.7-2.6-3.9-2.6-6.8v-9.5c0-2.8.9-5.1,2.6-6.7,1.7-1.6,4-2.4,7-2.4s5.3.8,7.1,2.5c1.7,1.6,2.6,3.9,2.6,6.7v9.5c0,2.9-.9,5.1-2.6,6.8-1.7,1.7-4.1,2.5-7.1,2.5s-5.3-.8-7-2.5ZM257.6,90.7c.6-.6.9-1.4.9-2.5v-10.1c0-1.1-.3-1.9-.9-2.5-.6-.6-1.4-.9-2.3-.9s-1.7.3-2.3.9c-.6.6-.9,1.4-.9,2.5v10.1c0,1.1.3,1.9.8,2.5.6.6,1.3.9,2.3.9s1.8-.3,2.3-.9Z"/>
  </g>
  <g>
    <path class="st3" d="M316.9,69.5h5.7c.1,0,.2,0,.3.1,0,0,.1.2.1.3v26.2c0,.1,0,.2-.1.3,0,0-.2.1-.3.1h-5.5c-.1,0-.2,0-.3-.1,0,0-.1-.2-.1-.3v-20.5c0,0,0-.1,0-.2,0,0-.1,0-.2,0l-3.8.9h-.2c-.2,0-.3-.1-.3-.4v-4.1c0-.3,0-.4.3-.5l4-1.7c.2,0,.4-.1.6-.1Z"/>
    <path class="st3" d="M346,78.3v11.6c0,1.4-.4,2.6-1.1,3.7-.8,1.1-1.8,1.9-3.2,2.5-1.4.6-3,.9-4.8.9s-3.3-.3-4.7-.9c-1.4-.6-2.4-1.4-3.2-2.5-.8-1.1-1.1-2.3-1.1-3.7v-1.3c0-.1,0-.2.1-.3,0,0,.2-.1.3-.1h5.5c.1,0,.2,0,.3.1,0,0,.1.2.1.3v.3c0,.7.2,1.3.7,1.7.5.5,1.1.7,1.8.7s1.4-.2,1.9-.7c.5-.5.8-1.1.8-1.8v-3c0,0,0-.1,0-.2,0,0-.1,0-.2,0-1,.8-2.3,1.1-3.9,1.1s-3-.4-4.3-1.2-2.3-1.9-3.1-3.3c-.5-1.1-.8-2.5-.8-4.2s.2-2.8.7-3.9c.7-1.6,1.8-2.8,3.3-3.7,1.5-.9,3.3-1.4,5.3-1.4s3.8.5,5.3,1.4,2.6,2.2,3.3,3.8c.5,1.1.7,2.4.7,3.8ZM339.5,78.2c0-.8-.2-1.5-.5-2.1-.5-.9-1.3-1.3-2.4-1.3s-1.9.4-2.4,1.3c-.4.6-.6,1.3-.6,2.1s.2,1.6.6,2.2c.5.8,1.3,1.2,2.3,1.2s1.9-.4,2.4-1.2c.4-.6.5-1.3.5-2.2Z"/>
    <path class="st3" d="M368.7,78.3v11.6c0,1.4-.4,2.6-1.1,3.7-.8,1.1-1.8,1.9-3.2,2.5-1.4.6-3,.9-4.8.9s-3.3-.3-4.7-.9c-1.4-.6-2.4-1.4-3.2-2.5-.8-1.1-1.1-2.3-1.1-3.7v-1.3c0-.1,0-.2.1-.3,0,0,.2-.1.3-.1h5.5c.1,0,.2,0,.3.1,0,0,.1.2.1.3v.3c0,.7.2,1.3.7,1.7.5.5,1.1.7,1.8.7s1.4-.2,1.9-.7c.5-.5.8-1.1.8-1.8v-3c0,0,0-.1,0-.2,0,0-.1,0-.2,0-1,.8-2.3,1.1-3.9,1.1s-3-.4-4.3-1.2-2.3-1.9-3.1-3.3c-.5-1.1-.8-2.5-.8-4.2s.2-2.8.7-3.9c.7-1.6,1.8-2.8,3.3-3.7,1.5-.9,3.3-1.4,5.3-1.4s3.8.5,5.3,1.4,2.6,2.2,3.3,3.8c.5,1.1.7,2.4.7,3.8ZM362.2,78.2c0-.8-.2-1.5-.5-2.1-.5-.9-1.3-1.3-2.4-1.3s-1.9.4-2.4,1.3c-.4.6-.6,1.3-.6,2.1s.2,1.6.6,2.2c.5.8,1.3,1.2,2.3,1.2s1.9-.4,2.4-1.2c.4-.6.5-1.3.5-2.2Z"/>
    <path class="st3" d="M376,94.7c-1.7-1.7-2.6-3.9-2.6-6.8v-9.5c0-2.8.9-5.1,2.6-6.7,1.7-1.6,4-2.4,7-2.4s5.3.8,7.1,2.5c1.7,1.6,2.6,3.9,2.6,6.7v9.5c0,2.9-.9,5.1-2.6,6.8-1.7,1.7-4.1,2.5-7.1,2.5s-5.3-.8-7-2.5ZM385.4,90.7c.6-.6.9-1.4.9-2.5v-10.1c0-1.1-.3-1.9-.9-2.5-.6-.6-1.4-.9-2.3-.9s-1.7.3-2.3.9c-.6.6-.9,1.4-.9,2.5v10.1c0,1.1.3,1.9.8,2.5.6.6,1.3.9,2.3.9s1.8-.3,2.3-.9Z"/>
  </g>
  <g>
    <path class="st3" d="M449.4,91.1c0,0,0,0,.2,0h9.9c.1,0,.2,0,.3.1,0,0,.1.2.1.3v4.6c0,.1,0,.2-.1.3,0,0-.2.1-.3.1h-18.2c-.1,0-.2,0-.3-.1,0,0-.1-.2-.1-.3v-4.3c0-.2,0-.4.2-.6,1.6-1.4,3.6-3.5,6.2-6.2l2.3-2.4c2.4-2.4,3.5-4.2,3.5-5.3s-.3-1.4-.8-1.9-1.3-.7-2.2-.7-1.6.2-2.1.7c-.5.5-.8,1.1-.8,1.9v.9c0,.1,0,.2-.1.3s-.2.1-.3.1h-5.6c-.1,0-.2,0-.3-.1s-.1-.2-.1-.3v-1.9c.1-1.4.6-2.7,1.4-3.8.9-1.1,2-1.9,3.4-2.5,1.4-.6,2.9-.9,4.7-.9s3.6.4,5,1.1c1.4.7,2.5,1.7,3.3,2.9.8,1.2,1.1,2.6,1.1,4s-.3,2.1-.8,3.2-1.3,2.2-2.3,3.5c-.7.9-1.5,1.8-2.4,2.7s-2.2,2.1-3.8,3.6l-.8.7c0,0,0,.1,0,.2Z"/>
    <path class="st3" d="M467.2,94.7c-1.7-1.7-2.6-3.9-2.6-6.8v-9.5c0-2.8.9-5.1,2.6-6.7,1.7-1.6,4-2.4,7-2.4s5.3.8,7.1,2.5c1.7,1.6,2.6,3.9,2.6,6.7v9.5c0,2.9-.9,5.1-2.6,6.8s-4.1,2.5-7.1,2.5-5.3-.8-7-2.5ZM476.6,90.7c.6-.6.9-1.4.9-2.5v-10.1c0-1.1-.3-1.9-.9-2.5-.6-.6-1.4-.9-2.3-.9s-1.7.3-2.3.9c-.6.6-.9,1.4-.9,2.5v10.1c0,1.1.3,1.9.8,2.5.6.6,1.3.9,2.3.9s1.8-.3,2.3-.9Z"/>
    <path class="st3" d="M491.3,94.7c-1.7-1.7-2.6-3.9-2.6-6.8v-9.5c0-2.8.9-5.1,2.6-6.7,1.7-1.6,4-2.4,7-2.4s5.3.8,7.1,2.5c1.7,1.6,2.6,3.9,2.6,6.7v9.5c0,2.9-.9,5.1-2.6,6.8s-4.1,2.5-7.1,2.5-5.3-.8-7-2.5ZM500.7,90.7c.6-.6.9-1.4.9-2.5v-10.1c0-1.1-.3-1.9-.9-2.5-.6-.6-1.4-.9-2.3-.9s-1.7.3-2.3.9c-.6.6-.9,1.4-.9,2.5v10.1c0,1.1.3,1.9.8,2.5.6.6,1.3.9,2.3.9s1.8-.3,2.3-.9Z"/>
    <path class="st3" d="M515.4,94.7c-1.7-1.7-2.6-3.9-2.6-6.8v-9.5c0-2.8.9-5.1,2.6-6.7,1.7-1.6,4-2.4,7-2.4s5.3.8,7.1,2.5c1.7,1.6,2.6,3.9,2.6,6.7v9.5c0,2.9-.9,5.1-2.6,6.8s-4.1,2.5-7.1,2.5-5.3-.8-7-2.5ZM524.8,90.7c.6-.6.9-1.4.9-2.5v-10.1c0-1.1-.3-1.9-.9-2.5-.6-.6-1.4-.9-2.3-.9s-1.7.3-2.3.9c-.6.6-.9,1.4-.9,2.5v10.1c0,1.1.3,1.9.8,2.5.6.6,1.3.9,2.3.9s1.8-.3,2.3-.9Z"/>
  </g>
  <g>
    <path class="st3" d="M578.7,91.1c0,0,0,0,.2,0h9.9c.1,0,.2,0,.3.1,0,0,.1.2.1.3v4.6c0,.1,0,.2-.1.3,0,0-.2.1-.3.1h-18.2c-.1,0-.2,0-.3-.1,0,0-.1-.2-.1-.3v-4.3c0-.2,0-.4.2-.6,1.6-1.4,3.6-3.5,6.2-6.2l2.3-2.4c2.4-2.4,3.5-4.2,3.5-5.3s-.3-1.4-.8-1.9-1.3-.7-2.2-.7-1.6.2-2.1.7c-.5.5-.8,1.1-.8,1.9v.9c0,.1,0,.2-.1.3s-.2.1-.3.1h-5.6c-.1,0-.2,0-.3-.1s-.1-.2-.1-.3v-1.9c.1-1.4.6-2.7,1.4-3.8.9-1.1,2-1.9,3.4-2.5,1.4-.6,2.9-.9,4.7-.9s3.6.4,5,1.1c1.4.7,2.5,1.7,3.3,2.9.8,1.2,1.1,2.6,1.1,4s-.3,2.1-.8,3.2-1.3,2.2-2.3,3.5c-.7.9-1.5,1.8-2.4,2.7s-2.2,2.1-3.8,3.6l-.8.7c0,0,0,.1,0,.2Z"/>
    <path class="st3" d="M596.6,94.7c-1.7-1.7-2.6-3.9-2.6-6.8v-9.5c0-2.8.9-5.1,2.6-6.7,1.7-1.6,4-2.4,7-2.4s5.3.8,7.1,2.5c1.7,1.6,2.6,3.9,2.6,6.7v9.5c0,2.9-.9,5.1-2.6,6.8s-4.1,2.5-7.1,2.5-5.3-.8-7-2.5ZM606,90.7c.6-.6.9-1.4.9-2.5v-10.1c0-1.1-.3-1.9-.9-2.5-.6-.6-1.4-.9-2.3-.9s-1.7.3-2.3.9c-.6.6-.9,1.4-.9,2.5v10.1c0,1.1.3,1.9.8,2.5.6.6,1.3.9,2.3.9s1.8-.3,2.3-.9Z"/>
    <path class="st3" d="M622.5,69.5h5.7c.1,0,.2,0,.3.1s.1.2.1.3v26.2c0,.1,0,.2-.1.3s-.2.1-.3.1h-5.5c-.1,0-.2,0-.3-.1,0,0-.1-.2-.1-.3v-20.5c0,0,0-.1,0-.2,0,0-.1,0-.2,0l-3.8.9h-.2c-.2,0-.3-.1-.3-.4v-4.1c0-.3,0-.4.3-.5l4-1.7c.2,0,.4-.1.6-.1Z"/>
    <path class="st3" d="M636.2,94.7c-1.7-1.7-2.6-3.9-2.6-6.8v-9.5c0-2.8.9-5.1,2.6-6.7,1.7-1.6,4-2.4,7-2.4s5.3.8,7.1,2.5c1.7,1.6,2.6,3.9,2.6,6.7v9.5c0,2.9-.9,5.1-2.6,6.8s-4.1,2.5-7.1,2.5-5.3-.8-7-2.5ZM645.6,90.7c.6-.6.9-1.4.9-2.5v-10.1c0-1.1-.3-1.9-.9-2.5-.6-.6-1.4-.9-2.3-.9s-1.7.3-2.3.9c-.6.6-.9,1.4-.9,2.5v10.1c0,1.1.3,1.9.8,2.5.6.6,1.3.9,2.3.9s1.8-.3,2.3-.9Z"/>
  </g>
  <g>
    <path class="st3" d="M700.6,91.1c0,0,0,0,.2,0h9.9c.1,0,.2,0,.3.1,0,0,.1.2.1.3v4.6c0,.1,0,.2-.1.3,0,0-.2.1-.3.1h-18.2c-.1,0-.2,0-.3-.1,0,0-.1-.2-.1-.3v-4.3c0-.2,0-.4.2-.6,1.6-1.4,3.6-3.5,6.2-6.2l2.3-2.4c2.4-2.4,3.5-4.2,3.5-5.3s-.3-1.4-.8-1.9-1.3-.7-2.2-.7-1.6.2-2.1.7c-.5.5-.8,1.1-.8,1.9v.9c0,.1,0,.2-.1.3s-.2.1-.3.1h-5.6c-.1,0-.2,0-.3-.1s-.1-.2-.1-.3v-1.9c.1-1.4.6-2.7,1.4-3.8.9-1.1,2-1.9,3.4-2.5,1.4-.6,2.9-.9,4.7-.9s3.6.4,5,1.1c1.4.7,2.5,1.7,3.3,2.9.8,1.2,1.1,2.6,1.1,4s-.3,2.1-.8,3.2-1.3,2.2-2.3,3.5c-.7.9-1.5,1.8-2.4,2.7s-2.2,2.1-3.8,3.6l-.8.7c0,0,0,.1,0,.2Z"/>
    <path class="st3" d="M718.4,94.7c-1.7-1.7-2.6-3.9-2.6-6.8v-9.5c0-2.8.9-5.1,2.6-6.7,1.7-1.6,4-2.4,7-2.4s5.3.8,7.1,2.5c1.7,1.6,2.6,3.9,2.6,6.7v9.5c0,2.9-.9,5.1-2.6,6.8s-4.1,2.5-7.1,2.5-5.3-.8-7-2.5ZM727.8,90.7c.6-.6.9-1.4.9-2.5v-10.1c0-1.1-.3-1.9-.9-2.5-.6-.6-1.4-.9-2.3-.9s-1.7.3-2.3.9c-.6.6-.9,1.4-.9,2.5v10.1c0,1.1.3,1.9.8,2.5.6.6,1.3.9,2.3.9s1.8-.3,2.3-.9Z"/>
    <path class="st3" d="M748.7,91.1c0,0,0,0,.2,0h9.9c.1,0,.2,0,.3.1,0,0,.1.2.1.3v4.6c0,.1,0,.2-.1.3,0,0-.2.1-.3.1h-18.2c-.1,0-.2,0-.3-.1,0,0-.1-.2-.1-.3v-4.3c0-.2,0-.4.2-.6,1.6-1.4,3.6-3.5,6.2-6.2l2.3-2.4c2.4-2.4,3.5-4.2,3.5-5.3s-.3-1.4-.8-1.9-1.3-.7-2.2-.7-1.6.2-2.1.7c-.5.5-.8,1.1-.8,1.9v.9c0,.1,0,.2-.1.3s-.2.1-.3.1h-5.6c-.1,0-.2,0-.3-.1s-.1-.2-.1-.3v-1.9c.1-1.4.6-2.7,1.4-3.8.9-1.1,2-1.9,3.4-2.5,1.4-.6,2.9-.9,4.7-.9s3.6.4,5,1.1c1.4.7,2.5,1.7,3.3,2.9.8,1.2,1.1,2.6,1.1,4s-.3,2.1-.8,3.2-1.3,2.2-2.3,3.5c-.7.9-1.5,1.8-2.4,2.7s-2.2,2.1-3.8,3.6l-.8.7c0,0,0,.1,0,.2Z"/>
    <path class="st3" d="M766.5,94.7c-1.7-1.7-2.6-3.9-2.6-6.8v-9.5c0-2.8.9-5.1,2.6-6.7,1.7-1.6,4-2.4,7-2.4s5.3.8,7.1,2.5c1.7,1.6,2.6,3.9,2.6,6.7v9.5c0,2.9-.9,5.1-2.6,6.8s-4.1,2.5-7.1,2.5-5.3-.8-7-2.5ZM775.9,90.7c.6-.6.9-1.4.9-2.5v-10.1c0-1.1-.3-1.9-.9-2.5-.6-.6-1.4-.9-2.3-.9s-1.7.3-2.3.9c-.6.6-.9,1.4-.9,2.5v10.1c0,1.1.3,1.9.8,2.5.6.6,1.3.9,2.3.9s1.8-.3,2.3-.9Z"/>
  </g>
</svg>