<?xml version="1.0" encoding="UTF-8"?>
<svg id="Camada_2" xmlns="http://www.w3.org/2000/svg" version="1.1" viewBox="0 0 423 392">
  <!-- Generator: Adobe Illustrator 30.2.1, SVG Export Plug-In . SVG Version: 2.1.1 Build 1)  -->
  <defs>
    <style>
      .st0 {
        fill: #4d1c5b;
      }

      .st1 {
        fill: #ee6f22;
      }
    </style>
  </defs>
  <path class="st0" d="M231.5,238.5c-1.6-3.6-1.3-7.7,1-10.9,2.4-3.4,6.7-5.5,10.9-5.2,8.9.6,17.5,2.8,25.7,6.7.8.4,1.6.9,2.3,1.5,3.8-7.3,6.5-15.5,7.7-24.3,3.5-13.6,2.4-27.2-2.5-39.4-.1,0-.3,0-.4.1-6.6,1.1-13.2,3.1-19.6,6-4.3,1.9-9.2,1-12.5-2.3s-3.8-6.1-3.6-9.6c.6-8.9,2.8-17.5,6.7-25.7.2-.4.4-.9.7-1.3-9.1-5.2-19.8-8.6-31.6-9.3-12.7,0-26.2,3.6-38.3,10.4v.2c1.1,6.6,3.1,13.2,6,19.6,1.6,3.6,1.3,7.7-1,10.9-2.4,3.4-6.7,5.5-10.9,5.2-8.4-.5-16.6-2.6-24.3-6.1-2.9,5.2-5.2,10.8-6.7,16.8-3.9,15.6,1,31.8,9.7,45.5.9-.4,1.8-.6,2.8-.8,6.6-1.1,13.2-3.1,19.6-6,4.3-1.9,9.2-1,12.5,2.3s3.8,6.1,3.6,9.6c-.5,8.9-2.8,17.5-6.7,25.7-.1.2-.3.5-.4.7,3.1,1.9,6.2,3.4,8.9,4.4,16.5,5.9,33.2,4.8,47.7-1.6-.6-1.1-.9-2.3-1.1-3.5-1.1-6.6-3.1-13.2-6-19.6h-.2Z"/>
  <path class="st1" d="M248.3,161.5c0,1.2.4,2.6,1.3,3.4s2.2,1.3,3.6.7c6.9-3.1,14.1-5.4,21.6-6.6,3.4-.6,4-4.7,2.2-6.6-.6-.6-1.6-1-2.8-.8-3.1.5-6.1,1.2-9.1,1.9,6.2-5.7,12.3-11.6,18.2-17.7-1.8-1.4-3.5-2.9-5-4.5-.1-.1-.3-.3-.4-.4h0c-6.5,6.6-13.1,13.1-19.9,19.3.8-2.9,1.9-5.7,3.2-8.5.8-1.6.3-3-.6-3.9-1.6-1.6-4.8-1.9-6.1.9-3.4,7.2-5.5,14.8-5.9,22.7h-.3Z"/>
  <path class="st1" d="M176.6,158.3c-3.1-6.9-5.4-14.1-6.6-21.6-.1-.9-.5-1.6-1-2.1-2.2-2.2-7-1.1-6.3,2.7.5,3.1,1.2,6.1,1.9,9.1-4.4-4.8-8.9-9.4-13.4-14s-2.8-2.8-4.2-4.2c-1.6,2-3.2,3.8-4.9,5.5h0c1.5,1.5,3.1,3,4.6,4.5,5,5,9.9,10.2,14.7,15.4-2.9-.8-5.7-1.9-8.5-3.2-3.9-1.8-6.7,3.4-4.1,6s.6.6,1.1.8c7.2,3.4,14.8,5.5,22.7,5.9,2.5.1,5.3-2.1,4.1-4.9h-.1Z"/>
  <path class="st1" d="M273.4,259.7h0c-1.5-1.5-3.1-3-4.6-4.5-5-5-9.9-10.2-14.7-15.4,2.9.8,5.7,1.9,8.5,3.2,3.9,1.8,6.7-3.4,4.1-6-.3-.3-.6-.6-1.1-.8-7.2-3.4-14.8-5.5-22.7-5.9-2.5-.1-5.3,2.1-4.1,4.9,3.1,6.9,5.4,14.1,6.6,21.6.1.9.5,1.6,1,2.1,2.2,2.2,7,1.1,6.3-2.7-.5-3.1-1.2-6.1-1.9-9.1,4.4,4.8,8.9,9.4,13.5,14l4.2,4.2c1.6-2,3.2-3.8,4.9-5.5h0Z"/>
  <path class="st1" d="M285.3,127.2c.5.5,1,.9,1.6,1.4,0,0,.1,0,.1.1.5.4.9.8,1.4,1.1,1.1.9,2.3,1.8,3.5,2.6,9.1,6.2,19,8.4,28.5,6.2,9.9-2.2,18.5-8.8,24.4-18.6,5.6-9.5,7.6-18.7,5.9-27.2-1.3-6.2-4.4-11.8-9.4-16.8-2.9-2.9-6.5-5.7-10.7-8.1-11.3-6.7-22-8.6-31.5-5.7-8.4,2.6-15.5,8.7-21.1,18.2-9.2,15.6-7,32,5.4,44.8.2.2.3.4.5.5.5.5,1,.9,1.5,1.4h0ZM286.9,85.7c4.3-7.2,9.4-11.8,15.2-13.6,6.7-2.1,14.5-.5,23.2,4.7,3.4,2,6.3,4.2,8.6,6.5,3.6,3.6,5.8,7.4,6.6,11.6,1.2,6-.3,12.7-4.6,19.9-4.3,7.2-10.7,12.2-17.7,13.8-6.7,1.5-13.8-.1-20.5-4.7-2.6-1.8-4.9-3.7-6.9-5.6-9.5-9.5-11-20.8-4-32.5h0Z"/>
  <path class="st1" d="M336.5,312.6c10.3-17.3,9.1-33.3-2.8-45.2-2.7-2.7-6-5.2-9.7-7.4-15.6-9.2-32-7.1-44.8,5.3l-2.4,2.4h0c-.7.9-1.4,1.6-2,2.5h0c0,.1-.2.2-.2.3-.9,1.1-1.7,2.2-2.5,3.4-6.2,9.1-8.4,19-6.2,28.5,1.5,6.6,4.9,12.6,9.9,17.7s5.4,4.8,8.7,6.7c9.5,5.6,18.6,7.6,27.2,5.9,9.8-2,18.2-8.8,24.9-20.1h-.1ZM309.5,322.5c-6,1.2-12.7-.3-19.9-4.6-2.5-1.5-4.6-3.1-6.5-5-3.7-3.7-6.2-8-7.2-12.7-1.5-6.7.1-13.8,4.7-20.5,10.5-15.4,24-19.3,38.2-10.9,3,1.8,5.6,3.7,7.7,5.8,8.6,8.6,9,19.5,1.2,32.6-5.2,8.7-11.3,13.9-18.1,15.2h-.1Z"/>
  <path class="st1" d="M151.3,262c.1.1.3.3.4.5h0c6.4-6.6,13.1-13.1,19.9-19.3-.8,2.9-1.9,5.7-3.2,8.5-.8,1.6-.3,3,.6,3.9,1.6,1.6,4.8,1.9,6.1-.9,3.4-7.2,5.5-14.8,5.9-22.7,0-1.2-.4-2.6-1.3-3.4-.9-.9-2.2-1.3-3.6-.7-6.9,3.1-14.1,5.4-21.6,6.6-3.4.6-4,4.7-2.2,6.6s1.6,1,2.8.8c3.1-.5,6.1-1.2,9.1-1.9-6.2,5.7-12.3,11.6-18.2,17.7,1.8,1.4,3.5,2.9,5,4.5h0l-1.5,1.5h0l1.5-1.5h0l.3-.2Z"/>
  <path class="st1" d="M145.7,267.7h0c-.5-.5-1-.9-1.5-1.4s-1.1-.9-1.6-1.4h-.1c-.4-.5-.9-.9-1.4-1.2-1.1-.9-2.3-1.8-3.5-2.6-9.1-6.2-19-8.4-28.5-6.2-9.8,2.2-18.6,8.9-24.3,18.6-9.8,16.5-8.4,32.1,3.6,44.1h0c2.9,2.9,6.4,5.6,10.6,8.1,11.3,6.7,21.9,8.6,31.5,5.7,8.4-2.6,15.5-8.7,21.1-18.2,9.2-15.6,7.1-32-5.4-44.8-.2-.2-.3-.4-.5-.5h0v-.2ZM142.6,307.8c-4.3,7.2-9.4,11.8-15.2,13.6-6.7,2.1-14.5.5-23.2-4.7-3.4-2-6.3-4.2-8.6-6.5-8.7-8.7-9.4-19.2-2.1-31.5,4.3-7.2,10.7-12.2,17.7-13.8,6.7-1.5,13.8.1,20.5,4.7h0c2.6,1.8,4.9,3.7,6.9,5.6,9.5,9.5,11,20.8,4,32.5h0Z"/>
  <path class="st1" d="M139.7,73.4h0c-2.5-2.5-5.4-4.8-8.7-6.7-20.6-12.2-39.6-7-52.2,14.2-10.3,17.3-9.1,33.3,2.8,45.2,2.7,2.7,5.9,5.2,9.7,7.4,18.7,11.1,38.6,5.7,52-14,6.2-9.1,8.4-19,6.2-28.5-1.5-6.6-4.9-12.6-9.9-17.7h0ZM134.8,113.7c-10.5,15.4-24,19.3-38.2,10.9-3-1.8-5.6-3.7-7.7-5.8-8.6-8.6-9-19.5-1.2-32.6,9.7-16.3,22.4-19.8,38-10.6,2.4,1.4,4.6,3.2,6.5,5.1,3.7,3.7,6.2,8.1,7.2,12.7,1.5,6.7-.1,13.7-4.7,20.5h0v-.2Z"/>
</svg>