<?xml version="1.0" encoding="UTF-8"?>
<svg id="Camada_2" xmlns="http://www.w3.org/2000/svg" version="1.1" viewBox="0 0 423 392">
  <!-- Generator: Adobe Illustrator 30.2.1, SVG Export Plug-In . SVG Version: 2.1.1 Build 1)  -->
  <defs>
    <style>
      .st0 {
        fill: #4d1c5b;
      }

      .st1 {
        fill: #ee6f22;
      }
    </style>
  </defs>
  <path class="st0" d="M94.4,158.4l-37.7-17.8c-.7,2.3-1.9,4.5-3.4,6.7l38,17.9c.7-2.4,1.7-4.6,3.1-6.8Z"/>
  <path class="st0" d="M132.5,149.2l7.2-31.8c-2.6-.1-5.1-.6-7.3-1.4l-6.8,29.9c2.4.7,4.7,1.9,6.9,3.3h0Z"/>
  <path class="st0" d="M105.2,251l-22.1,16.5c.1.1.2.3.4.4,1.6,1.8,3,3.7,4.1,5.6l21.5-16c-1.6-1.9-2.8-4-3.8-6.5h0Z"/>
  <path class="st0" d="M122.9,219.1c1.2-.2,2.4-.3,3.5-.3l-2.3-17.3c-1.9.4-3.8.6-5.7.6s-1.2,0-1.8,0l2.4,18c1.3-.4,2.6-.8,3.9-1h0Z"/>
  <path class="st0" d="M158.2,110.1l44.5,38.5c1.5-2.1,3.3-3.8,5.4-5.2l-45.9-39.7c-.9,2.4-2.3,4.6-3.9,6.5h0Z"/>
  <path class="st0" d="M148.3,248.1l43.4,8.8c0-2.5.5-4.9,1.2-7.4l-44.3-9c.3,2.6.2,5.1-.4,7.6h0Z"/>
  <path class="st0" d="M339.6,163.9l28.5,18.2c1-2.4,2.3-4.6,3.8-6.4l-26.9-17.2c-1.5,2-3.3,3.8-5.4,5.4h0Z"/>
  <path class="st0" d="M368.3,201.3c-.5-1-1-2.1-1.3-3.1l-48.6,29.1c1,1.2,1.8,2.5,2.6,4,.4.8.9,1.6,1.2,2.4l48.2-28.9c-.8-1.1-1.6-2.2-2.2-3.5h0Z"/>
  <path class="st0" d="M243.1,162.5l51.2-11.3c-.6-1.8-1-3.6-1.2-5.5,0-.6-.1-1.3-.2-1.9l-50.6,11.2c.7,2.3,1,4.8.8,7.5h0Z"/>
  <path class="st0" d="M235.8,145.2l22.2-52.6c-1.9-.4-3.8-1.1-5.6-2-.5-.2-.9-.5-1.4-.8l-21.7,51.5c1,.4,2,.9,3,1.4,1.3.7,2.5,1.5,3.6,2.4h0Z"/>
  <path class="st0" d="M221.2,185.7c-1.5,0-3-.1-4.6-.4v43.1c1.2-.2,2.3-.3,3.5-.3s2.6.1,3.9.3v-42.9c-1,.1-1.9.2-2.9.2h0Z"/>
  <path class="st0" d="M278.8,243.5l-30.5,6.7c.4,2.4.6,5,.3,7.6l32-7.1c-1-2.4-1.6-4.9-1.8-7.3h0Z"/>
  <path class="st0" d="M312.4,262.2c-1.1.6-2.2,1.1-3.3,1.5l17.6,42.4c1.9-1.1,3.9-2,6.1-2.7.3,0,.5-.1.8-.2l-17.8-43.1c-1,.8-2.1,1.5-3.3,2.1h0Z"/>
  <path class="st0" d="M202.3,279c-.7-.6-1.4-1.2-2.1-1.8l-27,42.3c.9.3,1.9.7,2.8,1.1,1.4.6,2.8,1.3,4,2.1l26.2-41.1c-1.4-.8-2.7-1.6-3.9-2.6h0Z"/>
  <path class="st0" d="M161.2,318.6l-23.2-57c-.9.5-1.9,1-2.9,1.5-1.3.6-2.7,1-4,1.4l23.3,57.1c2.1-1.4,4.4-2.4,6.9-2.9h0Z"/>
  <path class="st1" d="M52,133.8c-.2-4.6-2.5-8.8-6.9-12.5-3.7-3.1-7.6-4.7-11.5-4.7s-6.1,1-8.8,3c-1.3,1-2.6,2.2-3.8,3.6-6.1,7.3-5.2,16.9,2.2,23.9,3.3,3.1,7.3,4.8,11.4,4.8s.6,0,.9,0c3.1-.2,6-1.3,8.6-3.1,1.3-.9,2.4-2,3.5-3.3,3.1-3.7,4.6-7.6,4.4-11.6Z"/>
  <path class="st1" d="M141.4,111.8c4.9,0,9.2-1.7,12.3-5,2.1-2.2,3.5-5.1,4.1-8.2.3-1.5.4-3.1.3-4.7-.3-4.8-1.9-8.7-4.8-11.5-3-2.9-7-4.4-12-4.4s-1.1,0-1.6,0c-8.7.5-14.5,5.2-16,12.8-.3,1.6-.4,3.4-.3,5.2.6,9.5,7.8,15.8,18,15.8h0Z"/>
  <path class="st1" d="M398.5,176c-1.4-.8-3-1.5-4.8-2-1.7-.5-3.4-.7-5.1-.7-7.2,0-13.2,4.6-15.9,12.3-1.7,4.6-1.5,9.2.6,13.2,1.4,2.7,3.6,5,6.3,6.7,1.3.8,2.8,1.4,4.4,1.9,2,.6,3.9.9,5.7.9s4.7-.5,6.7-1.5c4.2-2,7.1-5.8,8.7-11.3,2.4-8.4,0-15.4-6.6-19.4h0Z"/>
  <path class="st1" d="M229.6,147.7c-1.4-.8-3.1-1.4-4.8-1.9-1.6-.4-3.1-.6-4.6-.6-7.4,0-13.4,4.8-16.1,12.8-1.5,4.7-1.2,9.2.9,13.2,1.5,2.7,3.7,4.9,6.5,6.5,1.4.8,2.9,1.3,4.4,1.8,1.8.5,3.6.7,5.3.7,2.6,0,5-.6,7.1-1.7,4.1-2.1,6.9-6,8.4-11.5,2.2-8.4-.4-15.4-7.1-19.2h0Z"/>
  <path class="st1" d="M132.8,257.9c4.4-1.9,7.5-4.8,9.1-8.5,1.9-4.2,1.7-9-.6-14.2-3.1-7-8.3-10.8-14.7-10.8s-1.9,0-2.8.2c-1.6.3-3.3.8-5,1.5-8.7,3.8-12.2,12.8-8.6,22.4,1.7,4.6,4.8,8,8.9,9.7,2,.8,4.1,1.3,6.3,1.3s1.9,0,2.8-.2c1.5-.3,3.1-.7,4.6-1.4h0Z"/>
  <path class="st1" d="M301.9,224.4c-1.3,0-2.7.2-4.1.5-1.6.4-3.2,1.1-4.8,1.9-8.3,4.6-11,13.8-6.6,23,2.1,4.5,5.5,7.5,9.7,8.9,1.6.5,3.2.8,4.9.8s2.9-.2,4.3-.6c1.5-.4,3-1,4.4-1.8,4.2-2.3,7-5.4,8.3-9.2,1.5-4.4.9-9.1-1.9-14.1-3.4-6.2-8.4-9.6-14.3-9.6h0Z"/>
  <path class="st1" d="M165.6,323.7c-4.7,0-8.8,2-11.8,5.9-1,1.3-1.9,2.8-2.6,4.5-3.8,8.7-.3,17.7,8.7,22.3,2.6,1.4,5.3,2,8,2s3.5-.3,5.1-.9c2.9-1,5.5-2.9,7.4-5.4,1-1.2,1.8-2.6,2.4-4.1,1.9-4.4,2.3-8.6,1-12.4-1.5-4.4-4.8-7.8-10.1-10.1-2.8-1.3-5.6-1.9-8.2-1.9h0Z"/>
  <path class="st0" d="M127.5,192.5c1.7-.9,3.3-1.9,4.7-3.2,2.6-2.3,4.5-4.7,5.8-7.4.9-1.8,1.4-3.7,1.6-5.6.6-5.6-1.3-11-5.8-16.1-4.6-5.2-10-7.9-15.5-7.9s-5.7.7-8.5,2.1c-1.8.9-3.5,2.1-5.1,3.5-8.6,7.6-9.3,19.1-1.8,28.8,3.6,4.7,8.4,7.4,13.8,8,.6,0,1.2,0,1.8,0,3.1,0,6.2-.8,9.1-2.2h0Z"/>
  <path class="st0" d="M301.8,150.3c1.3,3.2,2.9,5.8,5,7.9s3,2.5,4.7,3.4c2.5,1.2,5.1,1.8,8,1.8s5.9-.6,9.1-1.9c9.7-3.8,14.7-11.3,13.5-20.5-.2-2-.8-4-1.6-6-3.2-8.1-10.2-12.7-18.5-12.7s-5.2.4-7.9,1.3c-5.6,1.8-9.8,5.4-12.1,10.3-1.6,3.3-2.1,7.1-1.7,10.9.2,1.9.7,3.7,1.4,5.5h0Z"/>
  <path class="st0" d="M239,264.8c4.2-9.7,2.4-18.5-5-24.3-1.6-1.2-3.4-2.3-5.4-3.1-2.8-1.2-5.6-1.8-8.4-1.8-7.6,0-14.5,4.5-18.6,12.5-2.7,5.3-3.2,10.8-1.3,16,1.3,3.5,3.5,6.6,6.6,9,1.5,1.1,3.1,2.1,5,2.9,3.2,1.4,6.3,2.1,9.2,2.1s3.9-.3,5.8-1c5.3-1.8,9.4-5.9,12.1-12.2h0Z"/>
  <path class="st0" d="M77.8,272.9c-4.6-5.2-10-7.9-15.5-7.9s-5.7.7-8.5,2.1c-1.8.9-3.5,2.1-5.1,3.5-8.6,7.6-9.3,19.1-1.8,28.8,3.6,4.7,8.4,7.4,13.8,8,.6,0,1.2,0,1.8,0,3.1,0,6.2-.8,9.1-2.2,1.7-.9,3.3-1.9,4.7-3.2,2.6-2.3,4.5-4.7,5.8-7.4.9-1.8,1.4-3.7,1.6-5.6.6-5.6-1.3-11-5.8-16.1h0Z"/>
  <path class="st0" d="M255.8,84c2.5,1.2,5.1,1.8,8,1.8s5.9-.6,9.1-1.9c9.7-3.8,14.7-11.3,13.5-20.5-.2-2-.8-4-1.6-6-3.2-8.1-10.2-12.7-18.5-12.7s-5.2.4-7.9,1.3c-5.6,1.8-9.8,5.4-12.1,10.3-1.6,3.3-2.1,7.1-1.7,10.9.2,1.9.7,3.7,1.4,5.5,1.3,3.2,2.9,5.8,5,7.9,1.4,1.4,3,2.5,4.7,3.4h0Z"/>
  <path class="st0" d="M322.9,320.7c-1.6,3.3-2.1,7.1-1.7,10.9.2,1.9.7,3.7,1.4,5.5,1.3,3.2,2.9,5.8,5,7.9,1.4,1.4,3,2.5,4.7,3.4,2.5,1.2,5.1,1.8,8,1.8s5.9-.6,9.1-1.9c9.7-3.8,14.7-11.3,13.5-20.5-.2-2-.8-4-1.6-6-3.2-8.1-10.2-12.7-18.5-12.7s-5.2.4-7.9,1.3c-5.6,1.8-9.8,5.4-12.1,10.3h0Z"/>
</svg>