<?xml version="1.0" encoding="UTF-8"?>
<svg id="Camada_2" xmlns="http://www.w3.org/2000/svg" version="1.1" viewBox="0 0 423 392">
  <!-- Generator: Adobe Illustrator 30.2.1, SVG Export Plug-In . SVG Version: 2.1.1 Build 1)  -->
  <defs>
    <style>
      .st0 {
        fill: #4d1c5b;
      }

      .st1 {
        fill: #ee6f22;
      }
    </style>
  </defs>
  <path class="st0" d="M137.6,140.5c.6-1.1,1.2-2.1,1.9-3.2,2-3.4,4.6-7.2,8.6-9.7v-35.3l55,15.7v64.4l-24.6-7c-.8,1.4-1.6,2.7-2.4,4.1l-.9,1.6c-1.7,3-3.7,5.4-6,7.3l39.3,11.2c.7.2,1.4.3,2.1.3,1.4,0,2.7-.4,3.8-1.1l37.8-10.8c-2.1-1.8-3.9-4.1-5.6-7l-.9-1.6c-.9-1.5-1.7-3-2.6-4.5l-25.1,7.2v-64.4l55-15.7v35.2c4.4,2.6,7.2,6.5,9.3,10.1.6,1.1,1.2,2.1,1.9,3.2,1.3,2.2,2.6,4.5,3.9,6.8v-65.4c0-.2,0-.4,0-.6,0,0,0-.2,0-.2,0-.2,0-.4-.1-.6,0,0,0-.2,0-.2,0-.2-.1-.4-.2-.6,0,0,0-.1,0-.2,0-.2-.2-.5-.3-.7h0c-.1-.2-.2-.5-.4-.7,0,0-.1-.1-.1-.2-.1-.2-.2-.3-.3-.4,0,0-.1-.2-.2-.2-.1-.1-.2-.3-.4-.4,0,0-.1-.1-.2-.2-.2-.2-.3-.3-.5-.4,0,0,0,0-.1,0,0,0,0,0,0,0-.4-.3-.9-.6-1.4-.8,0,0-.1,0-.2,0-.2,0-.4-.2-.6-.2-.1,0-.2,0-.3,0-.1,0-.2,0-.3,0l-70-16.2c-1.1-.3-2.3-.3-3.4,0l-70,16.5c0,0-.2,0-.3,0-.1,0-.2,0-.3,0-.2,0-.4.1-.5.2,0,0-.1,0-.2,0-.5.2-1,.5-1.4.8,0,0,0,0,0,0,0,0,0,0,0,0-.2.1-.3.3-.5.4,0,0-.1.1-.2.2-.1.1-.2.3-.4.4s-.1.2-.2.2c-.1.1-.2.3-.3.4,0,0-.1.2-.2.2-.1.2-.2.4-.3.6,0,0,0,0,0,.1-.1.2-.2.5-.3.7,0,0,0,.1,0,.2,0,.2-.1.4-.2.6,0,0,0,.2,0,.2,0,.2,0,.4-.1.6,0,0,0,.2,0,.2,0,.2,0,.4,0,.6v66.4c.1-.2.2-.4.3-.6,1.4-2.5,2.9-5,4.3-7.5h0ZM210.5,73.5l40,9.3-40.5,11.6-39.8-11.4,40.3-9.5Z"/>
  <path class="st0" d="M383,228.8c0-.2,0-.4,0-.6,0,0,0-.2,0-.2,0-.2,0-.4-.1-.6,0,0,0-.2,0-.2,0-.2-.1-.4-.2-.6,0,0,0-.1,0-.2,0-.2-.2-.5-.3-.7h0c-.1-.2-.2-.5-.4-.7,0,0-.1-.1-.1-.2-.1-.1-.2-.3-.3-.4,0,0-.1-.1-.2-.2-.1-.1-.2-.3-.4-.4l-.2-.2c-.2-.1-.3-.3-.5-.4,0,0,0,0-.1,0,0,0,0,0,0,0-.4-.3-.9-.6-1.4-.8,0,0-.1,0-.2,0-.2,0-.4-.1-.6-.2-.1,0-.2,0-.3,0-.1,0-.2,0-.3,0l-62.2-14.4c-.5,1.8-1.4,3.6-2.4,5.4,1.6,2.8,3.5,6,4.9,8.6.4.8.8,1.5,1,2.3l27,6.3-40.5,11.6-39.8-11.4,21.7-5.1c-6.7-1-12.1-4.8-15.9-11.5,0,0,0-.1-.1-.2l-37.1,8.7c0,0-.2,0-.3,0-.1,0-.2,0-.3,0-.2,0-.4.1-.5.2,0,0-.1,0-.2,0-.5.2-1,.5-1.4.8,0,0,0,0,0,0,0,0,0,0,0,0-.2.1-.3.3-.5.4,0,0-.1.1-.2.2-.1.1-.2.3-.4.4,0,0-.1.1-.2.2-.1.1-.2.3-.3.4,0,0-.1.1-.2.2-.1.2-.2.4-.3.6,0,0,0,0,0,.1-.1.2-.2.5-.3.7,0,0,0,.1,0,.2,0,.2-.1.4-.2.6,0,0,0,.2,0,.2,0,.2,0,.4-.1.6,0,0,0,.2,0,.2,0,.2,0,.4,0,.6v20.2c.3,0,.6,0,.8,0h1.8c2,0,3.9,0,5.9,0s3.4,0,5.2,0c.4,0,.9,0,1.3,0v-10.1l55,15.7v64.4l-55-15.7v-6.7c-.9,0-1.8.1-2.7.1h-7.6c-1.6,0-3.1,0-4.6,0v12.3c0,3.4,2.2,6.3,5.4,7.2l70,20c.7.2,1.4.3,2.1.3,1.4,0,2.7-.4,3.8-1.1l68.2-19.5c3.2-.9,5.4-3.9,5.4-7.2v-80h0c0-.1,0-.2,0-.2ZM368,303.3l-55,15.7v-64.4l55-15.7v64.4Z"/>
  <path class="st0" d="M192.5,297c-2.6,0-5.1,0-7.7,0s-3.2,0-4.8,0v6.4l-55,15.7v-64.4l55-15.7v10.3c2.2,0,4.4,0,6.6,0s4.4,0,6.6,0c.6,0,1.2,0,1.9,0v-20.3h0c0-.4,0-.6,0-.8,0,0,0-.2,0-.2,0-.2,0-.4-.1-.6,0,0,0-.2,0-.2,0-.2-.1-.4-.2-.6,0,0,0-.1,0-.2,0-.2-.2-.5-.3-.7h0c-.1-.2-.2-.5-.4-.7,0,0-.1-.1-.1-.2-.1-.1-.2-.3-.3-.4,0,0-.1-.1-.2-.2-.1-.1-.2-.3-.4-.4l-.2-.2c-.2-.1-.3-.3-.5-.4,0,0,0,0-.1,0,0,0,0,0,0,0-.4-.3-.9-.6-1.4-.8,0,0-.1,0-.2,0-.2,0-.4-.1-.6-.2-.1,0-.2,0-.3,0-.1,0-.2,0-.3,0l-38.1-8.8c-.1.2-.2.4-.3.6-3.7,6.3-8.7,10.1-14.9,11.3l21.8,5-40.5,11.6-39.8-11.4,25.8-6.1c.3-.9.6-1.8,1.1-2.7,1.5-2.6,3.3-5.8,4.9-8.6-1-1.6-1.8-3.3-2.3-5l-61,14.4c0,0-.2,0-.3,0-.1,0-.2,0-.3,0-.2,0-.3.1-.5.2,0,0-.2,0-.2,0-.5.2-1,.5-1.4.8,0,0,0,0,0,0,0,0,0,0,0,0-.2.1-.3.3-.5.4,0,0-.1.1-.2.2-.1.1-.2.3-.4.4,0,0-.1.1-.2.2-.1.1-.2.3-.3.4,0,0-.1.1-.2.2-.1.2-.2.4-.3.6,0,0,0,0,0,.1-.1.2-.2.5-.3.7,0,0,0,.1,0,.2,0,.2-.1.4-.2.6,0,0,0,.2,0,.2,0,.2,0,.4,0,.6,0,0,0,.2,0,.2,0,.2,0,.4,0,.6v80.2c0,3.4,2.2,6.3,5.4,7.2l70,20c.7.2,1.4.3,2.1.3,1.3,0,2.7-.4,3.8-1.1l68.2-19.5c3.2-.9,5.4-3.9,5.4-7.2v-12.1c-.6,0-1.2,0-1.8,0h-.7ZM110,319.3l-55-15.7v-64.4l55,15.7v64.4h0Z"/>
  <path class="st1" d="M228,289c1.6,0,3.1,0,4.7,0,2.5,0,5.1,0,7.6,0,9.1,0,12.9-2.6,16.2-11.4h15.2c2.5,0,4.4-2,4.4-4.4s-2-4.4-4.4-4.4c-3.8,0-9.1-.1-12.7-.1h-.9c-1.1,0-1.7-.1-2.2-1.3-2.3-5.9-7.8-10-14.2-10.1-1.7,0-3.4,0-5.1,0-2.6,0-5.1,0-7.7,0-7.6,0-11.8,3-14.7,10-.2.6-1.2,1.1-1.9,1.3-.5.1-1,.2-1.6.2s-1,0-1.5-.2c-.7-.2-1.7-.8-1.9-1.5-2.5-6.5-7.2-9.8-14.2-9.8-2.2,0-4.4,0-6.5,0s-4.5,0-6.7,0c-7.3,0-11.7,3.1-14.3,9.9-.3.6-1.3,1.4-2,1.4-1.4,0-5.4,0-9.4,0h-4.3c-2.5,0-4.5,2-4.5,4.5s2,4.5,4.5,4.5h2.9c3.6,0,7.7,0,10.5,0h0c1.3,0,1.9.4,2.3,1.7,2.2,6.3,6.9,9.5,13.4,9.6,1.9,0,3.8,0,5.6,0,2.8,0,5.6,0,8.3,0,7.1,0,11.6-3.1,14.2-9.8.3-.6,1.2-1.2,1.9-1.4.3,0,.6-.1,1-.1.5,0,1,0,1.5,0s.3,0,.4,0c.1,0,.2,0,.3,0,1,0,1.5.5,1.9,1.6,2.2,6.4,6.9,9.6,13.7,9.7h0ZM224.1,268.5h-.1c1.1-1.5,6.1-2.3,11.1-2.3s9.9.8,11.1,2.3h-.1c-1.9.1-3.4,1.7-3.4,3.6v2.1c0,1.9,1.5,3.5,3.4,3.6h0c-1,1.5-6,2.2-11,2.2s-9.9-.7-11-2.2h.1c1.9-.1,3.3-1.7,3.3-3.6v-2.1c0-1.9-1.5-3.5-3.4-3.6h0ZM197.2,277.8h0c0,.2.2.5.3.7-1.2.5-2.4,1.3-3.6,1.3-2.5,0-4.9.1-7.4.1s-5.2,0-7.7-.1c-1.2,0-2.4-.8-3.6-1.2.1-.3.2-.5.3-.8h0c1.8-.1,3.2-1.6,3.2-3.4v-2.4c0-1.8-1.4-3.3-3.2-3.4,0,0-.1,0-.2,0,.9-1.5,6-2.3,11.1-2.3s9.8.7,11.1,2.2h-.4c-1.8.2-3.2,1.6-3.2,3.4v2.5c0,1.8,1.4,3.3,3.2,3.4h0Z"/>
  <path class="st1" d="M275.3,141.2c-3.6-6.3-7.1-8.9-13-8.9s-3.1.2-4.9.5l-7.6-13.2c-.8-1.4-2.3-2.2-3.9-2.2s-1.5.2-2.2.6c-2.1,1.2-2.9,3.9-1.7,6,2,3.6,4.9,8.8,6.7,11.8.6.9.8,1.6,0,2.6-4,5-4.8,11.8-1.6,17.3,2.1,3.7,4.2,7.4,6.4,11.1,3.2,5.6,7,8,12.7,8s2.1,0,3.3-.2h.1c.6,0,1.4.5,1.9,1,.7.8,1.3,1.7,1.5,2.7.2.7.1,1.9-.3,2.4-4.4,5.4-4.9,11.1-1.5,17.2,2.2,3.8,4.4,7.7,6.6,11.5,3.1,5.3,7.1,7.8,12.6,7.8s2,0,3.1-.2c0,0,.1,0,.2,0,.7,0,1.7.5,2,1,1,1.6,4.5,7.7,6.9,11.8.8,1.5,2.4,2.3,3.9,2.3s1.5-.2,2.3-.6c2.2-1.2,2.9-4,1.7-6.2-2-3.5-4.9-8.5-6.7-11.6-.7-1.1-.7-1.9.2-2.9,4.3-5,4.9-10.7,1.6-16.5-2.3-4.1-4.6-8.1-7-12.1-3-5.2-7-7.7-12.4-7.7s-2,0-3.1.2c0,0-.1,0-.2,0-.7,0-1.5-.5-2-1-.7-.6-.9-1.7-1.5-2.4-.7-1-.5-1.7.3-2.7,4.4-5.1,4.9-10.7,1.6-16.7-2-3.6-4.1-7.1-6.1-10.6h0ZM281.8,190.3c.6,0,1.2-.1,1.7-.4l2.2-1.2c1.6-.9,2.2-2.9,1.4-4.5,0,0,0,0,0,0,.1-.2.3-.4.5-.6,1,.8,2.3,1.4,2.9,2.5,2.6,4.3,5.1,8.7,7.5,13.1.6,1.1.5,2.4.7,3.7-.3,0-.5,0-.8.1h0c-.6-1-1.8-1.6-2.9-1.6s-1.2.1-1.7.4l-2.1,1.2c-1.6.9-2.2,2.9-1.4,4.5,0,0,0,.1,0,.2-3.5,0-12.5-15.4-11.1-19.2l.2.3c.7,1,1.7,1.5,2.8,1.5h0ZM254.6,146.3h0c.7,1.2,1.8,1.7,3,1.7s1.2-.2,1.8-.5l1.8-1.1c1.6-.9,2.3-3,1.4-4.7,0,0,0,0,0,0,3.5.2,12.4,15.6,11,19.1h0c-.7-1.1-1.8-1.7-3-1.7s-1.2.2-1.8.5l-1.9,1.1c-1.6.9-2.3,3-1.4,4.7,0,0,0,0,0,0-3.7-.4-12.5-15.6-11-19.2h0Z"/>
  <path class="st1" d="M117.8,213.6c-1.8,3.1-4.7,8.1-6.7,11.6-1.2,2.2-.5,4.9,1.7,6.2.7.4,1.5.6,2.3.6,1.6,0,3.1-.8,3.9-2.3,2.3-4.1,5.8-10.2,6.9-11.8.3-.5,1.3-1,2-1s.1,0,.2,0c1.1.2,2.1.2,3.1.2,5.5,0,9.5-2.4,12.6-7.8,2.2-3.8,4.4-7.6,6.6-11.5,3.4-6,2.9-11.8-1.5-17.2-.4-.6-.5-1.7-.3-2.4.3-1,.9-1.9,1.5-2.7.4-.5,1.3-1,1.9-1h.1c1.2.2,2.3.2,3.3.2,5.7,0,9.5-2.4,12.7-8,2.1-3.7,4.3-7.4,6.4-11.1,3.1-5.6,2.3-12.4-1.6-17.3-.8-1-.6-1.7,0-2.6,1.8-3.1,4.7-8.3,6.7-11.8,1.2-2.1.4-4.8-1.7-6-.7-.4-1.5-.6-2.2-.6-1.5,0-3,.8-3.9,2.2l-7.6,13.2c-1.8-.3-3.5-.5-4.9-.5-5.9,0-9.4,2.6-13,8.9-2,3.6-4.1,7.1-6.1,10.6-3.3,5.9-2.8,11.6,1.6,16.7.8,1,1,1.7.3,2.7-.6.8-.8,1.8-1.5,2.4-.5.5-1.4,1-2,1s-.1,0-.2,0c-1.1-.2-2.1-.2-3.1-.2-5.4,0-9.4,2.4-12.4,7.7-2.3,4-4.7,8-6.9,12.1-3.2,5.8-2.7,11.4,1.6,16.5.9,1.1.9,1.8.2,2.9h0ZM158.9,141.8s0,0,0,0c-.8,1.7-.2,3.8,1.4,4.7l1.8,1.1c.6.3,1.2.5,1.8.5,1.2,0,2.3-.6,3-1.6h0c1.5,3.5-7.3,18.7-11,19.1,0,0,0,0,0,0,.8-1.7.2-3.8-1.4-4.7l-1.9-1.1c-.6-.3-1.2-.5-1.8-.5-1.2,0-2.3.6-3,1.6h0c-1.4-3.4,7.5-18.7,11-19h0ZM123.8,199.1c2.4-4.4,4.9-8.8,7.6-13.1.6-1,1.9-1.7,2.9-2.5.1.2.3.4.5.6,0,0,0,0,0,0-.8,1.6-.2,3.6,1.4,4.5l2.2,1.2c.5.3,1.1.4,1.7.4,1.1,0,2.2-.5,2.8-1.5l.2-.3c1.4,3.8-7.6,19.1-11.1,19.2,0,0,0-.1,0-.2.8-1.6.2-3.6-1.4-4.5l-2.1-1.2c-.5-.3-1.1-.4-1.7-.4-1.1,0-2.2.6-2.9,1.6h0c-.3,0-.6,0-.8,0,.2-1.2.2-2.6.7-3.7h0Z"/>
</svg>